<?xml version="1.0" encoding="UTF-8" standalone="no"?>
<svg
   xmlns:dc="http://purl.org/dc/elements/1.1/"
   xmlns:cc="http://creativecommons.org/ns#"
   xmlns:rdf="http://www.w3.org/1999/02/22-rdf-syntax-ns#"
   xmlns:svg="http://www.w3.org/2000/svg"
   xmlns="http://www.w3.org/2000/svg"
   xmlns:sodipodi="http://sodipodi.sourceforge.net/DTD/sodipodi-0.dtd"
   xmlns:inkscape="http://www.inkscape.org/namespaces/inkscape"
   width="235"
   height="148.95166"
   viewBox="0 0 235 148.95166"
   version="1.1"
   id="svg7"
   sodipodi:docname="sit_icons_homelessness.svg"
   inkscape:version="0.92.4 (5da689c313, 2019-01-14)">
  <metadata
     id="metadata11">
    <rdf:RDF>
      <cc:Work
         rdf:about="">
        <dc:format>image/svg+xml</dc:format>
        <dc:type
           rdf:resource="http://purl.org/dc/dcmitype/StillImage" />
      </cc:Work>
    </rdf:RDF>
  </metadata>
  <sodipodi:namedview
     pagecolor="#ffffff"
     bordercolor="#666666"
     borderopacity="1"
     objecttolerance="10"
     gridtolerance="10"
     guidetolerance="10"
     inkscape:pageopacity="0"
     inkscape:pageshadow="2"
     inkscape:window-width="640"
     inkscape:window-height="480"
     id="namedview9"
     showgrid="false"
     inkscape:zoom="6.4296875"
     inkscape:cx="92.504253"
     inkscape:cy="74.951869"
     inkscape:current-layer="svg7" />
  <defs
     id="defs4">
    <style
       id="style2">
      .cls-1 {
        fill-rule: evenodd;
      }
    </style>
  </defs>
  <path
     id="IconGraphic"
     class="cls-1"
     d="m 195.688,94.999792 v -28.355 h -16.959 v 28.355 H 161 v -53.645 l 37,-26.055 15.417,10.857 v -13.157 h 10.791 v 20.755 l 10.792,7.6 v 53.645 z m -70.446,-8.512 H 60 v -37.976 h 65.241 l -0.171,-11.512 28.93,29.945 -28.93,31.055 z M 42,96.128792 h -1.282 v 45.317998 a 7.592,7.592 0 0 1 -15.183,0 V 96.128792 h -2.76 v 45.317998 a 7.592,7.592 0 0 1 -15.183,0 V 96.128792 H 7 a 7,7 0 0 1 -7,-7 v -45.737 a 7,7 0 0 1 7,-7 h 35 a 7,7 0 0 1 7,7 v 45.737 a 7,7 0 0 1 -7,7 z m -17.5,-63.857 a 16.136,16.136 0 1 1 16.218,-16.136 16.177,16.177 0 0 1 -16.218,16.136 z"
     style="fill:#ffffff;fill-rule:evenodd"
     inkscape:connector-curvature="0" />
</svg>
