<?xml version="1.0" encoding="UTF-8" standalone="no"?>
<svg
   xmlns:dc="http://purl.org/dc/elements/1.1/"
   xmlns:cc="http://creativecommons.org/ns#"
   xmlns:rdf="http://www.w3.org/1999/02/22-rdf-syntax-ns#"
   xmlns:svg="http://www.w3.org/2000/svg"
   xmlns="http://www.w3.org/2000/svg"
   xmlns:sodipodi="http://sodipodi.sourceforge.net/DTD/sodipodi-0.dtd"
   xmlns:inkscape="http://www.inkscape.org/namespaces/inkscape"
   width="123"
   height="226.0045"
   viewBox="0 0 123 226.0045"
   version="1.1"
   id="svg7"
   sodipodi:docname="icons_cctvcameras.svg"
   inkscape:version="0.92.4 (5da689c313, 2019-01-14)">
  <metadata
     id="metadata11">
    <rdf:RDF>
      <cc:Work
         rdf:about="">
        <dc:format>image/svg+xml</dc:format>
        <dc:type
           rdf:resource="http://purl.org/dc/dcmitype/StillImage" />
      </cc:Work>
    </rdf:RDF>
  </metadata>
  <sodipodi:namedview
     pagecolor="#ffffff"
     bordercolor="#666666"
     borderopacity="1"
     objecttolerance="10"
     gridtolerance="10"
     guidetolerance="10"
     inkscape:pageopacity="0"
     inkscape:pageshadow="2"
     inkscape:window-width="640"
     inkscape:window-height="480"
     id="namedview9"
     showgrid="false"
     inkscape:zoom="6.4296875"
     inkscape:cx="61"
     inkscape:cy="113.0045"
     inkscape:current-layer="svg7" />
  <defs
     id="defs4">
    <style
       id="style2">
      .cls-1 {
        fill-rule: evenodd;
      }
    </style>
  </defs>
  <path
     id="IconGraphic"
     class="cls-1"
     d="m 118,185.909 h -1.254 v 34.363 a 5.732,5.732 0 0 1 -11.464,0 V 185.909 H 103.2 v 34.363 a 5.733,5.733 0 0 1 -11.465,0 V 185.909 H 91 a 5,5 0 0 1 -5,-5 v -35.318 a 5,5 0 0 1 5,-5 h 27 a 5,5 0 0 1 5,5 v 35.318 a 5,5 0 0 1 -5,5 z m -1.253,-60.667 A 12.247,12.247 0 1 1 104.5,113 12.244,12.244 0 0 1 116.747,125.242 Z M 109.5,101 h -97 A 8.5,8.5 0 0 1 4,92.5 v -70 A 8.5,8.5 0 0 1 12.5,14 h 16 a 14,14 0 0 1 14,-14 h 37 a 14,14 0 0 1 14,14 h 16 a 8.5,8.5 0 0 1 8.5,8.5 v 70 a 8.5,8.5 0 0 1 -8.5,8.5 z M 61,28 A 29,29 0 1 0 90,57 29,29 0 0 0 61,28 Z M 6.253,125.242 A 12.247,12.247 0 1 1 18.5,137.483 12.244,12.244 0 0 1 6.253,125.242 Z M 32,140.591 a 5,5 0 0 1 5,5 v 35.318 a 5,5 0 0 1 -5,5 h -1.253 v 34.363 a 5.7325,5.7325 0 0 1 -11.465,0 V 185.909 H 17.2 v 34.363 a 5.7325,5.7325 0 0 1 -11.465,0 V 185.909 H 5 a 5,5 0 0 1 -5,-5 v -35.318 a 5,5 0 0 1 5,-5 z M 49.253,125.242 A 12.247,12.247 0 1 1 61.5,137.483 12.244,12.244 0 0 1 49.253,125.242 Z M 48,140.591 h 27 a 5,5 0 0 1 5,5 v 35.318 a 5,5 0 0 1 -5,5 h -1.254 v 34.363 a 5.732,5.732 0 0 1 -11.464,0 V 185.909 H 60.2 v 34.363 a 5.733,5.733 0 0 1 -11.465,0 V 185.909 H 48 a 5,5 0 0 1 -5,-5 v -35.318 a 5,5 0 0 1 5,-5 z"
     style="fill:#ffffff;fill-rule:evenodd"
     inkscape:connector-curvature="0" />
</svg>
