<?xml version="1.0" encoding="UTF-8" standalone="no"?>
<svg
   xmlns:dc="http://purl.org/dc/elements/1.1/"
   xmlns:cc="http://creativecommons.org/ns#"
   xmlns:rdf="http://www.w3.org/1999/02/22-rdf-syntax-ns#"
   xmlns:svg="http://www.w3.org/2000/svg"
   xmlns="http://www.w3.org/2000/svg"
   xmlns:sodipodi="http://sodipodi.sourceforge.net/DTD/sodipodi-0.dtd"
   xmlns:inkscape="http://www.inkscape.org/namespaces/inkscape"
   width="108.03252"
   height="220"
   viewBox="0 0 108.03252 220"
   version="1.1"
   id="svg7"
   sodipodi:docname="icons_maternityleave.svg"
   inkscape:version="0.92.4 (5da689c313, 2019-01-14)">
  <metadata
     id="metadata11">
    <rdf:RDF>
      <cc:Work
         rdf:about="">
        <dc:format>image/svg+xml</dc:format>
        <dc:type
           rdf:resource="http://purl.org/dc/dcmitype/StillImage" />
      </cc:Work>
    </rdf:RDF>
  </metadata>
  <sodipodi:namedview
     pagecolor="#ffffff"
     bordercolor="#666666"
     borderopacity="1"
     objecttolerance="10"
     gridtolerance="10"
     guidetolerance="10"
     inkscape:pageopacity="0"
     inkscape:pageshadow="2"
     inkscape:window-width="640"
     inkscape:window-height="480"
     id="namedview9"
     showgrid="false"
     inkscape:zoom="6.4296875"
     inkscape:cx="29.525095"
     inkscape:cy="111"
     inkscape:current-layer="svg7" />
  <defs
     id="defs4">
    <style
       id="style2">
      .cls-1 {
        fill-rule: evenodd;
      }
    </style>
  </defs>
  <path
     id="IconGraphic"
     class="cls-1"
     d="m 101.46184,138.694 a 8.817,8.817 0 0 1 -3.137997,0.247 L 102.34884,160 H 78.020843 v 49 a 11,11 0 0 1 -22,0 v -49 h -4 v 49 a 11,11 0 0 1 -22,0 V 160 H 5.7048428 l 4.116,-21.559 A 8.775,8.775 0 0 1 0.29884276,127.458 L 18.658843,58.529 a 8.782,8.782 0 0 1 7.677,-6.48 l 0.009,-0.05 h 55.356 l 0.044,0.233 a 8.839,8.839 0 0 1 7.5,6.482 L 107.73584,127.9 a 8.817,8.817 0 0 1 -6.274,10.794 z M 54.020843,79 a 36,36 0 1 0 36,36 36,36 0 0 0 -36,-36 z m 27.373,46.341 a 5.61,5.61 0 0 1 -7.925,0 l -6.857,-6.848 -0.98,6.947 2.032,2.046 7.369,7.2 -11.073,10.81 a 5.3,5.3 0 0 1 -7.369,0 5,5 0 0 1 0,-7.2 l 3.225,-3.15 -3.795,-4.031 v 1.385 a 1.5,1.5 0 0 1 -1.5,1.5 h -2 a 1.5,1.5 0 0 1 -1.5,-1.5 v -1.321 l -3.657,3.983 3.149,3.154 a 5.091,5.091 0 1 1 -7.194,7.2 l -10.81,-10.816 7.194,-7.2 3.523,-3.639 -1.186,-6.035 -7.3,7.3 a 5.5,5.5 0 1 1 -7.778,-7.778 l 10.607,-10.607 a 5.447,5.447 0 0 1 2.042,-1.274 l -0.09,-0.467 h 28.993 l -0.047,0.329 a 5.553,5.553 0 0 1 2.12,1.308 l 10.807,10.791 a 5.59,5.59 0 0 1 0,7.913 z M 54.020843,103 a 11,11 0 1 1 11,-11 11,11 0 0 1 -11,11 z m 0,-55 a 24,24 0 1 1 24,-24 24,24 0 0 1 -24,24 z"
     style="fill:#ffffff;fill-rule:evenodd"
     inkscape:connector-curvature="0" />
</svg>
