<?xml version="1.0" encoding="UTF-8" standalone="no"?>
<svg
   xmlns:dc="http://purl.org/dc/elements/1.1/"
   xmlns:cc="http://creativecommons.org/ns#"
   xmlns:rdf="http://www.w3.org/1999/02/22-rdf-syntax-ns#"
   xmlns:svg="http://www.w3.org/2000/svg"
   xmlns="http://www.w3.org/2000/svg"
   xmlns:sodipodi="http://sodipodi.sourceforge.net/DTD/sodipodi-0.dtd"
   xmlns:inkscape="http://www.inkscape.org/namespaces/inkscape"
   width="232.03241"
   height="232.032"
   viewBox="0 0 232.03241 232.032"
   version="1.1"
   id="svg7"
   sodipodi:docname="icons_genderdiscriminationact_d3a.svg"
   inkscape:version="0.92.4 (5da689c313, 2019-01-14)">
  <metadata
     id="metadata11">
    <rdf:RDF>
      <cc:Work
         rdf:about="">
        <dc:format>image/svg+xml</dc:format>
        <dc:type
           rdf:resource="http://purl.org/dc/dcmitype/StillImage" />
      </cc:Work>
    </rdf:RDF>
  </metadata>
  <sodipodi:namedview
     pagecolor="#ffffff"
     bordercolor="#666666"
     borderopacity="1"
     objecttolerance="10"
     gridtolerance="10"
     guidetolerance="10"
     inkscape:pageopacity="0"
     inkscape:pageshadow="2"
     inkscape:window-width="640"
     inkscape:window-height="480"
     id="namedview9"
     showgrid="false"
     inkscape:zoom="6.4296875"
     inkscape:cx="91.505153"
     inkscape:cy="116.0005"
     inkscape:current-layer="svg7" />
  <defs
     id="defs4">
    <style
       id="style2">
      .cls-1 {
        fill-rule: evenodd;
      }
    </style>
  </defs>
  <path
     id="IconGraphic"
     class="cls-1"
     d="m 198.0519,198.0515 a 116.016,116.016 0 1 1 0,-164.071 116.015,116.015 0 0 1 0,164.071 z M 48.124901,46.7105 a 98,98 0 0 0 -5.5,132.592 L 180.7249,41.2025 A 98,98 0 0 0 48.124901,46.7105 Z M 189.8359,49.9695 51.384901,188.4205 A 98,98 0 0 0 189.8359,49.9695 Z m -4.035,90.931 a 2.8,2.8 0 0 1 -0.985,0.071 l 1.263,6.515 h -7.627 v 15.145 a 3.45,3.45 0 0 1 -6.9,0 v -15.145 h -1.251 v 15.145 a 3.45,3.45 0 0 1 -6.9,0 v -15.145 h -7.623 l 1.292,-6.667 a 2.788,2.788 0 0 1 -1.032,-0.068 2.712,2.712 0 0 1 -1.953,-3.324 l 5.755,-21.3 a 2.739,2.739 0 0 1 2.406,-2 v -0.021 h 17.354 l 0.014,0.074 a 2.758,2.758 0 0 1 2.35,2 l 5.8,21.385 a 2.722,2.722 0 0 1 -1.963,3.335 z m -14.873,-28.035 a 7.418,7.418 0 1 1 7.53,-7.417 7.474,7.474 0 0 1 -7.528,7.417 z m 8.013,74.411 -75.705,-43.709 5.783,-5.783 73.874,42.647 z m -52.95,-0.265 H 91.984901 l 16.999999,-36.959 z m -85.921999,-89.037 47.807,27.6 -5.784,5.784 -45.973,-26.542 z m 37.142,-14.093 v 20.7 a 3.4745,3.4745 0 0 1 -6.949,0 v -20.679 h -1.261 v 20.682 a 3.475,3.475 0 0 1 -6.949,0 v -20.735 a 3.987,3.987 0 0 1 -3.474,-3.947 v -19.271 a 4,4 0 0 1 4,-4 h 14.423 a 4,4 0 0 1 4,4 v 19.271 a 3.99,3.99 0 0 1 -3.79,3.979 z m -7.423,-29.126 a 7.362,7.362 0 1 1 7.42,-7.362 7.391,7.391 0 0 1 -7.42,7.362 z"
     style="fill:#ffffff;fill-rule:evenodd"
     inkscape:connector-curvature="0" />
</svg>
