<?xml version="1.0" encoding="UTF-8" standalone="no"?>
<svg
   xmlns:dc="http://purl.org/dc/elements/1.1/"
   xmlns:cc="http://creativecommons.org/ns#"
   xmlns:rdf="http://www.w3.org/1999/02/22-rdf-syntax-ns#"
   xmlns:svg="http://www.w3.org/2000/svg"
   xmlns="http://www.w3.org/2000/svg"
   xmlns:xlink="http://www.w3.org/1999/xlink"
   id="svg12"
   version="1.1"
   height="256"
   width="256">
  <metadata
     id="metadata16">
    <rdf:RDF>
      <cc:Work
         rdf:about="">
        <dc:format>image/svg+xml</dc:format>
        <dc:type
           rdf:resource="http://purl.org/dc/dcmitype/StillImage" />
        <dc:title></dc:title>
      </cc:Work>
    </rdf:RDF>
  </metadata>
  <defs
     id="defs8">
    <linearGradient
       gradientUnits="userSpaceOnUse"
       id="a"
       y2="79.813004"
       x2="412.71301"
       y1="422.77301"
       x1="67.535004">
      <stop
         id="stop2"
         stop-color="#f6b"
         offset="0" />
      <stop
         id="stop4"
         stop-color="#0c30ad"
         offset="1" />
    </linearGradient>
    <linearGradient
       gradientTransform="matrix(1.41732,0,0,1.41732,-100.157,-116.85)"
       gradientUnits="userSpaceOnUse"
       xlink:href="#a"
       id="b"
       y2="79.813004"
       x2="412.71301"
       y1="422.77301"
       x1="67.535004" />
  </defs>
  <path
     style="fill:#ffffff;stroke-width:0.45338982"
     id="path10"
     d="M 19.576271,0.91525422 V 49.272 H 38.916068 V 34.763525 L 53.424542,49.272 38.916068,63.780474 l 14.522983,14.49442 14.493966,-14.49442 4.84583,4.774649 c -9.610051,12.12183 -15.336364,27.3453 -15.344525,43.922597 -0.01723,35.42062 26.018229,64.92225 60.102718,70.14847 l -0.0286,25.03483 H 89.695729 v 21.76271 h 27.812741 v 25.38983 h 21.76272 v -25.38983 h 27.81274 v -21.76271 h -27.81274 v -25.0779 c 33.95164,-5.25842 60.0882,-34.72286 60.0882,-70.1054 0,-16.535131 -5.70727,-31.788979 -15.27334,-43.894034 L 217.86359,34.763525 V 66.20339 h 19.3398 V 0.91525422 H 171.91525 V 20.255051 h 31.43987 L 169.1668,54.457873 c -11.54647,-8.146056 -25.61697,-12.950628 -40.77697,-12.950628 -15.15501,0 -29.225055,4.801399 -40.748411,12.950174 L 82.441491,49.271546 96.949966,34.763072 82.441491,20.254597 67.933017,34.763072 53.424542,20.254597 H 67.933017 V 0.91525422 Z M 128.38983,61.414686 c 27.96644,0 50.77966,22.812763 50.77966,50.779664 0,27.96644 -22.81322,50.77966 -50.77966,50.77966 -27.96644,0 -50.779661,-22.81322 -50.779661,-50.77966 0,-27.966901 22.813221,-50.779664 50.779661,-50.779664 z" />
</svg>
