<?xml version="1.0" encoding="UTF-8" standalone="no"?>
<svg
   xmlns:dc="http://purl.org/dc/elements/1.1/"
   xmlns:cc="http://creativecommons.org/ns#"
   xmlns:rdf="http://www.w3.org/1999/02/22-rdf-syntax-ns#"
   xmlns:svg="http://www.w3.org/2000/svg"
   xmlns="http://www.w3.org/2000/svg"
   xmlns:sodipodi="http://sodipodi.sourceforge.net/DTD/sodipodi-0.dtd"
   xmlns:inkscape="http://www.inkscape.org/namespaces/inkscape"
   width="149.03886"
   height="212"
   viewBox="0 0 149.03886 212"
   version="1.1"
   id="svg7"
   sodipodi:docname="icons_genderinequality_d3a.svg"
   inkscape:version="0.92.4 (5da689c313, 2019-01-14)">
  <metadata
     id="metadata11">
    <rdf:RDF>
      <cc:Work
         rdf:about="">
        <dc:format>image/svg+xml</dc:format>
        <dc:type
           rdf:resource="http://purl.org/dc/dcmitype/StillImage" />
      </cc:Work>
    </rdf:RDF>
  </metadata>
  <sodipodi:namedview
     pagecolor="#ffffff"
     bordercolor="#666666"
     borderopacity="1"
     objecttolerance="10"
     gridtolerance="10"
     guidetolerance="10"
     inkscape:pageopacity="0"
     inkscape:pageshadow="2"
     inkscape:window-width="640"
     inkscape:window-height="480"
     id="namedview9"
     showgrid="false"
     inkscape:zoom="6.4296875"
     inkscape:cx="49.543111"
     inkscape:cy="106"
     inkscape:current-layer="svg7" />
  <defs
     id="defs4">
    <style
       id="style2">
      .cls-1 {
        fill-rule: evenodd;
      }
    </style>
  </defs>
  <path
     id="IconGraphic"
     class="cls-1"
     d="M 133.03886,49 V 23.611 L 101.74986,54.9 A 57.977,57.977 0 0 1 64.538858,150.628 V 172 h 19.5 v 18 h -19.5 v 22 h -13 v -22 h -19.5 v -18 h 19.5 V 150.628 A 58,58 0 1 1 93.855858,47.4 L 125.25586,16 h -25.217 V 0 h 49 V 49 Z M 58.038858,43 A 50,50 0 1 0 108.03886,93 50,50 0 0 0 58.038858,43 Z m -12,76 h -8 l 5.775,-10 h -11.775 V 97 h 18.706 l 4.62,-8 h -23.326 V 77 h 30.256 l 5.2,-9 h 8 l -5.2,9 h 11.744 v 12 h -18.674 l -4.62,8 h 23.294 v 12 h -30.225 z"
     style="fill:#ffffff;fill-rule:evenodd"
     inkscape:connector-curvature="0" />
</svg>
