<?xml version="1.0" encoding="UTF-8" standalone="no"?>
<!-- Created with Inkscape (http://www.inkscape.org/) -->

<svg
   width="256"
   height="256"
   viewBox="0 0 67.733331 67.733331"
   version="1.1"
   id="svg5"
   xmlns="http://www.w3.org/2000/svg"
   xmlns:svg="http://www.w3.org/2000/svg">
  <defs
     id="defs2">
    <style
       id="style2">
      .cls-1 {
        fill-rule: evenodd;
      }
    </style>
    <style
       id="style2-9">
      .cls-1 {
        fill-rule: evenodd;
      }
    </style>
  </defs>
  <g
     id="layer1">
    <path
       id="IconGraphic"
       class="cls-1"
       d="M 57.348562,57.631217 V 67.757505 H 43.846844 V 57.631217 H 33.720556 V 44.129498 H 43.846844 V 34.003209 H 57.348562 V 44.129498 H 67.47485 v 13.501719 z"
       style="fill:#ffffff;fill-rule:evenodd;stroke-width:0.421929" />
    <path
       id="IconGraphic-7"
       class="cls-1"
       d="m 41.634729,11.253392 c -0.04789,1.579298 0.536575,2.281237 0.79375,1.322916 0.257175,-0.958321 0.736865,-2.5982076 2.116667,-2.6458326 0.240414,-0.0024 0.479657,-0.03384 0.712523,-0.09366 2.681707,2.3281816 4.790161,5.2436386 6.161352,8.5195836 -0.965465,-0.533136 -2.859088,-1.488281 -2.375959,-0.48895 0.641615,1.327414 2.047082,1.410758 2.645834,2.38125 0.364066,0.590285 0.593195,1.2827 0.827352,1.712383 0.522023,2.686844 0.244739,4.831292 -0.562769,5.69595 -2.63525,2.821781 -5.73114,1.806311 -7.9375,1.322917 -1.532202,-0.335756 -3.740679,-0.460111 -4.949031,-0.50509 0.02646,-0.808302 -0.305594,-2.483114 -2.988469,-4.25741 -3.7465,-2.477559 -4.349485,-1.226609 -5.291667,-1.852084 -0.942181,-0.625475 -3.715543,-1.178454 -4.497916,-2.116666 -0.782373,-0.938213 -2.129367,-6.313752 -2.38125,-4.233334 -0.251884,2.080419 -0.167746,4.164807 1.322916,5.291667 1.490663,1.126861 4.193117,2.371725 5.820834,2.645833 1.627716,0.274109 4.874683,0.901965 6.085416,2.38125 0.494756,0.626892 0.858767,1.346638 1.070504,2.116667 h -0.01217 c -1.691217,6.230408 -8.52805,8.578056 -13.229167,7.9375 -1.198656,-0.186197 -2.376322,-0.488722 -3.516313,-0.90329 -0.518054,-1.886215 -3.417358,-6.011069 -9.977437,-6.7691 -0.912813,-1.145117 -1.260475,-1.142207 -3.1749996,-2.116667 -1.914525,-0.97446 -1.938866,-0.308769 -2.116666,-1.852083 -0.1778,-1.543315 0.699822,-2.827338 0,-3.704167 -0.699823,-0.876829 -0.70485,-2.041525 -1.058334,-2.645833 -0.353483,-0.604309 -0.79375,0.529166 -0.79375,0.529166 0,0 0.06879,0.667809 0.264584,2.116667 0.195791,1.448858 -1.103842,4.5847 0.79375,5.55625 1.897591,0.97155 1.936749,0.115094 3.174999,1.5875 1.23825,1.472406 0.582084,1.906323 2.3812496,2.116667 1.799167,0.210343 3.426884,-0.269875 5.55625,1.322916 1.889919,1.413669 3.017573,2.06375 3.720571,3.418946 -1.256506,-0.464608 -2.500048,-0.949589 -3.720571,-1.302279 -1.759743,-0.508529 -3.330046,-0.312208 -5.291666,-0.79375 -1.178984,-0.289454 -1.7417516,-1.512888 -2.9104166,-1.852083 -3.807089,-1.104636 -7.563644,-2.29923 -5.55625,-10.847917 0.619439,-2.682361 1.677923,-5.24391 3.132667,-7.581106 0.61886,0.341048 1.461558,0.926041 1.894416,1.760273 0.732896,1.412081 1.623748,0.115358 1.322917,-1.058334 C 8.8705814,12.510162 7.6831314,11.67355 6.7605294,11.361871 11.651881,4.6755854 20.415146,0.58459842 33.432646,3.8450584 c 0.967581,0.242359 1.889389,0.520171 2.772304,0.825765 -0.490273,0.291042 -0.873125,0.767292 0.402696,1.290902 2.087033,0.855398 4.725723,1.634067 3.175,1.852083 -1.550723,0.218017 -2.352675,0.345546 -2.645834,1.322917 -0.293158,0.9773706 0.468842,0.29501 1.852084,0 1.383241,-0.29501 2.5781,-0.201877 2.645833,-1.058333 0.02275,-0.287602 0.0299,-0.590286 0.0299,-0.866246 0.751647,0.456312 1.479412,0.95085 2.180431,1.481666 -0.534458,0.278342 -2.170112,1.23825 -2.210329,2.5595796 z m 8.73125,14.816666 c 1.053835,-1.031875 1.83171,-2.905125 1.5875,-3.704166 -0.24421,-0.799042 -0.946944,-2.243138 -1.058333,-1.058334 -0.11139,1.184804 -0.479955,2.596621 -1.058334,3.175 -1.286933,1.286934 -1.940983,2.10185 -2.116666,3.439584 -0.175684,1.337733 1.591998,-0.820209 2.645833,-1.852084 z m -3.439583,-2.910416 c 0.943768,0.03096 1.890712,-0.899584 2.116666,-2.645834 0.225954,-1.74625 -0.515143,-1.954741 -1.5875,-2.910416 -1.072356,-0.955675 -0.605102,1.418431 0,2.645833 0.605102,1.227402 -1.472935,2.87946 -0.529166,2.910417 z m -15.875,-3.96875 c 1.164166,-0.284692 1.423193,-1.122892 1.322916,-2.38125 -0.100277,-1.258359 -1.38086,-2.7432 -1.322916,0.264583 0.02249,1.171575 -1.164167,2.401358 0,2.116667 z m -3.96875,11.90625 c 1.893623,1.979612 1.160198,1.636712 2.38125,2.116666 1.221052,0.479954 1.104635,-0.569648 0,-1.5875 -1.104636,-1.017852 -2.456921,-2.144977 -1.852084,-2.910416 0.604838,-0.76544 2.354792,-3.304117 2.116667,-3.96875 -0.240242,-0.6731 -1.385623,1.06336 -1.852083,1.5875 -0.466461,0.524139 -2.928409,-0.55933 -4.497917,-1.322917 -1.569508,-0.763588 -3.389842,-1.557073 -2.645833,-1.5875 0.744008,-0.03043 2.912798,-1.333765 1.852083,-1.322917 -1.060715,0.01085 -3.459427,1.047486 -3.96875,0.529167 -0.509323,-0.518319 -0.788194,-2.243667 -2.38125,-2.116667 -1.593056,0.127 -2.29579,1.142471 -3.439583,1.322917 -1.143794,0.180446 -2.35638,0.220398 -1.322917,0.79375 1.033462,0.573352 3.643048,-1.259152 4.497917,-0.79375 0.854868,0.465402 0.672835,2.256102 2.116666,2.38125 1.443832,0.125148 1.5875,0 1.5875,0 0,0 0.451644,1.450181 2.645834,2.116667 2.194189,0.666485 4.497916,1.5875 4.497916,1.5875 0,0 -1.629039,1.195387 0.264584,3.175 z m -10.847917,-14.2875 c -1.486958,-1.431925 -1.951831,-2.02565 -2.645833,-1.852084 0,0 -0.3556,2.352146 1.5875,3.439584 1.9431,1.087437 2.515393,0.838464 3.704166,0.529166 1.188773,-0.309298 -1.158875,-0.684741 -2.645833,-2.116666 z m -7.6729166,7.9375 c 0.809361,1.33985 3.0919206,1.219729 3.9687496,2.116666 0.876829,0.896938 0.935567,1.661054 2.116667,1.5875 1.1811,-0.07355 1.51421,0.502709 3.175,1.852084 1.66079,1.349375 2.97524,0.57732 4.7625,1.058333 1.78726,0.481012 2.189427,0.522817 3.175,0.264583 0.985573,-0.258233 -2.00025,-1.349375 -4.233333,-1.5875 -2.233084,-0.238125 -2.18493,-0.91096 -3.704167,-2.116666 -1.519238,-1.205707 -2.986617,-0.246327 -3.439583,-1.058334 -0.452967,-0.812006 -0.552715,-1.121833 -2.116667,-1.322916 -1.563952,-0.201084 -2.5622246,-1.2319 -3.4395826,-2.116667 -0.877359,-0.884767 -1.640417,-0.95541 -0.264584,1.322917 z M 12.265979,8.0783924 c 0.361802,0.609973 0.922283,1.077041 1.5875,1.322916 0.142346,0.597165 0.529167,2.3812496 0.529167,2.3812496 0,0 -2.377017,0.46699 -3.175,3.96875 -0.797984,3.501761 -2.8421546,5.014119 -3.4395836,3.96875 -0.597429,-1.045368 -0.82497,-2.601118 -1.058333,-1.852083 -0.233362,0.749035 -0.154516,2.286794 0.529167,2.645833 0.683683,0.35904 3.2808326,0.711994 4.4979156,-2.645833 1.217084,-3.357827 1.594909,-4.778904 2.910417,-4.7625 1.315508,0.0164 1.966648,0.411956 1.322917,-1.058333 -0.643732,-1.47029 -0.65458,-2.3346836 -0.79375,-3.1749996 -0.139171,-0.840317 -2.910417,-0.79375 -2.910417,-0.79375 z m 6.35,1.322916 c -0.976048,-2.237052 -3.977217,-6.417998 -2.910417,-2.910416 1.0668,3.507581 0.314854,1.423723 1.5875,3.9687496 1.272646,2.545027 1.416315,3.285066 2.645834,5.027083 1.229518,1.742017 -0.346869,-3.848365 -1.322917,-6.0854166 z m 6.879167,-2.38125 c -1.145382,-1.302014 -3.254375,-4.015316 -3.704167,-3.439583 -0.449792,0.575733 -0.08652,1.303073 1.322917,2.645833 1.409435,1.342761 1.774295,1.883834 1.852083,3.175 0.07779,1.2911666 0.916252,2.8201936 2.116667,3.7041666 1.200414,0.883973 -0.118534,-1.325563 -0.529167,-2.910417 -0.410633,-1.5848536 0.08705,-1.8729846 -1.058333,-3.1749996 z m 7.529512,3.6007146 c 0.19317,-0.575874 0.149578,-1.2049066 -0.121179,-1.7486306 -1.0922,-2.228586 -1.00965,-2.1463 -2.38125,-2.910417 -1.3716,-0.764117 -0.64426,-0.947473 0.264583,-1.058333 0.908844,-0.110861 0.264584,-0.529167 0.264584,-0.529167 0,0 -2.89613,-0.566208 -3.439584,0.79375 -0.543454,1.359958 3.150923,1.60311 3.704167,3.96875 0.08517,0.378841 0.08851,0.771496 0.0098,1.1517306 -0.806715,-0.100277 -1.040871,0.01984 -0.538957,0.700352 0.07567,0.102394 0.143934,0.191029 0.209021,0.271463 -0.728662,1.483783 -2.275417,2.771246 -2.854854,3.697287 -0.841375,1.345671 0.727869,0.248179 1.852083,-0.79375 0.541338,-0.502708 1.486694,-1.2319 2.202392,-2.101321 0.192617,0.06826 0.421217,0.145257 0.708025,0.249238 1.279525,0.463021 2.294202,0.529167 3.175,0.264583 0.77179,-0.23151 -1.420019,-1.460764 -3.053821,-1.955535 z m 6.493404,6.982619 c -0.360627,-1.994165 -3.956314,-4.165071 -2.910416,-2.645834 1.045898,1.519238 1.207293,1.084792 1.322916,2.645834 0.115623,1.561041 0.01984,2.774156 -0.79375,2.645833 -0.813593,-0.128323 -3.148541,-1.624013 -2.645833,-0.529167 0.502708,1.094846 1.550723,1.469496 2.645833,2.38125 1.095111,0.911754 2.411942,1.95924 2.910417,2.910417 0.498475,0.951177 -0.547688,2.076185 0.264583,2.38125 0.812271,0.305065 2.007129,-1.382977 1.322917,-2.910417 -0.684213,-1.527439 -3.360208,-1.988343 -3.439583,-3.175 -0.07937,-1.186656 1.683543,-1.710002 1.322916,-3.704166 z m 1.322917,-3.175 c -1.03505,-1.470025 -1.567921,-0.9017 -1.058333,0.79375 0.509587,1.69545 2.151062,2.354791 2.645833,2.645833 0.494771,0.291042 0.488685,0.286279 -0.264583,2.116667 -0.753269,1.830387 -0.230188,3.144043 0.264583,1.852083 0.494771,-1.29196 0.844021,-1.944158 2.116667,-3.96875 1.272645,-2.024592 3.404129,-4.341283 1.5875,-4.233333 -1.81663,0.10795 -2.23229,3.767666 -2.910417,3.175 -0.678127,-0.592667 -1.3462,-0.911225 -2.38125,-2.38125 z"
       style="fill:#ffffff;fill-rule:evenodd;stroke-width:0.264583" />
  </g>
</svg>
