<?xml version="1.0" encoding="UTF-8" standalone="no"?>
<svg
   id="Layer_1"
   enable-background="new 0 0 52 52"
   viewBox="0 0 52 52"
   version="1.1"
   sodipodi:docname="icons_bureaucraticknowledge.svg"
   inkscape:version="1.4 (86a8ad7, 2024-10-11)"
   xmlns:inkscape="http://www.inkscape.org/namespaces/inkscape"
   xmlns:sodipodi="http://sodipodi.sourceforge.net/DTD/sodipodi-0.dtd"
   xmlns="http://www.w3.org/2000/svg"
   xmlns:svg="http://www.w3.org/2000/svg">
  <defs
     id="defs2" />
  <sodipodi:namedview
     id="namedview2"
     pagecolor="#ffffff"
     bordercolor="#000000"
     borderopacity="0.25"
     inkscape:showpageshadow="2"
     inkscape:pageopacity="0.0"
     inkscape:pagecheckerboard="0"
     inkscape:deskcolor="#d1d1d1"
     inkscape:zoom="34.903846"
     inkscape:cx="26"
     inkscape:cy="26"
     inkscape:window-width="3840"
     inkscape:window-height="2054"
     inkscape:window-x="3825"
     inkscape:window-y="-15"
     inkscape:window-maximized="1"
     inkscape:current-layer="Layer_1" />
  <g
     id="g2">
    <path
       d="M 13.094638,6.3270912 H 4.0380368 C 2.9124768,6.3270912 2,7.2395678 2,8.3651285 V 44.736264 c 0,1.125561 0.9124768,2.038037 2.0380368,2.038037 h 9.0566002 c 1.125561,0 2.038038,-0.912476 2.038038,-2.038037 V 8.3651285 c 0,-1.1255607 -0.912476,-2.0380373 -2.038037,-2.0380373 z M 8.5665245,42.806881 c -1.3198605,0 -2.3898797,-1.069954 -2.3898797,-2.389877 0,-1.319863 1.0700192,-2.389881 2.3898797,-2.389881 1.3199224,0 2.3898795,1.070018 2.3898795,2.389881 0,1.319923 -1.069957,2.389877 -2.3898795,2.389877 z M 10.725781,32.516003 H 6.4068942 c -0.4219375,0 -0.7642641,-0.342327 -0.7642641,-0.764263 0,-0.421938 0.3423266,-0.764266 0.7642641,-0.764266 h 4.3188868 c 0.421937,0 0.764264,0.342328 0.764264,0.764266 0,0.421936 -0.342327,0.764263 -0.764264,0.764263 z m 0,-3.969098 H 6.4068942 c -0.4219375,0 -0.7642641,-0.342327 -0.7642641,-0.764263 0,-0.421938 0.3423266,-0.764265 0.7642641,-0.764265 h 4.3188868 c 0.421937,0 0.764264,0.342327 0.764264,0.764265 0,0.421936 -0.342327,0.764263 -0.764264,0.764263 z m 0.873417,-8.058481 c 0,0.562813 -0.456207,1.01902 -1.019018,1.01902 H 6.552495 c -0.5627489,0 -1.0190187,-0.456207 -1.0190187,-1.01902 v -9.174835 c 0,-0.562811 0.4562697,-1.019018 1.0190187,-1.019018 h 4.027685 c 0.562811,0 1.019018,0.456207 1.019018,1.019018 z"
       id="path1"
       style="fill:#ffffff" />
    <path
       d="M 49.950092,42.306328 41.985901,6.8178792 C 41.739418,5.7196231 40.649311,5.0291238 39.551056,5.2756062 L 30.714191,7.2587243 C 30.317194,7.3477889 29.976112,7.549677 29.710659,7.8197943 29.47102,6.960868 28.691269,6.3270913 27.75584,6.3270913 h -9.0566 c -1.125561,0 -2.038037,0.9124765 -2.038037,2.0380373 V 44.736264 c 0,1.125561 0.912476,2.038037 2.038037,2.038037 h 9.0566 c 1.125624,0 2.038039,-0.912476 2.038039,-2.038037 V 12.465023 l 7.342294,32.716999 c 0.246418,1.098255 1.33659,1.788819 2.434845,1.542336 l 8.836804,-1.983181 c 1.098255,-0.246422 1.788753,-1.33659 1.54227,-2.434849 z m -26.722364,0.500553 c -1.319861,0 -2.389881,-1.069954 -2.389881,-2.389877 0,-1.319863 1.070021,-2.389881 2.389881,-2.389881 1.319921,0 2.389879,1.070018 2.389879,2.389881 0,1.319923 -1.069958,2.389877 -2.389879,2.389877 z m 2.15938,-10.290878 h -4.318886 c -0.421938,0 -0.764265,-0.342327 -0.764265,-0.764263 0,-0.421938 0.342327,-0.764266 0.764265,-0.764266 h 4.318886 c 0.421938,0 0.764265,0.342328 0.764265,0.764266 0,0.421936 -0.342327,0.764263 -0.764265,0.764263 z m 0,-3.969098 h -4.318886 c -0.421938,0 -0.764265,-0.342327 -0.764265,-0.764263 0,-0.421938 0.342327,-0.764265 0.764265,-0.764265 h 4.318886 c 0.421938,0 0.764265,0.342327 0.764265,0.764265 0,0.421936 -0.342327,0.764263 -0.764265,0.764263 z m 0.873295,-8.058481 c 0,0.562813 -0.456209,1.01902 -1.01902,1.01902 h -4.027686 c -0.562748,0 -1.019018,-0.456207 -1.019018,-1.01902 v -9.174835 c 0,-0.562811 0.45627,-1.019018 1.019018,-1.019018 h 4.027686 c 0.562811,0 1.01902,0.456207 1.01902,1.019018 z m 9.013061,0.464232 -2.009052,-8.952236 C 33.14114,11.451291 33.48645,10.906268 34.03558,10.782995 l 3.929912,-0.8819378 c 0.54913,-0.12321 1.094151,0.2220388 1.217427,0.7711678 l 2.008991,8.952237 c 0.123272,0.549128 -0.221977,1.094151 -0.771107,1.217423 l -3.929912,0.881939 c -0.54913,0.123211 -1.094216,-0.222041 -1.217427,-0.771168 z m 2.448284,7.690342 c -0.349292,0 -0.664753,-0.24132 -0.744361,-0.59708 -0.09255,-0.411488 0.166187,-0.82049 0.578174,-0.913037 l 4.214398,-0.945877 c 0.404022,-0.09056 0.819992,0.166189 0.912536,0.578672 0.09255,0.411488 -0.166187,0.820488 -0.578171,0.913037 l -4.214397,0.945875 c -0.05573,0.01244 -0.112454,0.01841 -0.168179,0.01841 z m 1.03693,3.854656 c -0.05573,0.01244 -0.112449,0.01841 -0.168178,0.01841 -0.349293,0 -0.664749,-0.241318 -0.744362,-0.59708 -0.09255,-0.411488 0.166187,-0.820488 0.578175,-0.913037 l 4.214397,-0.945875 c 0.406017,-0.09056 0.819992,0.166187 0.91254,0.578671 0.09255,0.411487 -0.166187,0.820488 -0.578174,0.913036 z m 4.361306,9.567665 c -1.287892,0.289025 -2.566204,-0.520702 -2.855168,-1.808594 -0.289024,-1.28783 0.520642,-2.566143 1.808533,-2.855167 1.28783,-0.289024 2.566143,0.520702 2.855167,1.808533 0.289025,1.287891 -0.520702,2.566204 -1.808532,2.855228 z"
       id="path2"
       style="fill:#ffffff" />
  </g>
</svg>
