<?xml version="1.0" encoding="UTF-8" standalone="no"?>
<svg
   id="Layer_1"
   version="1.1"
   viewBox="0 0 512 512"
   sodipodi:docname="icons_emotion_disgust.svg"
   inkscape:version="1.4 (86a8ad7, 2024-10-11)"
   width="512"
   height="512"
   xmlns:inkscape="http://www.inkscape.org/namespaces/inkscape"
   xmlns:sodipodi="http://sodipodi.sourceforge.net/DTD/sodipodi-0.dtd"
   xmlns="http://www.w3.org/2000/svg"
   xmlns:svg="http://www.w3.org/2000/svg">
  <!-- Generator: Adobe Illustrator 29.0.1, SVG Export Plug-In . SVG Version: 2.1.0 Build 192)  -->
  <sodipodi:namedview
     id="namedview1"
     pagecolor="#ffffff"
     bordercolor="#000000"
     borderopacity="0.25"
     inkscape:showpageshadow="2"
     inkscape:pageopacity="0.0"
     inkscape:pagecheckerboard="0"
     inkscape:deskcolor="#d1d1d1"
     inkscape:zoom="3.5449219"
     inkscape:cx="256"
     inkscape:cy="256"
     inkscape:window-width="3840"
     inkscape:window-height="2054"
     inkscape:window-x="3825"
     inkscape:window-y="-15"
     inkscape:window-maximized="1"
     inkscape:current-layer="Layer_1" />
  <defs
     id="defs1">
    <style
       id="style1">
      .st0 {
        fill: #fff;
      }
    </style>
  </defs>
  <g
     id="g12">
    <path
       inkscape:label="IconGraphic"
       class="st0"
       d="M 256,512 C 187.6,512 123.3,485.4 75,437 26.6,388.7 0,324.4 0,256 0,187.6 26.6,123.3 75,75 123.3,26.6 187.6,0 256,0 c 68.4,0 132.7,26.6 181,75 3.15776,3.157758 6.22272,6.382771 9.19356,9.671817 C 488.7577,131.79507 512,192.06262 512,256 c 0,68.4 -26.6,132.7 -75,181 -48.4,48.4 -112.6,75 -181,75 z M 256,40 C 136.9,40 40,136.9 40,256 40,375.1 136.9,472 256,472 375.1,472 472,375.1 472,256 472,136.9 375.1,40 256,40 Z m 112,261 c 0,-11 -9,-20 -20,-20 -11,0 -1.4,0 -2.2,0.1 -12.7,1.4 -34.3,8.9 -48.6,27.8 -10.6,-3 -25.3,-6 -41.3,-6 -16,0 -30.7,3 -41.3,6 -14.3,-19 -35.9,-26.5 -48.6,-27.9 v 0 c -0.7,0 -1.4,-0.1 -2.2,-0.1 -11,0 -20,9 -20,20 0,11 7.8,18.8 17.8,19.9 v 0 c 0.8,0.1 18.6,2.7 24.7,19.1 6.2,16.7 -9.2,34.4 -9.3,34.5 -3.2,3.6 -5.2,8.3 -5.2,13.5 0,11 9,20 20,20 11,0 11.2,-2.6 14.8,-6.6 9.3,-10.2 21.7,-31 21.2,-54.6 7.6,-2 17.5,-3.8 28,-3.8 10.5,0 20.4,1.8 28,3.8 -0.5,23.6 11.9,44.5 21.2,54.7 3.7,4 8.9,6.5 14.8,6.5 11,0 20,-9 20,-20 0,-11 -2,-10 -5.3,-13.5 -0.2,-0.2 -15.5,-17.8 -9.3,-34.5 6.1,-16.4 24,-19 24.7,-19.1 v 0 c 10,-1.1 17.8,-9.6 17.8,-19.9 v 0 z M 168,166 c 13.8,0 25,11.2 25,25 0,13.8 -11.2,25 -25,25 -13.8,0 -25,-11.2 -25,-25 0,-13.8 11.2,-25 25,-25 z m 151,25 c 0,13.8 11.2,25 25,25 13.8,0 25,-11.2 25,-25 0,-13.8 -11.2,-25 -25,-25 -13.8,0 -25,11.2 -25,25 z"
       id="path1"
       style="fill:#ffffff;fill-opacity:1;stroke:none;display:inline;stroke-opacity:1"
       sodipodi:nodetypes="scscscsscsssssscsccscssssssccssccsccssccsssccssssssssss" />
  </g>
</svg>
