<?xml version="1.0" encoding="UTF-8" standalone="no"?>
<svg
   xmlns:dc="http://purl.org/dc/elements/1.1/"
   xmlns:cc="http://creativecommons.org/ns#"
   xmlns:rdf="http://www.w3.org/1999/02/22-rdf-syntax-ns#"
   xmlns:svg="http://www.w3.org/2000/svg"
   xmlns="http://www.w3.org/2000/svg"
   xmlns:sodipodi="http://sodipodi.sourceforge.net/DTD/sodipodi-0.dtd"
   xmlns:inkscape="http://www.inkscape.org/namespaces/inkscape"
   width="220.02708"
   height="208.00876"
   viewBox="0 0 220.02708 208.00876"
   version="1.1"
   id="svg7"
   sodipodi:docname="icons_coalwealth.svg"
   inkscape:version="1.0.2-2 (e86c870879, 2021-01-15)">
  <metadata
     id="metadata11">
    <rdf:RDF>
      <cc:Work
         rdf:about="">
        <dc:format>image/svg+xml</dc:format>
        <dc:type
           rdf:resource="http://purl.org/dc/dcmitype/StillImage" />
        <dc:title />
      </cc:Work>
    </rdf:RDF>
  </metadata>
  <sodipodi:namedview
     pagecolor="#ffffff"
     bordercolor="#666666"
     borderopacity="1"
     objecttolerance="10"
     gridtolerance="10"
     guidetolerance="10"
     inkscape:pageopacity="0"
     inkscape:pageshadow="2"
     inkscape:window-width="1072"
     inkscape:window-height="876"
     id="namedview9"
     showgrid="false"
     inkscape:zoom="2.2732379"
     inkscape:cx="117.50673"
     inkscape:cy="101.08807"
     inkscape:current-layer="g891"
     inkscape:document-rotation="0"
     inkscape:window-x="0"
     inkscape:window-y="0"
     inkscape:window-maximized="0">
    <inkscape:grid
       type="xygrid"
       id="grid831" />
  </sodipodi:namedview>
  <defs
     id="defs4">
    <style
       id="style2">
      .cls-1 {
        fill-rule: evenodd;
      }
    </style>
    <style
       id="style2-1">
      .cls-1 {
        fill-rule: evenodd;
      }
    </style>
    <style
       id="style2-09">
      .cls-1 {
        fill-rule: evenodd;
      }
    </style>
    <style
       id="style2-2">
      .cls-1 {
        fill-rule: evenodd;
      }
    </style>
    <style
       id="style2-1-2">
      .cls-1 {
        fill-rule: evenodd;
      }
    </style>
    <style
       id="style2-5">
      .cls-1 {
        fill-rule: evenodd;
      }
    </style>
    <style
       id="style2-12">
      .cls-1 {
        fill-rule: evenodd;
      }
    </style>
    <style
       id="style2-0">
      .cls-1 {
        fill-rule: evenodd;
      }
    </style>
    <style
       id="style2-25">
      .cls-1, .cls-2 {
        fill-rule: evenodd;
      }

      .cls-2 {
        fill: none;
        stroke: #000;
        stroke-width: 6.35px;
      }
    </style>
    <style
       id="style2-8">
      .cls-1, .cls-2 {
        fill-rule: evenodd;
      }

      .cls-2 {
        fill: none;
        stroke: #000;
        stroke-width: 6.35px;
      }
    </style>
    <style
       id="style2-27">
      .cls-1, .cls-2 {
        fill-rule: evenodd;
      }

      .cls-2 {
        fill: none;
        stroke: #000;
        stroke-width: 6.35px;
      }
    </style>
    <style
       id="style2-54">
      .cls-1 {
        fill-rule: evenodd;
      }
    </style>
    <style
       id="style2-29">
      .cls-1 {
        fill-rule: evenodd;
      }
    </style>
    <style
       id="style2-14">
      .cls-1 {
        fill-rule: evenodd;
      }
    </style>
  </defs>
  <g
     id="g891"
     transform="matrix(3.7792447,-0.04625473,0.04625473,3.7792447,-319.93738,-496.30631)"
     style="fill:#000000">
    <g
       id="g26"
       transform="matrix(0.11016553,-9.9798261e-5,-9.7285344e-5,0.11533906,117.57327,154.11571)"
       style="fill:#ffffff">
      <path
         style="fill:#ffffff;fill-rule:evenodd;stroke-width:1.4627"
         d="m 123.63126,124.72463 v 16.16865 H 103.37851 V 124.19296 C 91.931662,123.19547 81.118291,118.54862 72.556556,110.94777 63.772383,103.25284 59.380298,89.830438 59.380298,70.680532 v -8.404788 h 43.998212 v 10.532933 c 0,11.560836 0.45385,18.741555 1.36154,21.542188 0.9077,2.800623 3.10348,4.201417 6.58739,4.202392 2.56722,0.184566 5.05823,-0.912445 6.64174,-2.924932 1.62739,-2.591391 2.38956,-5.625653 2.17818,-8.671346 0,-9.643905 -0.68984,-16.538642 -2.06949,-20.684227 -1.37966,-4.145583 -6.0983,-8.66698 -14.15591,-13.564191 C 90.4916,44.4776 81.363248,38.429164 76.536899,34.563253 71.225397,30.07786 66.953728,24.507335 64.014239,18.232911 60.399027,10.808034 58.588125,2.6464254 58.726699,-5.5976473 c 0,-12.8358727 3.720862,-22.9070517 11.162586,-30.2135347 7.441723,-7.306484 18.60431,-11.809916 33.487755,-13.510295 V -63.04444 h 20.25422 v 13.722963 c 13.57331,1.702322 23.73616,6.152828 30.48854,13.351522 6.75237,7.198693 10.12809,17.145572 10.12711,29.8406366 0,1.7732105 -0.14689,4.4684728 -0.44064,8.0857837 h -43.98499 v -7.1273179 c 0,-7.5880994 -0.50818,-12.5528004 -1.52458,-14.8940984 -1.01637,-2.341299 -3.19406,-3.511464 -6.53303,-3.510492 -2.41672,-0.136297 -4.7223,1.020029 -6.04395,3.031259 -1.34441,2.02181 -2.01563,5.05404 -2.01368,9.096689 0,6.7383962 1.37917,11.45498229 4.13749,14.1497572 2.68392,2.6976898 10.59615,7.9454628 23.73666,15.7433188 11.17629,6.595645 18.79867,11.649199 22.86713,15.160663 4.50778,4.140942 8.02379,9.230053 10.29014,14.894098 2.79359,6.419878 4.19087,14.416804 4.19185,23.990789 0,15.319917 -3.77471,27.341048 -11.32415,36.063389 -7.54943,8.72234 -18.87406,14.11236 -33.9739,16.17011 z"
         class="cls-1"
         id="IconGraphic"
         inkscape:connector-curvature="0"
         sodipodi:nodetypes="cccccsccsscccsccccsccccssccssccccccccsc" />
    </g>
    <path
       style="fill:#ffffff;stroke-width:0.0940778"
       d="m 85.73529,183.18519 0.0072,-0.58929 0.540614,0.007 0.540613,0.007 0.006,-0.49108 0.006,-0.49107 1.802046,0.0221 1.802045,0.022 0.152662,-12.47318 0.152661,-12.47318 -1.441637,-0.0177 -1.441636,-0.0176 0.01443,-1.17858 0.01443,-1.17856 1.441636,0.0177 1.441636,0.0176 0.04447,-3.63392 0.04447,-3.63393 -0.946074,-0.0116 -0.946074,-0.0116 0.03126,-2.55356 0.03125,-2.55357 1.486687,0.0182 1.486688,0.0182 0.02464,-2.01339 0.02465,-2.01339 0.495562,0.006 0.495563,0.006 -0.02464,2.01339 -0.02465,2.01339 5.811597,0.0711 5.811601,0.0711 -0.0312,2.55357 -0.0312,2.55356 -0.94608,-0.0116 -0.94607,-0.0116 -0.0444,3.63392 -0.0444,3.63391 1.66689,0.0204 1.66689,0.0204 -0.0144,1.17475 -0.0143,1.17474 -0.75773,0.0191 -0.75773,0.0191 3.46793,6.26409 c 1.90736,3.44526 3.5355,6.42678 3.61809,6.62561 0.0826,0.19883 0.26401,0.52398 0.40316,0.72255 0.13915,0.19856 0.25251,0.40206 0.25189,0.4522 -9.7e-4,0.0801 0.59423,1.1015 1.846,3.16793 0.20563,0.33945 0.40563,0.63915 0.44446,0.666 0.0388,0.0269 0.24631,-0.12897 0.46107,-0.34627 0.21476,-0.2173 0.73361,-0.56837 1.153,-0.78014 0.64883,-0.32763 0.87273,-0.3903 1.50168,-0.42029 0.40654,-0.0194 0.93001,-0.0965 1.16329,-0.17133 0.23326,-0.0749 0.63069,-0.13354 0.88317,-0.13045 0.37156,0.005 0.62104,-0.0825 1.30872,-0.45679 l 0.84965,-0.46241 0.93117,0.13672 c 0.51214,0.0752 1.10734,0.14053 1.32267,0.14519 0.41902,0.009 0.74386,0.17376 1.31245,0.66538 0.19617,0.16963 0.53772,0.4266 0.75899,0.57107 0.22127,0.14446 0.66884,0.53342 0.99461,0.86435 0.32576,0.33093 0.78688,0.75843 1.02471,0.94999 0.56814,0.45765 2.28934,1.73987 2.7992,2.08529 0.72061,0.4882 0.94311,0.69919 1.20735,1.1449 0.36828,0.62118 0.44558,0.77627 0.71892,1.44223 0.2867,0.69854 1.00123,1.54316 1.71205,2.02379 0.24187,0.16355 0.46096,0.21342 0.96605,0.21988 l 0.65324,0.008 -0.006,0.49108 -0.006,0.49106 0.81092,0.01 0.81092,0.01 -0.007,0.54018 -0.007,0.54018 -25.9945,-0.31815 -25.994515,-0.31815 z m 28.5825,-2.96539 c 0.0255,-0.98566 0.0208,-1.79243 -0.0107,-1.79281 -0.0507,-6.2e-4 -1.95617,1.45383 -2.1669,1.65398 -0.0478,0.0454 0.13393,0.48126 0.42781,1.02634 l 0.51083,0.94748 0.59623,-0.0214 0.59622,-0.0215 z m 2.61212,1.77577 c 6.5e-4,-0.0539 -0.37576,-0.77505 -0.83649,-1.60259 l -0.83768,-1.5046 -0.0195,1.5921 -0.0195,1.59211 0.85597,0.0105 c 0.50918,0.006 0.85646,-0.0292 0.85717,-0.0875 z m -15.63077,-4.0345 c 0.0374,-3.05954 0.0239,-3.82313 -0.0667,-3.74791 -0.0626,0.052 -2.100732,1.74115 -4.529204,3.75379 -2.42847,2.01263 -4.432481,3.6743 -4.453356,3.69259 -0.02087,0.0183 1.996103,0.0581 4.482174,0.0886 l 4.520126,0.0553 z m 3.22615,3.79295 c 0.36349,-0.0605 0.50163,-0.15054 0.84236,-0.54864 0.22415,-0.26192 0.53308,-0.70318 0.6865,-0.98058 0.15342,-0.27741 0.42304,-0.62121 0.59913,-0.76401 0.1761,-0.1428 0.58797,-0.51248 0.91526,-0.8215 l 0.59507,-0.56186 0.50893,0.0565 c 0.41187,0.0457 0.54963,0.0214 0.72235,-0.12753 l 0.21341,-0.18398 -0.20107,-0.39197 c -0.11059,-0.21558 -0.29316,-0.51804 -0.4057,-0.67213 -0.11254,-0.15409 -0.20409,-0.32393 -0.20344,-0.3774 6.6e-4,-0.0535 -0.0941,-0.23911 -0.21052,-0.41252 -0.11644,-0.1734 -1.49067,-2.62949 -3.05384,-5.45796 -1.56316,-2.82847 -2.89664,-5.23053 -2.96326,-5.33792 -0.10302,-0.16603 -0.13656,1.06416 -0.22418,8.22391 l -0.10305,8.41917 0.92362,0.005 c 0.50799,0.003 1.11928,-0.0272 1.35843,-0.067 z m -8.327676,-4.81777 c 2.390939,-1.98327 4.347386,-3.62427 4.347656,-3.64666 2.8e-4,-0.0224 -2.006526,-0.0652 -4.459561,-0.0952 l -4.460062,-0.0546 -0.04706,3.84557 c -0.0447,3.65269 -0.03907,3.83833 0.112403,3.70125 0.0877,-0.0794 2.115692,-1.76701 4.506631,-3.75029 z m 16.995336,1.05276 c 0.70372,-0.54777 1.07308,-0.89471 1.03229,-0.96965 -0.59337,-1.09025 -1.83353,-3.31211 -1.90136,-3.40651 -0.0676,-0.094 -0.12079,-0.0978 -0.21446,-0.0151 -0.0996,0.0879 -0.13093,0.63059 -0.15636,2.70877 -0.0201,1.63906 6.7e-4,2.58713 0.0561,2.56716 0.0484,-0.0174 0.58106,-0.41549 1.18375,-0.88462 z m -2.15782,-3.40881 c -0.0831,-0.0928 -1.42027,1.15206 -1.36197,1.26802 0.0321,0.0639 0.34003,0.62687 0.68425,1.25109 l 0.62584,1.13492 0.0467,-1.80383 c 0.0256,-0.99211 0.028,-1.8247 0.005,-1.8502 z m -0.81157,-0.1768 0.76972,-0.67028 0.009,-0.72412 c 0.007,-0.55366 -0.0179,-0.70687 -0.10468,-0.65083 -0.0624,0.0403 -0.56387,0.42082 -1.11427,0.84556 -0.5504,0.42475 -1.01494,0.78282 -1.03232,0.79574 -0.0612,0.0455 0.55671,1.12534 0.62937,1.09993 0.0405,-0.0142 0.41997,-0.32734 0.84332,-0.696 z m -0.13423,-2.83574 0.74373,-0.57604 -0.44918,-0.80304 c -0.24705,-0.44167 -0.77969,-1.40318 -1.18364,-2.13667 l -0.73447,-1.33364 -0.0376,3.07696 -0.0376,3.07697 0.47757,-0.36425 c 0.26267,-0.20034 0.81225,-0.62346 1.22131,-0.94029 z m -8.67607,-2.9307 c 0.0343,-2.80768 0.0199,-3.52626 -0.0702,-3.46796 -0.15059,0.0975 -7.995708,6.60547 -8.167601,6.77545 -0.11283,0.11157 0.513029,0.14 4.030441,0.18305 l 4.16401,0.051 z m -4.99119,-0.83629 c 2.203146,-1.82561 4.06584,-3.37952 4.13931,-3.45314 0.11366,-0.11388 -0.53459,-0.14203 -4.345773,-0.18867 l -4.479371,-0.0548 -0.04702,3.84218 -0.04702,3.84218 0.387083,-0.33422 c 0.212896,-0.18382 2.189656,-1.8279 4.392801,-3.6535 z m 11.03094,0.6741 0.0378,-3.09007 -1.22405,0.93909 c -0.67322,0.51649 -1.21627,0.98499 -1.20678,1.04112 0.0217,0.12793 2.26971,4.1989 2.31904,4.1995 0.0199,2.5e-4 0.0532,-1.39009 0.0739,-3.08964 z m -1.10732,-3.59499 c 0.38645,-0.29657 0.70415,-0.5763 0.706,-0.62161 0.003,-0.0798 -2.06505,-3.87556 -2.21521,-4.06539 -0.041,-0.0518 -0.0912,1.26674 -0.11157,2.93015 l -0.037,3.02439 0.47755,-0.36416 c 0.26267,-0.20028 0.79377,-0.6068 1.18023,-0.90338 z m -2.97425,-7.35233 c -0.2585,-0.46458 -0.39157,-0.61099 -0.57916,-0.63723 l -0.24356,-0.0341 -0.036,2.94749 -0.036,2.9475 0.55088,1.00877 0.55087,1.00876 0.0643,-3.31903 0.0643,-3.31902 z m -2.08821,5.29367 c -0.071,-0.12243 -0.33868,-0.60089 -0.59486,-1.06325 -0.25618,-0.46235 -0.4806,-0.85932 -0.49871,-0.88213 -0.0181,-0.0229 -0.215504,0.0978 -0.438641,0.26815 -1.40635,1.07339 -3.158721,1.39377 -4.835321,0.88402 l -0.583581,-0.17744 -0.862722,0.54112 -0.862723,0.54112 4.402828,0.0555 4.40283,0.0555 z m -8.751074,-1.163 c 0.349695,-0.22464 0.651222,-0.42331 0.670058,-0.44148 0.01884,-0.0182 -0.101136,-0.15569 -0.266607,-0.3056 -0.165471,-0.14993 -0.49074,-0.49631 -0.722821,-0.76976 l -0.421964,-0.49718 -0.01534,1.25362 c -0.0084,0.68949 0.01531,1.23454 0.05276,1.21122 0.03746,-0.0233 0.35422,-0.22618 0.703915,-0.45082 z m 5.196184,-0.68255 c 0.601245,-0.18443 1.453863,-0.65327 1.705031,-0.93759 l 0.186013,-0.21056 -0.259415,-0.46751 -0.259415,-0.46751 -0.704395,0.44285 c -0.387417,0.24355 -1.164065,0.72553 -1.725885,1.07105 -0.56182,0.34553 -1.02169,0.64449 -1.021934,0.66437 -0.0013,0.11048 1.656942,0.0346 2.08,-0.0951 z m 3.79021,-0.94128 0.0116,-0.94777 -0.28921,0.42383 -0.28919,0.42384 0.25191,0.52362 c 0.13855,0.288 0.26347,0.52377 0.2776,0.52394 0.0141,1.7e-4 0.0309,-0.42619 0.0372,-0.94746 z m -4.089715,-1.41051 2.788625,-1.734 -1.326301,-0.0435 c -1.213015,-0.0398 -1.342609,-0.0272 -1.517313,0.14679 -0.491489,0.48961 -1.267384,0.52431 -1.887409,0.0844 l -0.422624,-0.29986 -1.618711,-0.0198 c -0.892018,-0.0109 -1.619194,0.0196 -1.619787,0.068 -5.92e-4,0.0484 0.07687,0.37638 0.172145,0.729 0.287487,1.06405 0.959987,2.05114 1.856662,2.72522 0.339133,0.25494 0.429724,0.28385 0.593179,0.1893 0.106103,-0.0614 1.447794,-0.89189 2.981534,-1.84558 z m 3.254085,-0.22616 c 0.12301,-0.27986 0.20844,-0.52583 0.18984,-0.5466 -0.0186,-0.0208 -0.21781,0.0767 -0.44269,0.21644 l -0.4089,0.2542 0.14733,0.29089 c 0.081,0.15999 0.1796,0.29156 0.21904,0.29238 0.0394,7.8e-4 0.17236,-0.22746 0.29538,-0.50731 z m -5.439422,-4.2821 c 0.320529,-0.36245 0.742819,-0.56898 1.147279,-0.56108 0.39581,0.008 0.98387,0.3184 1.209163,0.63879 l 0.182934,0.26015 1.596116,0.0195 1.59612,0.0195 -0.0568,-0.27082 c -0.18612,-0.88709 -1.328253,-2.27805 -2.287534,-2.7859 -2.323686,-1.23016 -5.179042,-0.23666 -6.293161,2.18967 -0.165493,0.36041 -0.301178,0.67832 -0.301523,0.70647 -3.44e-4,0.0281 0.660798,0.0593 1.469204,0.0692 l 1.469831,0.018 z m 6.396272,-3.98611 0.0354,-2.89731 -4.865513,-0.0596 -4.865523,-0.0596 -0.03198,2.61329 -0.03198,2.61329 0.292257,-0.3754 c 0.720871,-0.92596 1.913846,-1.7336 2.992508,-2.02592 0.696896,-0.18886 2.013942,-0.19496 2.69242,-0.0125 1.261256,0.33926 2.752321,1.48287 3.404491,2.61117 0.15547,0.26895 0.29611,0.48918 0.31254,0.48938 0.0164,2e-4 0.0459,-1.30343 0.0653,-2.89695 z"
       id="path29" />
  </g>
</svg>
