<?xml version="1.0" encoding="UTF-8" standalone="no"?>
<svg
   height="512"
   viewBox="0 0 64 64"
   width="512"
   version="1.1"
   id="svg7"
   sodipodi:docname="icons_socialmobility.svg"
   inkscape:version="1.4 (86a8ad7, 2024-10-11)"
   xmlns:inkscape="http://www.inkscape.org/namespaces/inkscape"
   xmlns:sodipodi="http://sodipodi.sourceforge.net/DTD/sodipodi-0.dtd"
   xmlns="http://www.w3.org/2000/svg"
   xmlns:svg="http://www.w3.org/2000/svg">
  <defs
     id="defs7" />
  <sodipodi:namedview
     id="namedview7"
     pagecolor="#ffffff"
     bordercolor="#000000"
     borderopacity="0.25"
     inkscape:showpageshadow="2"
     inkscape:pageopacity="0.0"
     inkscape:pagecheckerboard="0"
     inkscape:deskcolor="#d1d1d1"
     inkscape:zoom="3.5449219"
     inkscape:cx="256"
     inkscape:cy="256"
     inkscape:window-width="3840"
     inkscape:window-height="2054"
     inkscape:window-x="3825"
     inkscape:window-y="-15"
     inkscape:window-maximized="1"
     inkscape:current-layer="svg7" />
  <g
     id="g7">
    <path
       d="m11.12 23.84a3.92 3.92 0 1 0 -3.92-3.92 3.92 3.92 0 0 0 3.92 3.92z"
       id="path1"
       style="fill:#ffffff" />
    <path
       d="m10.62 24.09-.17 1a.75.75 0 0 0 .11.4 2.74 2.74 0 0 0 1.14 0 .75.75 0 0 0 .11-.4l-.16-1a4.55 4.55 0 0 1 -.53 0 4 4 0 0 1 -.5 0z"
       id="path2"
       style="fill:#ffffff" />
    <path
       d="m31.88 16.13a3.93 3.93 0 1 0 -3.88-3.92 3.93 3.93 0 0 0 3.88 3.92z"
       id="path3"
       style="fill:#ffffff" />
    <path
       d="m31.37 16.37-.17 1a.81.81 0 0 0 .11.41 3.12 3.12 0 0 0 1.14 0 .81.81 0 0 0 .11-.41l-.16-1a3 3 0 0 1 -.52 0 2.78 2.78 0 0 1 -.51 0z"
       id="path4"
       style="fill:#ffffff" />
    <path
       d="m53.12 7.84a3.92 3.92 0 1 0 -3.92-3.92 3.92 3.92 0 0 0 3.92 3.92z"
       id="path5"
       style="fill:#ffffff" />
    <path
       d="m52.62 8.09-.17 1a.75.75 0 0 0 .11.4 2.74 2.74 0 0 0 1.14 0 .75.75 0 0 0 .11-.4l-.16-1a4.55 4.55 0 0 1 -.53 0 4 4 0 0 1 -.5 0z"
       id="path6"
       style="fill:#ffffff" />
    <path
       d="m62 35.73h-4.54a2.41 2.41 0 0 0 .43-1.36v-13.29a1.91 1.91 0 0 1 -.28-1v-8.54h.28v8.46a1.74 1.74 0 0 0 1.56 1.77 1.66 1.66 0 0 0 1.31-.48 1.71 1.71 0 0 0 .49-1.19v-9.1a3.86 3.86 0 0 0 -3.84-3.84h-1.2a1.28 1.28 0 0 0 -.7.24 3.21 3.21 0 0 0 -.3.25 1.18 1.18 0 0 0 -.28 1c.12.82.21 1.62.26 2.39v1.15a2.09 2.09 0 0 1 -1.19 1.81l-.31-4.15s-.37 0-.52 0-.49 0-.51 0l-.41 4.15a2.06 2.06 0 0 1 -1.2-1.88s0-.78 0-1.15c0-.74.13-1.51.25-2.3a1.33 1.33 0 0 0 -.29-1c-.09-.11-.31-.28-.31-.29a1.33 1.33 0 0 0 -.7-.24h-1.16a3.84 3.84 0 0 0 -3.84 3.86v9.2a1.73 1.73 0 0 0 1.56 1.75 1.68 1.68 0 0 0 1.8-1.68v-8.73h.28v8.71a1.88 1.88 0 0 1 -.28 1v13.23a2.26 2.26 0 0 0 .39 1.25h-6.75a2 2 0 0 0 -2 2v6h-3.62a2.49 2.49 0 0 0 .26-1.08v-13.29a1.91 1.91 0 0 1 -.28-1v-8.53h.28v8.43a1.76 1.76 0 0 0 1.56 1.74 1.68 1.68 0 0 0 1.8-1.64v-9.09a3.84 3.84 0 0 0 -3.84-3.84h-1.16a1.27 1.27 0 0 0 -.7.23 3.21 3.21 0 0 0 -.3.25 1.19 1.19 0 0 0 -.28 1c.12.82.21 1.62.26 2.4v1.14a2.09 2.09 0 0 1 -1.26 1.91l-.31-4.15a3.93 3.93 0 0 1 -.52 0c-.15 0-.49 0-.51 0l-.38 4.08a2.06 2.06 0 0 1 -1.2-1.88s0-.78 0-1.14c0-.75.13-1.52.25-2.3a1.35 1.35 0 0 0 -.29-1 4 4 0 0 0 -.31-.28 1.26 1.26 0 0 0 -.75-.23h-1.11a3.84 3.84 0 0 0 -3.84 3.84v9.19a1.73 1.73 0 0 0 1.56 1.75 1.68 1.68 0 0 0 1.8-1.68v-8.7h.28v8.7a1.88 1.88 0 0 1 -.28 1v13.2a2.27 2.27 0 0 0 .23 1h-5.34a2 2 0 0 0 -2 2v6h-4.54a2.41 2.41 0 0 0 .43-1.36v-13.32a1.91 1.91 0 0 1 -.28-1v-8.54h.28v8.46a1.74 1.74 0 0 0 1.56 1.77 1.66 1.66 0 0 0 1.31-.48 1.71 1.71 0 0 0 .49-1.19v-9.1a3.86 3.86 0 0 0 -3.84-3.84h-1.2a1.28 1.28 0 0 0 -.7.24 3.21 3.21 0 0 0 -.3.25 1.18 1.18 0 0 0 -.28 1c.12.82.21 1.62.26 2.39v1.15a2.09 2.09 0 0 1 -1.19 1.81l-.31-4.15s-.37.05-.52.05-.49-.05-.51-.05l-.41 4.15a2.06 2.06 0 0 1 -1.2-1.88s0-.78 0-1.15c0-.74.13-1.51.25-2.3a1.33 1.33 0 0 0 -.29-1c-.09-.11-.31-.28-.31-.29a1.33 1.33 0 0 0 -.7-.24h-1.16a3.84 3.84 0 0 0 -3.84 3.86v9.2a1.73 1.73 0 0 0 1.56 1.75 1.68 1.68 0 0 0 1.8-1.68v-8.73h.28v8.71a1.88 1.88 0 0 1 -.28 1v13.23a2.26 2.26 0 0 0 .39 1.25h-4.75a2 2 0 0 0 -2 2v8a2 2 0 0 0 4 0v-6h18a2 2 0 0 0 2-2v-6h18a2 2 0 0 0 2-2v-6h18a2 2 0 0 0 0-4zm-51.58 16a2.48 2.48 0 0 0 .42-1.36v-12.94h.57v13a2.25 2.25 0 0 0 .38 1.25zm20.91-8a2.36 2.36 0 0 0 .26-1.08v-12.93h.57v13a2.26 2.26 0 0 0 .22 1zm21.09-8a2.48 2.48 0 0 0 .42-1.36v-12.94h.57v13a2.25 2.25 0 0 0 .38 1.25z"
       id="path7"
       style="fill:#ffffff" />
  </g>
</svg>
