<?xml version="1.0" encoding="UTF-8" standalone="no"?>
<svg
   id="Layer_1"
   enable-background="new 0 0 512 512"
   height="512"
   viewBox="0 0 512 512"
   width="512"
   version="1.1"
   sodipodi:docname="icons_ideologism.svg"
   inkscape:version="1.4 (86a8ad7, 2024-10-11)"
   xmlns:inkscape="http://www.inkscape.org/namespaces/inkscape"
   xmlns:sodipodi="http://sodipodi.sourceforge.net/DTD/sodipodi-0.dtd"
   xmlns="http://www.w3.org/2000/svg"
   xmlns:svg="http://www.w3.org/2000/svg">
  <defs
     id="defs1" />
  <sodipodi:namedview
     id="namedview1"
     pagecolor="#ffffff"
     bordercolor="#000000"
     borderopacity="0.25"
     inkscape:showpageshadow="2"
     inkscape:pageopacity="0.0"
     inkscape:pagecheckerboard="0"
     inkscape:deskcolor="#d1d1d1"
     inkscape:zoom="3.5449219"
     inkscape:cx="256"
     inkscape:cy="256"
     inkscape:window-width="3840"
     inkscape:window-height="2054"
     inkscape:window-x="7665"
     inkscape:window-y="-5"
     inkscape:window-maximized="1"
     inkscape:current-layer="Layer_1" />
  <g
     id="g1">
    <path
       clip-rule="evenodd"
       d="m2.722 203.665c8.876-12.445 17.633-25.021 26.454-37.475 10.143-14.321 19.69-29.582 32.153-42.047 9.184-9.186 19.82-18.862 33.112-20.979 1.715-.273 3.444-.436 5.178-.527l130.882-1.419c7.936-.086 14.771-3.658 19.36-10.137l36.163-51.057c2.245-3.17 5.614-5.272 9.441-5.929 3.834-.659 7.71.207 10.882 2.456 7.273 5.154 10.645 13.535 5.044 21.443l-47.823 67.519c-4.764 6.726-11.741 10.407-19.981 10.589l-34.531.763c-9.389 0-18.145 3.684-24.771 10.325-6.619 6.633-10.302 15.412-10.302 24.786v53.58c0 1.477.791 2.843 2.069 3.583l67.513 39.064v76.41h-35.79v-56.43c0-1.498-.81-2.878-2.115-3.611 0 0-69.346-38.929-69.409-38.964-2.691-1.51-6.171.543-6.171 3.611v111.756l-38.098 38.898s0-243.922 0-244.243c0-3.364-4.009-5.347-6.678-3.279-9.209 7.135-18.12 13.965-24.931 23.581l-32.346 45.72c-2.346 3.316-5.552 5.33-9.558 6.003-4.006.674-7.695-.181-10.996-2.549l-1.351-.968c-6.566-4.709-8.091-13.896-3.4-20.473zm345.441 60.544v-264.208l140.792-.001-13.827 26.569c-1.091 2.091-1.091 4.588 0 6.68l13.828 26.573h-126.323v205.241l-7.19-11.266zm-322.332 247.791h486.169l-156.61-245.383-98.262 140.538c-1.305 1.866-3.863 2.348-5.756 1.082l-83.781-56.012zm77.608-462.363c0 9.331 2.25 18.958 7.124 26.974 4.187 6.885 10.489 12.734 18.492 14.662 1.8.434 3.643.655 5.495.655 1.853 0 3.696-.221 5.497-.655 8.001-1.928 14.303-7.777 18.49-14.662 4.874-8.015 7.123-17.642 7.123-26.973 0-10.267-2.705-20.56-11.354-26.892-5.686-4.164-12.809-5.728-19.756-5.728-6.946 0-14.069 1.564-19.755 5.728-8.65 6.331-11.356 16.624-11.356 26.891z"
       fill-rule="evenodd"
       id="path1"
       style="fill:#ffffff" />
  </g>
</svg>
