<?xml version="1.0" encoding="UTF-8" standalone="no"?>
<svg
   id="Capa_1"
   enable-background="new 0 0 512 512"
   height="512"
   viewBox="0 0 512 512"
   width="512"
   version="1.1"
   sodipodi:docname="icons_anarchism.svg"
   inkscape:version="1.4 (86a8ad7, 2024-10-11)"
   xmlns:inkscape="http://www.inkscape.org/namespaces/inkscape"
   xmlns:sodipodi="http://sodipodi.sourceforge.net/DTD/sodipodi-0.dtd"
   xmlns="http://www.w3.org/2000/svg"
   xmlns:svg="http://www.w3.org/2000/svg">
  <defs
     id="defs1" />
  <sodipodi:namedview
     id="namedview1"
     pagecolor="#ffffff"
     bordercolor="#000000"
     borderopacity="0.25"
     inkscape:showpageshadow="2"
     inkscape:pageopacity="0.0"
     inkscape:pagecheckerboard="0"
     inkscape:deskcolor="#d1d1d1"
     inkscape:zoom="3.5449219"
     inkscape:cx="256"
     inkscape:cy="256"
     inkscape:window-width="3840"
     inkscape:window-height="2054"
     inkscape:window-x="3825"
     inkscape:window-y="-15"
     inkscape:window-maximized="1"
     inkscape:current-layer="Capa_1" />
  <g
     id="g1">
    <path
       d="m509.742 288.51-45.858-43.411c-1.699-1.609-4.07-2.277-6.349-1.792l-82.128 17.504c-3.487.743-6.982-1.227-8.184-4.614l-89.239-251.428c-2.251-6.343-11.131-6.364-13.411-.031l-106.978 297.134c-1.301 3.613-4.356 6.291-8.081 7.085l-143.855 30.661c-6.445 1.374-7.754 10.082-2.003 13.324l68.302 38.507c1.504.848 3.261 1.117 4.947.759l39.611-8.431c5.472-1.165 10.081 4.194 8.171 9.5l-39.26 109.04c-2.273 6.314 4.503 12.05 10.265 8.69l65.09-37.955c1.461-.852 2.576-2.2 3.145-3.804l35.347-99.589c.835-2.352 2.818-4.099 5.24-4.614l118.953-25.32c3.486-.742 6.98 1.228 8.182 4.614l37.703 106.226c.475 1.338 1.331 2.503 2.461 3.35l70.457 52.809c5.663 4.244 13.339-1.503 10.96-8.205l-58.761-165.555c-1.458-4.107 1.011-8.569 5.24-9.469l106.625-22.696c5.642-1.199 7.612-8.309 3.408-12.289zm-283.086 4.006 43.3-121.996 37.21 104.836z"
       id="path1"
       style="fill:#ffffff" />
  </g>
</svg>
