<?xml version="1.0" encoding="UTF-8" standalone="no"?>
<svg
   id="Self_Reflection"
   viewBox="0 0 64 64"
   data-name="Self Reflection"
   version="1.1"
   sodipodi:docname="icons_subjectivism.svg"
   inkscape:version="1.4 (86a8ad7, 2024-10-11)"
   xmlns:inkscape="http://www.inkscape.org/namespaces/inkscape"
   xmlns:sodipodi="http://sodipodi.sourceforge.net/DTD/sodipodi-0.dtd"
   xmlns="http://www.w3.org/2000/svg"
   xmlns:svg="http://www.w3.org/2000/svg">
  <defs
     id="defs1" />
  <sodipodi:namedview
     id="namedview1"
     pagecolor="#ffffff"
     bordercolor="#000000"
     borderopacity="0.25"
     inkscape:showpageshadow="2"
     inkscape:pageopacity="0.0"
     inkscape:pagecheckerboard="true"
     inkscape:deskcolor="#d1d1d1"
     inkscape:zoom="28.359375"
     inkscape:cx="32"
     inkscape:cy="32"
     inkscape:window-width="3840"
     inkscape:window-height="2054"
     inkscape:window-x="3825"
     inkscape:window-y="-15"
     inkscape:window-maximized="1"
     inkscape:current-layer="Self_Reflection" />
  <g
     id="g1">
    <path
       d="m31.29 52.24v7.47c0 .71-.58 1.29-1.29 1.29h-3.86v-2.57c0-.71-.58-1.29-1.29-1.29s-1.29.58-1.29 1.29v2.57h-12.85v-2.57c0-.71-.58-1.29-1.29-1.29s-1.29.58-1.29 1.29v2.57h-3.86c-.71 0-1.29-.58-1.29-1.29v-7.47c0-5.1 4.14-9.24 9.24-9.24h9.8c5.1 0 9.24 4.14 9.24 9.24zm-14.14-11.82c4.25 0 7.71-3.46 7.71-7.71s-3.46-7.71-7.71-7.71-7.71 3.46-7.71 7.71 3.46 7.71 7.71 7.71zm43.85-30.72v34.57c0 3.69-3 6.7-6.7 6.7h-21.08c-.63-5.55-5.32-9.88-11.01-9.97 2.79-1.71 4.65-4.79 4.65-8.29s-1.96-6.72-4.86-8.41v-14.6c0-3.7 3-6.7 6.7-6.7h25.6c3.7 0 6.7 3 6.7 6.7zm-25.77 8.92c0 3.46 2.81 6.27 6.27 6.27s6.27-2.81 6.27-6.27-2.81-6.27-6.27-6.27-6.27 2.81-6.27 6.27zm17.77 15.88c0-4.15-3.37-7.52-7.52-7.52h-7.96c-4.15 0-7.52 3.37-7.52 7.52v6.08c0 .57.47 1.04 1.05 1.04h3.13v-2.09c0-.57.47-1.05 1.05-1.05s1.04.48 1.04 1.05v2.09h10.46v-2.09c0-.57.47-1.05 1.04-1.05s1.05.48 1.05 1.05v2.09h3.13c.58 0 1.05-.47 1.05-1.04zm-31 6.63c.07-.04.14-.09.21-.13h-.21z"
       id="path1"
       style="fill:#ffffff" />
  </g>
</svg>
