<?xml version="1.0" encoding="UTF-8" standalone="no"?>
<svg
   id="Capa_1"
   enable-background="new 0 0 512 512"
   height="512"
   viewBox="0 0 512 512"
   width="512"
   version="1.1"
   sodipodi:docname="icons_coequality.svg"
   inkscape:version="1.4 (86a8ad7, 2024-10-11)"
   xmlns:inkscape="http://www.inkscape.org/namespaces/inkscape"
   xmlns:sodipodi="http://sodipodi.sourceforge.net/DTD/sodipodi-0.dtd"
   xmlns="http://www.w3.org/2000/svg"
   xmlns:svg="http://www.w3.org/2000/svg">
  <defs
     id="defs6" />
  <sodipodi:namedview
     id="namedview6"
     pagecolor="#ffffff"
     bordercolor="#000000"
     borderopacity="0.25"
     inkscape:showpageshadow="2"
     inkscape:pageopacity="0.0"
     inkscape:pagecheckerboard="0"
     inkscape:deskcolor="#d1d1d1"
     inkscape:zoom="3.5449219"
     inkscape:cx="256"
     inkscape:cy="256"
     inkscape:window-width="3840"
     inkscape:window-height="2054"
     inkscape:window-x="3825"
     inkscape:window-y="-15"
     inkscape:window-maximized="1"
     inkscape:current-layer="Capa_1" />
  <g
     id="g6">
    <path
       d="M 401,148.491 V 170 h -30 v 30 h 30 v 30 h 30 v -30 h 30 V 170 H 431 V 148.491 C 465.192,141.523 491,111.22 491,75 491,33.645 457.355,0 416,0 c -41.355,0 -75,33.645 -75,75 0,36.22 25.808,66.522 60,73.491 z M 416,30 c 24.813,0 45,20.187 45,45 0,24.813 -20.187,45 -45,45 -24.813,0 -45,-20.187 -45,-45 0,-24.813 20.187,-45 45,-45 z"
       id="path1"
       style="fill:#ffffff" />
    <path
       d="m 96,230 c 41.355,0 75,-33.645 75,-75 0,-15.264 -4.594,-29.47 -12.458,-41.33 L 201,71.213 V 105 h 30 V 20 h -85 v 30 h 33.787 L 137.33,92.457 C 125.47,84.594 111.264,80 96,80 c -41.355,0 -75,33.645 -75,75 0,41.355 33.645,75 75,75 z m 0,-120 c 24.813,0 45,20.187 45,45 0,24.813 -20.187,45 -45,45 -24.813,0 -45,-20.187 -45,-45 0,-24.813 20.187,-45 45,-45 z"
       id="path2"
       style="fill:#ffffff" />
    <path
       d="M 376,452 H 136 c -24.853,0 -45,20.147 -45,45 v 15 h 330 v -15 c 0,-24.853 -20.147,-45 -45,-45 z"
       id="path3"
       style="fill:#ffffff" />
    <path
       d="m 335.009,277 22.105,60 H 467 c 24.853,0 45,-20.147 45,-45 v -15 z"
       id="path4"
       style="fill:#ffffff" />
    <path
       d="M 176.991,277 H 0 v 15 c 0,24.853 20.147,45 45,45 h 109.886 z"
       id="path5"
       style="fill:#ffffff" />
    <path
       d="m 155.541,422 h 200.918 l -70,-190 h -60.918 z"
       id="path6"
       style="fill:#ffffff" />
  </g>
</svg>
