<?xml version="1.0" encoding="UTF-8" standalone="no"?>
<svg
   id="Layer_1"
   enable-background="new 0 0 512 512"
   viewBox="0 0 512 512"
   version="1.1"
   sodipodi:docname="icons_culturetracker.svg"
   inkscape:version="1.4 (86a8ad7, 2024-10-11)"
   xmlns:inkscape="http://www.inkscape.org/namespaces/inkscape"
   xmlns:sodipodi="http://sodipodi.sourceforge.net/DTD/sodipodi-0.dtd"
   xmlns="http://www.w3.org/2000/svg"
   xmlns:svg="http://www.w3.org/2000/svg">
  <defs
     id="defs39" />
  <sodipodi:namedview
     id="namedview39"
     pagecolor="#ffffff"
     bordercolor="#000000"
     borderopacity="0.25"
     inkscape:showpageshadow="2"
     inkscape:pageopacity="0.0"
     inkscape:pagecheckerboard="0"
     inkscape:deskcolor="#d1d1d1"
     inkscape:zoom="3.5449219"
     inkscape:cx="256"
     inkscape:cy="256"
     inkscape:window-width="3840"
     inkscape:window-height="2054"
     inkscape:window-x="7665"
     inkscape:window-y="-5"
     inkscape:window-maximized="1"
     inkscape:current-layer="Layer_1" />
  <g
     id="g39">
    <path
       d="m 257.756,333.951 c 9.722,0 17.632,-7.91 17.632,-17.633 -0.008,-4.871 -7.554,-18.657 -17.632,-33.062 -10.078,14.405 -17.624,28.191 -17.632,33.062 0,9.723 7.91,17.633 17.632,17.633 z"
       id="path1"
       style="fill:#ffffff" />
    <path
       d="m 333.304,258.403 c 0,-9.722 -7.91,-17.632 -17.632,-17.632 -4.871,0.008 -18.657,7.555 -33.062,17.632 14.405,10.078 28.191,17.625 33.062,17.633 9.722,0 17.632,-7.91 17.632,-17.633 z"
       id="path2"
       style="fill:#ffffff" />
    <path
       d="m 112.191,283.189 c 4.505,3.347 11.532,6.644 19.055,7.196 l 28.917,-10.815 c -3.182,-6.381 -4.982,-13.566 -4.982,-21.167 0,-9.363 2.728,-18.096 7.416,-25.466 L 130.973,221.11 c -8.237,0.432 -16.335,4.003 -22.479,10.054 -6.75,6.649 -10.44,15.355 -10.388,24.513 0,11.064 5.587,21.092 14.085,27.512 z"
       id="path3"
       style="fill:#ffffff" />
    <path
       d="m 256.245,94.755 c -10.535,0.003 -20.997,4.968 -27.978,13.279 -6.283,7.48 -9.036,16.615 -7.849,25.88 l 12.34,29.031 c 7.271,-4.507 15.835,-7.117 25,-7.117 8.197,0 15.917,2.083 22.658,5.747 l 11.549,-27.169 c 0.448,-9.587 -3.228,-19.413 -10.262,-27.245 -7.082,-7.884 -16.36,-12.406 -25.458,-12.406 z"
       id="path4"
       style="fill:#ffffff" />
    <path
       d="m 146.493,148.907 c -12.025,12.026 -13.427,30.997 -3.783,44.598 l 49.473,18.502 c 3.411,-0.779 6.954,-1.204 10.598,-1.204 2.208,0 4.941,0.207 8.424,1.048 -0.841,-3.483 -1.048,-6.216 -1.048,-8.424 0,-4.456 0.629,-8.766 1.779,-12.859 l -18.563,-43.672 c -13.614,-11.451 -34.101,-10.768 -46.88,2.011 z"
       id="path5"
       style="fill:#ffffff" />
    <path
       d="m 319.215,146.896 -16.91,39.783 c 1.966,5.213 3.051,10.856 3.051,16.748 0,2.412 -0.246,5.448 -1.297,9.408 4.125,-1.278 8.055,-2.031 11.613,-2.031 2.267,0 4.493,0.17 6.676,0.478 l 47.531,-17.776 c 9.644,-13.601 8.242,-32.572 -3.784,-44.598 -12.779,-12.78 -33.266,-13.463 -46.88,-2.012 z"
       id="path6"
       style="fill:#ffffff" />
    <path
       d="m 234.004,258.403 c -13.406,-10.062 -26.444,-17.624 -31.224,-17.632 -9.722,0 -17.632,7.91 -17.632,17.632 0,9.723 7.91,17.633 17.632,17.633 4.781,-0.008 17.818,-7.571 31.224,-17.633 z"
       id="path7"
       style="fill:#ffffff" />
    <path
       d="m 320.093,399.026 c -1.532,5.34 -3.771,10.498 -6.68,15.342 l 15.023,56.996 c 14.017,13.99 35.979,17.114 53.458,7.214 17.586,-9.96 26.178,-30.519 21.233,-49.823 l -32.107,-33.04 c -15.835,8.018 -34.348,9.133 -50.927,3.311 z"
       id="path8"
       style="fill:#ffffff" />
    <path
       d="m 54.314,183.201 50.768,14.253 c 1.667,-0.801 3.358,-1.548 5.081,-2.203 -6.997,-19.682 -4.14,-42.049 8.287,-59.436 L 90.219,106.764 c -19.123,-8.668 -42.06,-1.697 -53.051,16.479 -6.233,10.289 -7.654,23.612 -3.805,35.649 3.568,11.159 10.996,19.753 20.951,24.309 z"
       id="path9"
       style="fill:#ffffff" />
    <path
       d="M 475.978,123.243 C 464.499,104.26 440.769,97.615 421.225,107.585 l -27.236,28.023 c 12.553,17.416 15.46,39.883 8.435,59.643 1.303,0.495 2.585,1.047 3.857,1.626 l 51.004,-14.224 c 10.207,-3.836 18.291,-12.494 22.209,-23.832 4.17,-12.066 2.897,-25.299 -3.405,-35.398 -0.038,-0.06 -0.074,-0.12 -0.111,-0.18 z"
       id="path10"
       style="fill:#ffffff" />
    <path
       d="m 193.508,364.65 17.278,-40.646 c -0.408,-2.503 -0.629,-5.069 -0.629,-7.686 0,-3.557 0.753,-7.487 2.031,-11.612 -3.959,1.051 -6.995,1.297 -9.407,1.297 -6.418,0 -12.539,-1.284 -18.131,-3.597 l -41.804,15.635 c -9.644,13.601 -8.242,32.572 3.783,44.597 12.779,12.78 33.265,13.464 46.879,2.012 z"
       id="path11"
       style="fill:#ffffff" />
    <path
       d="m 257.756,185.795 c -9.722,0 -17.632,7.91 -17.632,17.632 0.008,4.78 7.57,17.818 17.632,31.224 10.062,-13.406 17.624,-26.444 17.632,-31.224 0,-9.722 -7.91,-17.632 -17.632,-17.632 z"
       id="path12"
       style="fill:#ffffff" />
    <path
       d="m 256.43,512 c 20.238,0 37.852,-13.679 43.042,-32.945 l -10.749,-40.782 c -9.778,5.493 -20.832,8.482 -32.238,8.486 -11.347,0 -22.605,-3.404 -32.597,-9.617 l -10.769,40.846 C 217.926,497.866 235.677,512 256.43,512 Z"
       id="path13"
       style="fill:#ffffff" />
    <path
       d="m 130.122,478.084 c 17.817,10.091 40.045,6.714 54.044,-7.828 l 15.44,-58.565 c -2.367,-4.195 -4.278,-8.583 -5.71,-13.092 -7.308,2.721 -15.012,4.099 -22.72,4.099 -10.244,0 -20.481,-2.408 -29.777,-7.207 l -32.731,33.676 c -4.426,19.006 4.244,39.17 21.454,48.917 z"
       id="path14"
       style="fill:#ffffff" />
    <path
       d="m 37.851,388.172 c 10.193,16.858 30.523,24.963 49.346,20.089 l 31.491,-32.4 c -12.53,-17.437 -15.401,-39.91 -8.339,-59.667 -2.677,-1.011 -5.277,-2.178 -7.773,-3.512 L 54.97,325.958 c -10.208,5.096 -18.022,14.596 -21.514,26.247 -3.696,12.336 -2.119,25.404 4.326,35.854 0.024,0.037 0.046,0.074 0.069,0.113 z"
       id="path15"
       style="fill:#ffffff" />
    <path
       d="m 467.401,211.401 c -0.197,-0.821 -33.215,8.953 -33.608,8.913 7,10.514 10.729,22.758 10.656,35.533 0,12.509 -3.631,24.198 -9.888,34.108 l 37.155,10.431 C 494.481,298.22 512,279.139 512,256 c 0,-24.592 -20.007,-44.599 -44.599,-44.599 z"
       id="path16"
       style="fill:#ffffff" />
    <path
       d="m 475.296,388.171 c 12.01,-19.862 6.837,-45.305 -11.633,-58.919 l -55.467,-15.573 c -1.851,0.914 -3.751,1.742 -5.697,2.482 7.13,19.913 4.172,42.592 -8.605,60.092 l 30.753,31.646 c 19.229,5.64 40.131,-2.334 50.649,-19.728 z"
       id="path17"
       style="fill:#ffffff" />
    <path
       d="m 0.002,256.09 c -0.072,11.993 5.588,23.972 15.139,32.043 9.069,7.664 20.157,10.876 31.286,9.096 l 30.837,-8.6 c -5.788,-9.639 -9.125,-20.873 -9.125,-32.867 -0.07,-12.412 3.49,-24.359 10.173,-34.699 l -32.38,-9.091 c -13.366,-2.28 -23.959,4.56 -29.111,8.886 -10.498,8.815 -16.943,22.224 -16.819,34.995 0,0.08 0,0.158 0,0.237 z"
       id="path18"
       style="fill:#ffffff" />
    <path
       d="m 256.43,0 c -22.254,0 -40.624,17.619 -41.789,39.64 l 8.93,33.88 c 9.884,-5.649 21.094,-8.729 32.668,-8.733 11.246,0 22.406,3.341 32.331,9.449 l 9.542,-36.192 C 296.187,16.548 278.264,0 256.43,0 Z"
       id="path19"
       style="fill:#ffffff" />
    <path
       d="m 366.23,362.639 c 12.026,-12.025 13.428,-30.996 3.784,-44.597 l -39.006,-14.588 c -4.816,1.644 -9.971,2.55 -15.337,2.55 -3.866,0 -8.173,-0.889 -12.693,-2.377 1.489,4.519 2.377,8.826 2.377,12.692 0,4.099 -0.521,8.079 -1.5,11.877 l 15.496,36.455 c 13.615,11.451 34.101,10.767 46.879,-2.012 z"
       id="path20"
       style="fill:#ffffff" />
    <path
       d="m 381.622,221.107 -26.937,10.075 c 5.403,7.721 8.586,17.104 8.586,27.221 0,8.303 -2.142,16.114 -5.895,22.917 l 24.247,9.068 c 16.669,-0.849 33.137,-15.843 32.859,-34.626 0.052,-9.243 -3.637,-17.949 -10.387,-24.598 -6.142,-6.049 -14.238,-9.633 -22.473,-10.057 z"
       id="path21"
       style="fill:#ffffff" />
    <path
       d="m 129.579,33.067 c -18.587,10.527 -26.176,33.36 -17.897,52.781 l 29.433,30.288 c 15.964,-8.292 34.731,-9.51 51.517,-3.616 1.47,-5.123 3.604,-10.074 6.342,-14.746 L 185.651,47.23 C 173.842,28.414 149.085,22.018 129.579,33.067 Z"
       id="path22"
       style="fill:#ffffff" />
    <path
       d="M 382.436,32.572 C 363.198,21.677 339.296,27.445 327.111,45.6 l -14.204,53.875 c 2.466,4.309 4.445,8.828 5.92,13.473 16.99,-6.326 36.138,-5.301 52.412,3.068 l 28.478,-29.3 c 9.301,-19.785 1.954,-43.25 -17.281,-54.144 z"
       id="path23"
       style="fill:#ffffff" />
    <path
       d="m 256.48,416.791 c 10.535,-0.003 20.997,-4.967 27.978,-13.279 6.283,-7.48 9.036,-16.616 7.849,-25.881 l -9.004,-21.182 c -7.387,4.72 -16.15,7.468 -25.548,7.468 -10.287,0 -19.815,-3.291 -27.608,-8.861 l -9.387,22.084 c -1.501,18.03 16.295,39.914 35.72,39.651 z"
       id="path24"
       style="fill:#ffffff" />
  </g>
</svg>
