<?xml version="1.0" encoding="UTF-8" standalone="no"?>
<!-- Generator: Adobe Illustrator 19.0.0, SVG Export Plug-In . SVG Version: 6.00 Build 0)  -->

<svg
   version="1.1"
   id="Layer_1"
   x="0px"
   y="0px"
   viewBox="0 0 512.001 512.001"
   style="enable-background:new 0 0 512.001 512.001;"
   xml:space="preserve"
   sodipodi:docname="icons_militarism.svg"
   inkscape:version="1.4 (86a8ad7, 2024-10-11)"
   xmlns:inkscape="http://www.inkscape.org/namespaces/inkscape"
   xmlns:sodipodi="http://sodipodi.sourceforge.net/DTD/sodipodi-0.dtd"
   xmlns="http://www.w3.org/2000/svg"
   xmlns:svg="http://www.w3.org/2000/svg"><defs
   id="defs35">
	

	


	

	

	

	

	

	

	















	

		
	
		
	
		
	
		
	
		
	
		
	
		
	
		
	
		
	
		
	</defs><sodipodi:namedview
   id="namedview35"
   pagecolor="#ffffff"
   bordercolor="#000000"
   borderopacity="0.25"
   inkscape:showpageshadow="2"
   inkscape:pageopacity="0.0"
   inkscape:pagecheckerboard="0"
   inkscape:deskcolor="#d1d1d1"
   inkscape:zoom="3.5449151"
   inkscape:cx="256.00049"
   inkscape:cy="256.00049"
   inkscape:window-width="3840"
   inkscape:window-height="2054"
   inkscape:window-x="3825"
   inkscape:window-y="-15"
   inkscape:window-maximized="1"
   inkscape:current-layer="Layer_1" />









<g
   id="g35"><path
     d="m 440.976,74.395 c -7.706,3.349 -16.356,5.127 -25.316,5.127 -9.028,0 -17.732,-1.803 -25.474,-5.197 -2.593,4.603 -7.384,7.479 -12.665,7.621 1.695,19.838 18.323,35.413 38.599,35.413 20.271,0 36.897,-15.568 38.599,-35.4 -6.515,0.002 -11.154,-3.025 -13.743,-7.564 z"
     id="path1"
     style="fill:#ffffff" /><path
     d="m 405.744,354.904 c -14.223,5.915 -30.141,-3.339 -32.163,-18.504 -0.729,-5.463 -5.807,-43.562 -6.411,-48.096 l -2.169,-1.477 c 0,0 -0.173,-2.523 -0.173,201.417 0,13.122 10.637,23.758 23.758,23.758 13.121,0 23.758,-10.636 23.758,-23.758 V 352.16 Z"
     id="path2"
     style="fill:#ffffff" /><path
     d="m 511.501,173.733 c -0.126,-24.88 -20.47,-45.12 -45.348,-45.12 -8.427,0 -74.302,0 -82.874,0 4.09,9.835 31.919,76.757 36.317,87.332 2.111,5.077 2.119,10.674 0.022,15.758 -0.115,0.279 -0.247,0.545 -0.373,0.817 12.382,11.492 15.668,29.969 7.908,45.063 5.838,13.965 9.533,22.803 15.346,36.708 4.951,11.907 -0.708,25.623 -12.615,30.575 l -10.493,4.363 v 139.014 c 0,13.122 10.637,23.758 23.758,23.758 13.121,0 23.758,-10.636 23.758,-23.758 0,-10.699 0,-271.247 0,-314.298 0,-1.378 1.115,-2.496 2.492,-2.499 1.378,-0.003 2.499,1.109 2.506,2.487 0.29,57.553 0.241,30.799 0.178,120.231 -0.008,10.933 8.85,19.805 19.783,19.811 0.006,0 0.009,0 0.015,0 10.927,0 19.79,-8.855 19.798,-19.783 0.063,-89.57 0.112,-62.761 -0.178,-120.459 z"
     id="path4"
     style="fill:#ffffff" /><path
     d="m 408.589,220.522 -66.566,-160.073 7.004,-2.912 c 4.421,-1.838 6.514,-6.912 4.675,-11.332 -1.838,-4.421 -6.912,-6.513 -11.332,-4.675 l -7.004,2.912 -4.998,-12.019 c -1.838,-4.421 -6.911,-6.513 -11.332,-4.676 -4.421,1.838 -6.515,6.912 -4.676,11.333 l 33.177,79.779 c -2.399,-2.589 -6.237,-3.553 -9.683,-2.12 -4.421,1.838 -6.513,6.912 -4.676,11.333 3.34,8.032 23.555,56.642 26.283,63.204 l 49.69,33.848 c 0.226,-1.508 0.066,-3.093 -0.562,-4.602 z"
     id="path6"
     style="fill:#ffffff" /><path
     d="M 431.494,318.867 418.787,288.47 c -10.252,9.243 -25.085,12.392 -38.587,7.362 l 5.198,38.992 c 0.998,7.486 8.834,11.958 15.771,9.074 l 24.14,-10.039 c 5.848,-2.432 8.616,-9.144 6.185,-14.992 z"
     id="path8"
     style="fill:#ffffff" /><path
     d="m 404.554,243.926 -58.055,-39.546 2.704,-4.759 -19.243,-46.274 c -15.275,26.874 -14.516,25.537 -26.906,47.335 -5.095,8.965 -2.457,20.34 6.067,26.145 l 73.144,49.823 c 9.04,6.158 21.355,3.816 27.508,-5.217 6.155,-9.036 3.819,-21.352 -5.219,-27.507 z"
     id="path10"
     style="fill:#ffffff" /><path
     d="m 463.361,66.391 c -1.63,-8.793 -5.638,-30.49 -5.638,-31.296 0,-17.954 -18.832,-32.508 -42.063,-32.508 -22.169,0 -40.318,13.257 -41.933,30.069 h -0.13 l -5.873,33.772 c -0.329,1.889 1.126,3.614 3.038,3.614 h 6.355 c 1.143,0 2.194,-0.633 2.728,-1.645 l 5.633,-10.672 c 7.644,6.088 18.338,9.877 30.182,9.877 11.748,0 22.365,-3.726 29.996,-9.727 l 5.63,10.535 c 0.536,1.004 1.582,1.63 2.72,1.63 h 6.323 c 1.926,10e-4 3.385,-1.747 3.032,-3.649 z"
     id="path12"
     style="fill:#ffffff" /><path
     d="m 151.973,95.22 c -11.95,0.002 -24.577,-3.023 -34.911,-9.328 -0.121,3.226 -0.696,6.443 -1.725,9.559 4.692,15.799 19.313,27.325 36.635,27.325 21.306,0 38.68,-17.479 38.197,-39.079 -10.695,7.768 -24.97,11.523 -38.196,11.523 z"
     id="path14"
     style="fill:#ffffff" /><path
     d="m 246.046,178.377 c -0.125,-24.539 -20.188,-44.503 -44.727,-44.503 -56.473,0 -82.963,-0.18 -97.712,-0.086 l -38.616,2.823 32.478,-39.688 c 6.83,-8.345 5.6,-20.648 -2.745,-27.478 -8.345,-6.828 -20.647,-5.601 -27.478,2.745 l -62.52,76.4 c -11.028,13.477 -0.149,33.595 17.139,31.786 17.986,-1.883 79.521,-7.452 79.521,-7.452 0,0 0,304.919 0,315.641 0,12.941 10.491,23.431 23.431,23.431 12.941,0 23.432,-10.491 23.432,-23.431 V 311.686 h 6.95 v 176.883 c 0,12.941 10.491,23.431 23.432,23.431 12.941,0 23.431,-10.491 23.431,-23.431 0,-80.662 -0.296,-226.434 -0.31,-309.983 0,-1.444 1.169,-2.616 2.613,-2.621 1.444,-0.005 2.619,1.162 2.627,2.607 0.406,80.722 0.331,51.915 0.331,126.288 0,10.784 8.742,19.526 19.526,19.526 10.784,0 19.526,-8.742 19.526,-19.526 0.002,-74.482 0.076,-45.636 -0.329,-126.483 z"
     id="path16"
     style="fill:#ffffff" /><path
     d="M 189.872,12.832 C 179.111,4.558 165.652,0 151.974,0 138.291,0 124.829,4.558 114.07,12.833 c -8.745,6.726 -16.722,17.305 -16.722,28.256 0,10.801 6.762,16.921 17.05,20.212 0,9.573 17.779,20.027 37.576,20.027 19.607,0 37.561,-10.36 37.561,-20.023 10.343,-3.306 17.064,-9.445 17.064,-20.218 0,-10.954 -7.979,-21.529 -16.727,-28.255 z m -37.898,53.239 c -3.511,0 -7.437,-5.675 -7.437,-13.269 0,-7.595 3.926,-13.27 7.437,-13.27 3.511,0 7.437,5.674 7.437,13.27 0.001,7.594 -3.927,13.269 -7.437,13.269 z m 31.235,-18.326 h -13.948 c -1.521,-9.569 -7.954,-18.464 -17.285,-18.464 -8.586,0 -15.599,7.847 -17.286,18.464 h -13.954 c -0.086,-0.022 -0.177,-0.041 -0.263,-0.063 -8.316,-2.193 -8.316,-5.055 -8.316,-6.593 -10e-4,-7.05 7.552,-14.427 13.741,-18.455 6.989,-4.547 16.103,-7.827 26.077,-7.827 9.975,0 19.09,3.28 26.08,7.828 8.466,5.508 13.738,12.824 13.738,18.453 -0.001,4.013 -4.374,5.577 -8.584,6.657 z"
     id="path18"
     style="fill:#ffffff" /></g>















</svg>
