<?xml version="1.0" encoding="UTF-8" standalone="no"?>
<!-- Generator: Adobe Illustrator 19.0.0, SVG Export Plug-In . SVG Version: 6.00 Build 0)  -->

<svg
   version="1.1"
   id="Layer_1"
   x="0px"
   y="0px"
   viewBox="0 0 493.916 493.916"
   style="enable-background:new 0 0 493.916 493.916;"
   xml:space="preserve"
   width="512"
   height="512"
   sodipodi:docname="icons_individualism.svg"
   inkscape:version="1.4 (86a8ad7, 2024-10-11)"
   xmlns:inkscape="http://www.inkscape.org/namespaces/inkscape"
   xmlns:sodipodi="http://sodipodi.sourceforge.net/DTD/sodipodi-0.dtd"
   xmlns="http://www.w3.org/2000/svg"
   xmlns:svg="http://www.w3.org/2000/svg"><defs
   id="defs4">
	
	
	
	
</defs><sodipodi:namedview
   id="namedview4"
   pagecolor="#ffffff"
   bordercolor="#000000"
   borderopacity="0.25"
   inkscape:showpageshadow="2"
   inkscape:pageopacity="0.0"
   inkscape:pagecheckerboard="0"
   inkscape:deskcolor="#d1d1d1"
   inkscape:zoom="3.5449219"
   inkscape:cx="256"
   inkscape:cy="256"
   inkscape:window-width="3840"
   inkscape:window-height="2054"
   inkscape:window-x="3825"
   inkscape:window-y="-15"
   inkscape:window-maximized="1"
   inkscape:current-layer="Layer_1" />
<g
   id="g4"><path
     d="m 398.541,179.454 c -16.824,0.326 -30.364,14.087 -30.364,30.985 v 49.201 c 0,24.19 -19.61,43.8 -43.8,43.8 h -39.302 c 16.469,-11.852 27.183,-31.178 27.183,-53.003 0,-36.392 -29.739,-65.827 -66.25,-65.309 -34.65,0.492 -63.184,28.487 -64.315,63.122 -0.742,22.718 10.13,42.943 27.147,55.19 h -39.301 c -24.19,0 -43.8,-19.61 -43.8,-43.8 v -49.2 c 0,-16.898 -13.54,-30.66 -30.364,-30.985 -17.402,-0.355 -31.622,14.294 -31.622,31.696 v 48.491 c 0,68.926 49.364,93.134 79.609,101.924 13.229,3.847 21.796,16.617 20.435,30.319 l -1.233,91.386 c -0.079,5.856 4.646,10.646 10.503,10.646 h 147.781 c 5.856,0 10.582,-4.79 10.503,-10.646 l -1.233,-91.505 c -1.361,-13.672 7.118,-26.398 20.272,-30.275 30.231,-8.922 79.772,-33.324 79.772,-101.85 V 211.15 c 0.001,-17.401 -14.219,-32.051 -31.621,-31.696 z"
     id="path1"
     style="fill:#ffffff" /><path
     d="m 204.041,82.497 c 0.794,0.964 1.198,2.189 1.133,3.437 l -1.975,38.116 c -0.188,3.639 3.454,6.251 6.84,4.905 l 35.072,-13.941 c 1.186,-0.471 2.508,-0.471 3.694,0 l 35.072,13.941 c 3.386,1.346 7.029,-1.266 6.84,-4.905 l -1.975,-38.116 c -0.065,-1.247 0.339,-2.473 1.133,-3.437 L 313.542,53.75 c 2.295,-2.788 0.969,-7.015 -2.508,-7.992 L 274.515,35.497 c -1.158,-0.325 -2.16,-1.057 -2.822,-2.062 L 251.132,2.248 c -1.976,-2.997 -6.373,-2.997 -8.349,0 l -20.561,31.188 c -0.662,1.004 -1.664,1.736 -2.822,2.062 l -36.519,10.261 c -3.477,0.977 -4.803,5.204 -2.508,7.992 z"
     id="path2"
     style="fill:#ffffff" /><path
     d="m 80.169,133.511 24.724,9.828 c 3.386,1.346 7.029,-1.266 6.84,-4.905 l -1.395,-26.907 c -0.064,-1.247 0.34,-2.473 1.133,-3.437 l 16.691,-20.273 c 2.295,-2.788 0.969,-7.015 -2.508,-7.992 L 99.841,72.573 c -1.158,-0.325 -2.16,-1.057 -2.822,-2.062 L 82.497,48.479 c -1.976,-2.997 -6.373,-2.997 -8.349,0 L 59.623,70.511 c -0.662,1.004 -1.664,1.736 -2.822,2.062 l -25.813,7.252 c -3.476,0.977 -4.803,5.204 -2.508,7.992 l 16.691,20.273 c 0.794,0.964 1.198,2.189 1.133,3.437 l -1.394,26.907 c -0.189,3.639 3.454,6.251 6.84,4.905 l 24.724,-9.828 c 1.187,-0.471 2.509,-0.471 3.695,0 z"
     id="path3"
     style="fill:#ffffff" /><path
     d="m 465.435,87.817 c 2.295,-2.788 0.969,-7.015 -2.508,-7.992 l -25.813,-7.252 c -1.158,-0.325 -2.16,-1.057 -2.822,-2.062 L 419.767,48.479 c -1.976,-2.997 -6.373,-2.997 -8.349,0 l -14.525,22.032 c -0.662,1.004 -1.664,1.736 -2.822,2.062 l -25.813,7.252 c -3.476,0.977 -4.803,5.204 -2.508,7.992 l 16.691,20.273 c 0.793,0.964 1.198,2.189 1.133,3.437 l -1.395,26.907 c -0.188,3.639 3.454,6.251 6.84,4.905 l 24.724,-9.828 c 1.186,-0.471 2.508,-0.471 3.694,0 l 24.724,9.828 c 3.386,1.346 7.029,-1.266 6.84,-4.905 l -1.394,-26.907 c -0.065,-1.247 0.339,-2.473 1.133,-3.437 z"
     id="path4"
     style="fill:#ffffff" /></g>















</svg>
