<?xml version="1.0" encoding="UTF-8" standalone="no"?>
<svg
   id="Layer_1"
   version="1.1"
   viewBox="0 0 512 512"
   sodipodi:docname="icons_emotion_anxiety.svg"
   inkscape:version="1.4 (86a8ad7, 2024-10-11)"
   xmlns:inkscape="http://www.inkscape.org/namespaces/inkscape"
   xmlns:sodipodi="http://sodipodi.sourceforge.net/DTD/sodipodi-0.dtd"
   xmlns="http://www.w3.org/2000/svg"
   xmlns:svg="http://www.w3.org/2000/svg">
  <sodipodi:namedview
     id="namedview1"
     pagecolor="#ffffff"
     bordercolor="#000000"
     borderopacity="0.25"
     inkscape:showpageshadow="2"
     inkscape:pageopacity="0.0"
     inkscape:pagecheckerboard="0"
     inkscape:deskcolor="#d1d1d1"
     inkscape:zoom="3.5449219"
     inkscape:cx="256"
     inkscape:cy="256"
     inkscape:window-width="3840"
     inkscape:window-height="2054"
     inkscape:window-x="3825"
     inkscape:window-y="-15"
     inkscape:window-maximized="1"
     inkscape:current-layer="Layer_1" />
  <!-- Generator: Adobe Illustrator 29.0.1, SVG Export Plug-In . SVG Version: 2.1.0 Build 192)  -->
  <defs
     id="defs1">
    <style
       id="style1">
      .st0 {
        fill: #fff;
      }
    </style>
  </defs>
  <g
     id="g1">
    <path
       class="st0"
       d="M256,512c-68.4,0-132.7-26.6-181-75C26.6,388.7,0,324.4,0,256S26.6,123.3,75,75C123.3,26.6,187.6,0,256,0s132.7,26.6,181,75c48.4,48.4,75,112.6,75,181s-26.6,132.7-75,181c-48.4,48.4-112.6,75-181,75h0ZM256,40c-119.1,0-216,96.9-216,216s96.9,216,216,216,216-96.9,216-216S375.1,40,256,40ZM355.9,354.3c-1.5-2.3-37.2-57.3-100.9-57.3s-99.4,54.9-100.9,57.3c-5.9,9.3-3.2,21.7,6.1,27.6,9.3,5.9,21.7,3.2,27.6-6.1.2-.4,25.1-38.7,67.1-38.7s66.9,38.4,67.1,38.7c5.9,9.3,18.3,12.1,27.6,6.1,9.3-5.9,12.1-18.3,6.1-27.6ZM168,165c13.8,0,25,11.2,25,25s-11.2,25-25,25-25-11.2-25-25,11.2-25,25-25ZM318,190c0,13.8,11.2,25,25,25s25-11.2,25-25-11.2-25-25-25-25,11.2-25,25Z"
       id="path1"
       style="fill:#ffffff" />
  </g>
</svg>
