<?xml version="1.0" encoding="UTF-8" standalone="no"?>
<svg
   id="glipy"
   viewBox="0 0 64 64"
   version="1.1"
   sodipodi:docname="icons_narcissism.svg"
   inkscape:version="1.4 (86a8ad7, 2024-10-11)"
   xmlns:inkscape="http://www.inkscape.org/namespaces/inkscape"
   xmlns:sodipodi="http://sodipodi.sourceforge.net/DTD/sodipodi-0.dtd"
   xmlns="http://www.w3.org/2000/svg"
   xmlns:svg="http://www.w3.org/2000/svg">
  <defs
     id="defs10" />
  <sodipodi:namedview
     id="namedview10"
     pagecolor="#ffffff"
     bordercolor="#000000"
     borderopacity="0.25"
     inkscape:showpageshadow="2"
     inkscape:pageopacity="0.0"
     inkscape:pagecheckerboard="0"
     inkscape:deskcolor="#d1d1d1"
     inkscape:zoom="28.359375"
     inkscape:cx="32"
     inkscape:cy="32"
     inkscape:window-width="3840"
     inkscape:window-height="2054"
     inkscape:window-x="7665"
     inkscape:window-y="-5"
     inkscape:window-maximized="1"
     inkscape:current-layer="glipy" />
  <g
     id="g10">
    <path
       d="m54.36043 42.35c-2.36832-1.7164-4.97349-4.18944-7.53924-5.87954a9.39719 9.39719 0 0 0 4.07959-2.58973 14.34981 14.34981 0 0 1 1.23988-.86992c2.37979-1.56986 6.36942-4.20958 5.81948-7.38929-.30234-1.86116-1.31726-2.13744-1.7499-3.74966-.35995-1.51988 1.10995-6.01948 1.95985-7.49933.98947-1.53129.77874-3.63285.7899-5.32966a2.85429 2.85429 0 0 0 -4.66962-2.17955c-5.81149 5.07608-8.85071 6.89428-9.709 7.05918-2.22978.64844-3.73843.21031-5.78952 1.37988a7.01273 7.01273 0 0 0 -2.62976 2.9398 6.54572 6.54572 0 0 1 1.25991 8.77913 46.95972 46.95972 0 0 1 1.14992 10.859c.115-.17052-.50343 12.00441-1.42 15.53858 1.16 3.0098 2.47994 4.00971 4.12981 4.31968 3.14834.38467 4.48068-1.81612 8.05927-1.47979 3.1066.08581 5.9504 1.81741 8.60922 2.06982 1.62855-.07212 2.04508-1.23748 2.04978-3.12983-.04-3.51964-2.02991-9.93911-5.63957-12.84877zm-8.5992-20.80813c1.79983-1.65073 4.077-3.25337 5.94948-1.77 2.38986 2.80346-3.2668 8.40159-6.21941 8.30937-3.4313-.3219-2.1073-4.28779.26993-6.53942zm-3.15975 24.37777c-2.48629.11766-5.09042-3.69718-3.23958-5.43958a2.34908 2.34908 0 0 1 2.18969-.54988c2.91587.47482 5.01877 5.63182 1.04989 5.98946zm8.0893 5.88942c-3.03977 2.74353-8.30211-3.07864-5.67936-5.66953 2.61358-2.65953 8.40671 2.69247 5.67936 5.66953z"
       id="path1"
       style="fill:#ffffff" />
    <path
       d="m27.75284 18.31207c.05-.05.11-.09.17-.13994a7.04749 7.04749 0 0 0 -2.70972-3.12972c-2.05218-1.17293-3.55925-.72259-5.78952-1.37994-.86131-.18383-3.88142-1.97261-9.709-7.04942a2.85158 2.85158 0 0 0 -4.66962 2.17c.0216 1.71481-.20341 3.79983.79 5.32948.84978 1.47985 2.31968 5.97944 1.95966 7.49932-.43276 1.61277-1.44732 1.90126-1.74978 3.74967-.56367 3.76626 4.5179 6.36722 7.0593 8.2592a9.24613 9.24613 0 0 0 4.07965 2.5898c-2.56532 1.69265-5.16134 4.16582-7.53936 5.87935-3.60963 2.9098-5.59945 9.33928-5.63945 12.85892-.13057 3.76521 2.3274 3.46021 5.09955 2.35959a21.20812 21.20812 0 0 1 5.55944-1.3097c3.57823-.34078 4.914 1.87606 8.05927 1.4801 1.62986-.31016 2.94975-1.29011 4.09967-4.2398-1.64817-10.5339-1.96186-18.39318-.25034-26.22768a6.60043 6.60043 0 0 1 1.18025-8.69923zm-13.68877 7.15939c-1.60136-1.442-3.26186-4.67164-1.76974-5.95948 2.81164-2.32389 8.41093 3.2248 8.309 6.21929-.38698 3.6893-4.65943 1.7748-6.53926-.25981zm4.16961 25.32774c-3.5573 3.60216-7.96419-.17363-4.15954-4.15978 3.60978-3.61686 7.94606.14836 4.15954 4.15978zm6.95939-8.3792a4.31331 4.31331 0 0 1 -3.79971 3.23964c-2.5243-.05407-2.85594-3.0391-.95981-4.82952 1.98792-2.1414 5.34445-1.29962 4.75952 1.58988z"
       id="path2"
       style="fill:#ffffff" />
    <path
       d="m28.24279 28.70109a48.19952 48.19952 0 0 0 -.80993 9.17923c-.05145.90544.60914 21.69916 4.56978 21.20793 2.08905.00311 3.23518-5.12472 3.8395-10.3289.63989-5.33949.72991-10.769.72991-10.879-.07152-3.256-.16642-6.943-.89994-9.11918a6.5658 6.5658 0 0 1 -7.42932-.06008z"
       id="path3"
       style="fill:#ffffff" />
    <path
       d="m27.9828 10.40281a62.34211 62.34211 0 0 1 1.0599 9.43919 4.56639 4.56639 0 1 0 5.82949-.07 60.57565 60.57565 0 0 1 1.03989-9.36915c3.02976-.53993 4.53963-2.13982 4.45962-3.52965-.06-.95994-.85991-1.96986-2.93974-1.96986-3.80349.24077-4.00989 8.90576-4.37979 11.93881-.0498.69006-.09979 1.36-.12981 1.99994a4.62981 4.62981 0 0 0 -.9199-.09 4.31312 4.31312 0 0 0 -1.01993.12c-.03-.65-.08-1.31989-.13-2.00983-.3646-3.01773-.61378-11.76866-4.38944-11.95907-2.06994.00012-2.86986 1.01-2.92985 1.96-.08 1.39981 1.41986 2.99969 4.44956 3.53962zm9.4492-3.49969a2.01225 2.01225 0 0 1 .91.15 3.29865 3.29865 0 0 1 -1.78 1.12988c.41-1.0299.77-1.27988.87-1.27988zm-10.09911 1.27988a3.14785 3.14785 0 0 1 -1.76989-1.13987c.7861-.21355 1.13042-.4479 1.76989 1.13987z"
       id="path4"
       style="fill:#ffffff" />
    <path
       d="m18.62366 25.8114c.09-.23-.25-1.56981-1.78982-3.10971a5.35112 5.35112 0 0 0 -3.00974-1.77981c-.45968.02033.165 1.62071 1.64975 3.12967 1.53996 1.5399 2.88982 1.87989 3.14981 1.75985z"
       id="path5"
       style="fill:#ffffff" />
    <path
       d="m48.531 24.31153c1.53984-1.53984 1.87977-2.87968 1.74984-3.14968-.23-.08-1.56986.25-3.10976 1.79983-1.53984 1.53984-1.87984 2.86973-1.74985 3.14974.23002.07995 1.56987-.25999 3.10977-1.79989z"
       id="path6"
       style="fill:#ffffff" />
    <path
       d="m15.48392 48.04945c-1.77749 1.93446-.6109 3.12173 1.33991 1.32977 1.78042-1.93073.59663-3.10573-1.33991-1.32977z"
       id="path7"
       style="fill:#ffffff" />
    <path
       d="m46.81112 47.43946c-1.5399.172.65418 3.00022 1.77993 3.02963 1.26118.28568.92326-1.10268-.07-2.15972a2.66988 2.66988 0 0 0 -1.70993-.86991z"
       id="path8"
       style="fill:#ffffff" />
    <path
       d="m41.13164 41.89c-.70666-.2266-.38229.74145.25 1.38989.36337.37387.97672.745 1.37988.60993.1-.1.03-.75994-.6-1.38989a2.15275 2.15275 0 0 0 -1.02988-.60993z"
       id="path9"
       style="fill:#ffffff" />
    <path
       d="m23.08328 41.61a1.97675 1.97675 0 0 0 -1.23988.63c-.62995.63-.69995 1.29987-.6 1.38983.09.1.74994.03 1.37989-.59992a2.26193 2.26193 0 0 0 .61993-1.02994c.02333-.32348.07563-.38287-.15994-.38997z"
       id="path10"
       style="fill:#ffffff" />
  </g>
</svg>
