<?xml version="1.0" encoding="UTF-8" standalone="no"?>
<svg
   id="Capa_1"
   enable-background="new 0 0 50.54 50.54"
   viewBox="0 0 50.54 50.54"
   version="1.1"
   sodipodi:docname="icons_universalism.svg"
   inkscape:version="1.4 (86a8ad7, 2024-10-11)"
   xmlns:inkscape="http://www.inkscape.org/namespaces/inkscape"
   xmlns:sodipodi="http://sodipodi.sourceforge.net/DTD/sodipodi-0.dtd"
   xmlns="http://www.w3.org/2000/svg"
   xmlns:svg="http://www.w3.org/2000/svg">
  <defs
     id="defs25" />
  <sodipodi:namedview
     id="namedview25"
     pagecolor="#ffffff"
     bordercolor="#000000"
     borderopacity="0.25"
     inkscape:showpageshadow="2"
     inkscape:pageopacity="0.0"
     inkscape:pagecheckerboard="0"
     inkscape:deskcolor="#d1d1d1"
     inkscape:zoom="35.912148"
     inkscape:cx="25.27"
     inkscape:cy="25.27"
     inkscape:window-width="3840"
     inkscape:window-height="2054"
     inkscape:window-x="3825"
     inkscape:window-y="-15"
     inkscape:window-maximized="1"
     inkscape:current-layer="Capa_1" />
  <g
     id="g25">
    <path
       d="m 16.195,3.755 c -0.18,-0.17 -0.24,-0.43 -0.16,-0.66 0.07,-0.24 0.27,-0.4 0.52,-0.44 l 1.13,-0.16 0.51,-1.03 c 0.11,-0.22 0.33,-0.36 0.57,-0.36 h 0.01 c 0.24,0 0.46,0.14 0.57,0.36 l 0.51,1.03 1.13,0.16 c 0.25,0.04 0.44,0.2 0.52,0.44 0.08,0.23 0.02,0.48 -0.16,0.66 l -0.82,0.8 0.19,1.13 c 0.04,0.24 -0.05,0.48 -0.25,0.62 -0.12,0.09 -0.25,0.13 -0.38,0.13 -0.1,0 -0.2,-0.03 -0.3,-0.08 l -1.02,-0.53 -1.01,0.53 c -0.22,0.12 -0.48,0.1 -0.68,-0.04 -0.19,-0.15 -0.29,-0.39 -0.25,-0.63 l 0.19,-1.13 c 0,0 -0.82,-0.8 -0.82,-0.8 z"
       id="path1"
       style="fill:#ffffff" />
    <path
       d="m 5.505,14.095 c 0.08,0.23 0.02,0.48 -0.16,0.66 l -0.82,0.8 0.19,1.13 c 0.04,0.24 -0.05,0.48 -0.25,0.62 -0.12,0.09 -0.25,0.13 -0.38,0.13 -0.1,0 -0.2,-0.03 -0.3,-0.08 l -1.02,-0.53 -1.01,0.53 c -0.22,0.12 -0.48,0.1 -0.68,-0.04 -0.19,-0.15 -0.29,-0.39 -0.25,-0.63 l 0.19,-1.13 -0.82,-0.8 c -0.18,-0.17 -0.24,-0.43 -0.16,-0.66 0.07,-0.24 0.27,-0.4 0.52,-0.44 l 1.13,-0.16 0.51,-1.03 c 0.11,-0.22 0.33,-0.36 0.57,-0.36 0.28,-0.02 0.47,0.14 0.58,0.36 l 0.51,1.03 1.13,0.16 c 0.25,0.04 0.44,0.2 0.52,0.44 z"
       id="path2"
       style="fill:#ffffff" />
    <path
       d="m 50.345,39.755 -0.82,0.8 0.19,1.13 c 0.04,0.24 -0.05,0.48 -0.25,0.62 -0.12,0.09 -0.25,0.13 -0.38,0.13 -0.1,0 -0.2,-0.03 -0.3,-0.08 l -1.02,-0.53 -1.01,0.53 c -0.22,0.12 -0.48,0.1 -0.68,-0.04 -0.19,-0.15 -0.29,-0.39 -0.25,-0.63 l 0.19,-1.13 -0.82,-0.8 c -0.18,-0.17 -0.24,-0.43 -0.16,-0.66 0.07,-0.24 0.27,-0.4 0.52,-0.44 l 1.13,-0.16 0.51,-1.03 c 0.11,-0.22 0.33,-0.36 0.57,-0.36 h 0.01 c 0.24,0 0.46,0.14 0.57,0.36 l 0.51,1.03 1.13,0.16 c 0.25,0.04 0.44,0.2 0.52,0.44 0.08,0.23 0.02,0.48 -0.16,0.66 z"
       id="path3"
       style="fill:#ffffff" />
    <path
       d="m 42.775,29.285 c -0.58,-0.22 -1.22,-0.2 -1.79,0.06 -0.41,0.18 -0.75,0.48 -0.99,0.86 l -10.71,-4.02 c 0.07,-0.44 0.01,-0.89 -0.18,-1.3 -0.26,-0.57 -0.72,-1.01 -1.31,-1.23 -0.4,-0.15 -0.81,-0.17 -1.22,-0.1 l -2.58,-8.9 c 0.52,-0.26 0.92,-0.7 1.12,-1.25 0.22,-0.58 0.2,-1.22 -0.06,-1.79 -0.26,-0.57 -0.72,-1 -1.31,-1.22 -1.09,-0.41 -2.29,0.05 -2.85,1.03 l -8.27,-0.24 c -0.1,-0.85 -0.65,-1.63 -1.5,-1.95 -1.21,-0.45 -2.56,0.16 -3.02,1.37 -0.22,0.59 -0.2,1.22 0.06,1.79 0.26,0.57 0.73,1.01 1.31,1.23 0.27,0.1 0.55,0.15 0.83,0.15 0.33,0 0.66,-0.07 0.96,-0.21 0.57,-0.26 1.01,-0.72 1.23,-1.31 0,-0.02 0,-0.05 0.02,-0.07 l 8.08,0.23 c -0.07,1.01 0.51,1.99 1.51,2.36 0.26,0.1 0.54,0.15 0.82,0.15 0.04,0 0.07,-0.01 0.11,-0.01 l 2.61,9.01 c -0.39,0.27 -0.69,0.65 -0.86,1.1 -0.4,1.05 0.02,2.21 0.92,2.79 l -3.32,8.83 c -1.06,-0.16 -2.13,0.44 -2.52,1.49 -0.46,1.21 0.16,2.56 1.37,3.02 0.27,0.1 0.54,0.15 0.82,0.15 0.78,0 1.51,-0.42 1.94,-1.08 l 10.72,4.02 c -0.15,1.07 0.45,2.13 1.5,2.53 0.27,0.1 0.54,0.15 0.82,0.15 0.95,0 1.84,-0.58 2.19,-1.52 0.4,-1.05 -0.02,-2.2 -0.92,-2.79 l 3.32,-8.83 c 0.11,0.02 0.22,0.03 0.33,0.03 0.95,0 1.84,-0.58 2.19,-1.52 0.46,-1.21 -0.16,-2.56 -1.37,-3.01 z m -5.41,12.98 c -0.9,-0.13 -1.8,0.28 -2.29,1.04 l -10.7,-4.01 c 0.13,-0.9 -0.28,-1.81 -1.05,-2.3 l 3.32,-8.83 c 0.11,0.01 0.22,0.03 0.33,0.03 0.78,0 1.51,-0.41 1.94,-1.08 l 10.72,4.02 c -0.06,0.44 0,0.89 0.19,1.31 0.18,0.41 0.48,0.75 0.86,0.99 0,0 -3.32,8.83 -3.32,8.83 z"
       id="path4"
       style="fill:#ffffff" />
    <path
       d="m 46.345,21.755 -0.82,0.8 0.19,1.13 c 0.04,0.24 -0.05,0.48 -0.25,0.62 -0.12,0.09 -0.25,0.13 -0.38,0.13 -0.1,0 -0.2,-0.03 -0.3,-0.08 l -1.02,-0.53 -1.01,0.53 c -0.22,0.12 -0.48,0.1 -0.68,-0.04 -0.19,-0.15 -0.29,-0.39 -0.25,-0.63 l 0.19,-1.13 -0.82,-0.8 c -0.18,-0.17 -0.24,-0.43 -0.16,-0.66 0.07,-0.24 0.27,-0.4 0.52,-0.44 l 1.13,-0.16 0.51,-1.03 c 0.11,-0.22 0.33,-0.36 0.57,-0.36 h 0.01 c 0.24,0 0.46,0.14 0.57,0.36 l 0.51,1.03 1.13,0.16 c 0.25,0.04 0.44,0.2 0.52,0.44 0.08,0.23 0.02,0.48 -0.16,0.66 z"
       id="path5"
       style="fill:#ffffff" />
    <path
       d="m 31.195,10.755 c -0.18,-0.17 -0.24,-0.43 -0.16,-0.66 0.07,-0.24 0.27,-0.4 0.52,-0.44 l 1.13,-0.16 0.51,-1.03 c 0.11,-0.22 0.33,-0.36 0.57,-0.36 h 0.01 c 0.24,0 0.46,0.14 0.57,0.36 l 0.51,1.03 1.13,0.16 c 0.25,0.04 0.44,0.2 0.52,0.44 0.08,0.23 0.02,0.48 -0.16,0.66 l -0.82,0.8 0.19,1.13 c 0.04,0.24 -0.05,0.48 -0.25,0.62 -0.12,0.09 -0.25,0.13 -0.38,0.13 -0.1,0 -0.2,-0.03 -0.3,-0.08 l -1.02,-0.53 -1.01,0.53 c -0.22,0.12 -0.48,0.1 -0.68,-0.04 -0.19,-0.15 -0.29,-0.39 -0.25,-0.63 l 0.19,-1.13 c 0,0 -0.82,-0.8 -0.82,-0.8 z"
       id="path6"
       style="fill:#ffffff" />
    <path
       d="m 26.505,46.095 c 0.08,0.23 0.02,0.48 -0.16,0.66 l -0.82,0.8 0.19,1.13 c 0.04,0.24 -0.05,0.48 -0.25,0.62 -0.12,0.09 -0.25,0.13 -0.38,0.13 -0.1,0 -0.2,-0.03 -0.3,-0.08 l -1.02,-0.53 -1.01,0.53 c -0.22,0.12 -0.48,0.1 -0.68,-0.04 -0.19,-0.15 -0.29,-0.39 -0.25,-0.63 l 0.19,-1.13 -0.82,-0.8 c -0.18,-0.17 -0.24,-0.43 -0.16,-0.66 0.07,-0.24 0.27,-0.4 0.52,-0.44 l 1.13,-0.16 0.51,-1.03 c 0.11,-0.22 0.31,-0.37 0.58,-0.36 0.24,0 0.46,0.14 0.57,0.36 l 0.51,1.03 1.13,0.16 c 0.25,0.04 0.44,0.2 0.52,0.44 z"
       id="path7"
       style="fill:#ffffff" />
    <path
       d="m 18.505,25.095 c 0.08,0.23 0.02,0.48 -0.16,0.66 l -0.82,0.8 0.19,1.13 c 0.04,0.24 -0.05,0.48 -0.25,0.62 -0.12,0.09 -0.25,0.13 -0.38,0.13 -0.1,0 -0.2,-0.03 -0.3,-0.08 l -1.02,-0.53 -1.01,0.53 c -0.22,0.12 -0.48,0.1 -0.68,-0.04 -0.19,-0.15 -0.29,-0.39 -0.25,-0.63 l 0.19,-1.13 -0.82,-0.8 c -0.18,-0.17 -0.24,-0.43 -0.16,-0.66 0.07,-0.24 0.27,-0.4 0.52,-0.44 l 1.13,-0.16 0.51,-1.03 c 0.11,-0.22 0.33,-0.36 0.57,-0.36 h 0.01 c 0.24,0 0.46,0.14 0.57,0.36 l 0.51,1.03 1.13,0.16 c 0.25,0.04 0.44,0.2 0.52,0.44 z"
       id="path8"
       style="fill:#ffffff" />
    <path
       d="m 9.505,36.095 c 0.08,0.23 0.02,0.48 -0.16,0.66 l -0.82,0.8 0.19,1.13 c 0.04,0.24 -0.05,0.48 -0.25,0.62 -0.12,0.09 -0.25,0.13 -0.38,0.13 -0.1,0 -0.2,-0.03 -0.3,-0.08 l -1.02,-0.53 -1.01,0.53 c -0.22,0.12 -0.48,0.1 -0.68,-0.04 -0.19,-0.15 -0.29,-0.39 -0.25,-0.63 l 0.19,-1.13 -0.82,-0.8 c -0.18,-0.17 -0.24,-0.43 -0.16,-0.66 0.07,-0.24 0.27,-0.4 0.52,-0.44 l 1.13,-0.16 0.51,-1.03 c 0.11,-0.22 0.33,-0.36 0.57,-0.36 h 0.01 c 0.24,0 0.46,0.14 0.57,0.36 l 0.51,1.03 1.13,0.16 c 0.25,0.04 0.44,0.2 0.52,0.44 z"
       id="path9"
       style="fill:#ffffff" />
  </g>
</svg>
