<?xml version="1.0" encoding="UTF-8" standalone="no"?>
<!-- Generator: Adobe Illustrator 19.0.0, SVG Export Plug-In . SVG Version: 6.00 Build 0)  -->

<svg
   version="1.1"
   id="Capa_1"
   x="0px"
   y="0px"
   viewBox="0 0 512 512"
   style="enable-background:new 0 0 512 512;"
   xml:space="preserve"
   sodipodi:docname="icons_objectivism.svg"
   inkscape:version="1.4 (86a8ad7, 2024-10-11)"
   xmlns:inkscape="http://www.inkscape.org/namespaces/inkscape"
   xmlns:sodipodi="http://sodipodi.sourceforge.net/DTD/sodipodi-0.dtd"
   xmlns="http://www.w3.org/2000/svg"
   xmlns:svg="http://www.w3.org/2000/svg"><defs
   id="defs19">
	

	
















		
	
		
	</defs><sodipodi:namedview
   id="namedview19"
   pagecolor="#ffffff"
   bordercolor="#000000"
   borderopacity="0.25"
   inkscape:showpageshadow="2"
   inkscape:pageopacity="0.0"
   inkscape:pagecheckerboard="true"
   inkscape:deskcolor="#d1d1d1"
   inkscape:zoom="3.5449219"
   inkscape:cx="256"
   inkscape:cy="256"
   inkscape:window-width="3840"
   inkscape:window-height="2054"
   inkscape:window-x="3825"
   inkscape:window-y="-15"
   inkscape:window-maximized="1"
   inkscape:current-layer="Capa_1" />

<g
   id="g19"><path
     d="M 141,90 V 348.792 C 167.53,314.285 209.208,292 256,292 c 46.792,0 88.47,22.285 115,56.792 V 90 Z m 115,181.774 c -38.599,0 -70,-31.402 -70,-70 0,-38.598 31.401,-70 70,-70 38.599,0 70,31.402 70,70 0,38.598 -31.401,70 -70,70 z"
     id="path1"
     style="fill:#ffffff" /><path
     d="M 446,0 H 66 C 57.716,0 51,6.716 51,15 v 482 c 0,8.284 6.716,15 15,15 h 380 c 8.284,0 15,-6.716 15,-15 V 15 C 461,6.716 454.284,0 446,0 Z m -45,437 c 0,8.284 -6.716,15 -15,15 H 126 c -8.284,0 -15,-6.716 -15,-15 V 75 c 0,-8.284 6.716,-15 15,-15 h 260 c 8.284,0 15,6.716 15,15 z"
     id="path2"
     style="fill:#ffffff" /></g>















</svg>
