<?xml version="1.0" encoding="UTF-8" standalone="no"?>
<svg
   xmlns:dc="http://purl.org/dc/elements/1.1/"
   xmlns:cc="http://creativecommons.org/ns#"
   xmlns:rdf="http://www.w3.org/1999/02/22-rdf-syntax-ns#"
   xmlns:svg="http://www.w3.org/2000/svg"
   xmlns="http://www.w3.org/2000/svg"
   id="svg8"
   version="1.1"
   viewBox="0 0 256 256"
   height="256mm"
   width="256mm">
  <defs
     id="defs2">
    <style
       id="style2">
      .cls-1 {
        fill-rule: evenodd;
      }
    </style>
    <style
       id="style2-1">
      .cls-1 {
        fill-rule: evenodd;
      }
    </style>
  </defs>
  <metadata
     id="metadata5">
    <rdf:RDF>
      <cc:Work
         rdf:about="">
        <dc:format>image/svg+xml</dc:format>
        <dc:type
           rdf:resource="http://purl.org/dc/dcmitype/StillImage" />
        <dc:title></dc:title>
      </cc:Work>
    </rdf:RDF>
  </metadata>
  <g
     transform="translate(0,-41)"
     id="layer1">
    <path
       id="IconGraphic"
       class="cls-1"
       d="m 218.47346,165.6717 c 5.4963,0.002 9.95076,4.45845 9.95076,9.95475 0,5.4963 -4.45446,9.95255 -9.95076,9.95475 h -21.53068 v 38.59027 c -0.003,3.66496 -2.97772,6.63301 -6.64268,6.62986 h -2.4574 v 50.2231 c 0.002,4.60924 -3.73286,8.34726 -8.34209,8.34726 -4.60924,0 -8.34495,-3.73802 -8.3421,-8.34726 v -50.22024 h -3.02763 v 50.22308 c 0.005,4.61159 -3.73049,8.35329 -8.34207,8.35329 -4.61158,0 -8.34827,-3.7417 -8.34207,-8.35329 v -50.22308 h -1.70513 c -3.66496,0.001 -6.63748,-2.96776 -6.63982,-6.63272 v -52.9422 c 0.003,-3.66493 2.97774,-6.63296 6.64266,-6.62981 h 40.55421 c 1.28016,7.8e-4 2.53254,0.37327 3.60503,1.07224 h 17.45922 V 113.05377 H 184.34289 V 51.903203 h 61.15057 v 61.150567 h -27.02 z m -48.45261,-5.63864 c -15.94778,0.0546 -23.98344,-19.21099 -12.72731,-30.50575 11.25615,-11.29476 30.54905,-3.32514 30.54916,12.62273 0.0174,9.8598 -7.96205,17.86654 -17.82185,17.88302 z"
       style="fill:#ffffff;fill-rule:evenodd;stroke-width:1.4221065" />
    <path
       id="IconGraphic-4"
       class="cls-1"
       d="m 40.474334,165.01399 c -5.513794,0.002 -9.982431,4.47264 -9.982431,9.98644 0,5.5138 4.468637,9.98424 9.982431,9.98645 h 21.599224 v 38.7131 c 0.0034,3.67662 2.987195,6.65414 6.663815,6.65098 h 2.46522 v 50.38297 c -0.0024,4.6239 3.744746,8.37383 8.368653,8.37383 4.623906,0 8.371517,-3.74993 8.368653,-8.37383 v -50.38011 h 3.037271 v 50.38296 c -0.0057,4.62626 3.742365,8.37987 8.368632,8.37987 4.626248,0 8.374828,-3.75361 8.368608,-8.37987 v -50.38296 h 1.71057 c 3.67662,10e-4 6.6586,-2.97722 6.66095,-6.65384 v -53.11073 c -0.003,-3.67659 -2.98722,-6.65407 -6.66381,-6.65091 H 68.738827 c -1.284234,9.2e-4 -2.540599,0.37446 -3.616511,1.07565 H 47.607528 V 112.22857 H 74.713544 V 50.883342 H 13.368312 v 61.345228 h 27.106022 z m 48.606844,-5.65659 c 15.998552,0.0547 24.059792,-19.27213 12.767822,-30.60285 -11.291967,-11.33072 -30.646292,-3.33573 -30.646407,12.66291 -0.0174,9.89118 7.987403,17.92341 17.878585,17.93994 z"
       style="fill:#ffffff;fill-rule:evenodd;stroke-width:1.4266336" />
  </g>
</svg>
