<?xml version="1.0" encoding="UTF-8" standalone="no"?>
<svg
   id="Layer_1"
   version="1.1"
   viewBox="0 0 512 512"
   sodipodi:docname="icons_emotion_fear.svg"
   inkscape:version="1.4 (86a8ad7, 2024-10-11)"
   xmlns:inkscape="http://www.inkscape.org/namespaces/inkscape"
   xmlns:sodipodi="http://sodipodi.sourceforge.net/DTD/sodipodi-0.dtd"
   xmlns="http://www.w3.org/2000/svg"
   xmlns:svg="http://www.w3.org/2000/svg">
  <sodipodi:namedview
     id="namedview1"
     pagecolor="#ffffff"
     bordercolor="#000000"
     borderopacity="0.25"
     inkscape:showpageshadow="2"
     inkscape:pageopacity="0.0"
     inkscape:pagecheckerboard="0"
     inkscape:deskcolor="#d1d1d1"
     inkscape:zoom="3.5449219"
     inkscape:cx="256"
     inkscape:cy="256"
     inkscape:window-width="3840"
     inkscape:window-height="2054"
     inkscape:window-x="3825"
     inkscape:window-y="-15"
     inkscape:window-maximized="1"
     inkscape:current-layer="Layer_1" />
  <!-- Generator: Adobe Illustrator 29.0.1, SVG Export Plug-In . SVG Version: 2.1.0 Build 192)  -->
  <defs
     id="defs1">
    <style
       id="style1">
      .st0 {
        fill: #fff;
      }
    </style>
  </defs>
  <g
     id="g1">
    <path
       class="st0"
       d="M256,512c-68.4,0-132.7-26.6-181-75C26.6,388.7,0,324.4,0,256S26.6,123.3,75,75C123.3,26.6,187.6,0,256,0s132.7,26.6,181,75c48.4,48.4,75,112.6,75,181s-26.6,132.7-75,181c-48.4,48.4-112.6,75-181,75h0ZM256,40c-119.1,0-216,96.9-216,216s96.9,216,216,216,216-96.9,216-216S375.1,40,256,40ZM316,402h-120c-16.3,0-31.4-8.9-39.4-23.1-8-14.4-7.7-31.3.9-45.3,14.5-23.5,43.3-51.6,98.4-51.6s84,28.1,98.4,51.6c8.6,14,8.9,30.9.9,45.3-8,14.2-23,23.1-39.3,23.1h0ZM256,322c-29.4,0-51.1,11-64.4,32.6-1.2,1.9-.7,3.7,0,4.8.5,1,1.9,2.6,4.4,2.6h120c2.6,0,3.9-1.6,4.4-2.6.6-1.1,1.1-2.9,0-4.8-13.3-21.6-34.9-32.6-64.4-32.6ZM355,265c-1.4,0-2.9-.2-4.3-.5-15.4-3.4-30.8-10-45.7-19.7-12.7-8.2-20.1-22.1-20-37.2.1-15.1,7.9-28.9,20.7-36.8,13.3-8.2,28.1-14.7,43.9-19.1,10.6-3,21.7,3.2,24.7,13.9,3,10.6-3.2,21.7-13.9,24.7-12.2,3.4-23.6,8.3-33.7,14.6-1.4.9-1.7,2.2-1.7,3.2,0,1,.3,2.3,1.7,3.2,10.9,7.1,21.9,11.8,32.6,14.2,10.8,2.4,17.6,13,15.2,23.8-2.1,9.3-10.3,15.7-19.5,15.7h0ZM161.3,264.5c15.4-3.4,30.8-10,45.7-19.7,12.7-8.2,20.1-22.1,20-37.2-.1-15.1-7.9-28.9-20.7-36.8-13.3-8.2-28.1-14.7-43.9-19.1-10.6-3-21.7,3.2-24.7,13.9-3,10.6,3.2,21.7,13.9,24.7,12.2,3.4,23.6,8.3,33.7,14.6,1.4.9,1.7,2.2,1.7,3.2,0,1-.3,2.3-1.7,3.2-10.9,7.1-21.9,11.8-32.6,14.2-10.8,2.4-17.6,13-15.2,23.8,2.1,9.3,10.3,15.7,19.5,15.7,1.4,0,2.9-.2,4.3-.5h0Z"
       id="path1"
       style="fill:#ffffff" />
  </g>
</svg>
