<?xml version="1.0" encoding="UTF-8" standalone="no"?>
<svg
   xmlns:dc="http://purl.org/dc/elements/1.1/"
   xmlns:cc="http://creativecommons.org/ns#"
   xmlns:rdf="http://www.w3.org/1999/02/22-rdf-syntax-ns#"
   xmlns:svg="http://www.w3.org/2000/svg"
   xmlns="http://www.w3.org/2000/svg"
   xmlns:sodipodi="http://sodipodi.sourceforge.net/DTD/sodipodi-0.dtd"
   xmlns:inkscape="http://www.inkscape.org/namespaces/inkscape"
   id="svg8"
   version="1.1"
   viewBox="0 0 256 256"
   height="256mm"
   width="256mm"
   sodipodi:docname="icons_conservationsubsidies.svg"
   inkscape:version="1.0.2-2 (e86c870879, 2021-01-15)">
  <sodipodi:namedview
     pagecolor="#ffffff"
     bordercolor="#666666"
     borderopacity="1"
     objecttolerance="10"
     gridtolerance="10"
     guidetolerance="10"
     inkscape:pageopacity="0"
     inkscape:pageshadow="2"
     inkscape:window-width="1129"
     inkscape:window-height="843"
     id="namedview11"
     showgrid="false"
     inkscape:zoom="0.26857456"
     inkscape:cx="884.33702"
     inkscape:cy="681.86014"
     inkscape:window-x="279"
     inkscape:window-y="45"
     inkscape:window-maximized="0"
     inkscape:current-layer="svg8"
     inkscape:document-rotation="0" />
  <defs
     id="defs2">
    <style
       id="style2">
      .cls-1 {
        fill-rule: evenodd;
      }
    </style>
    <style
       id="style2-2">
      .cls-1 {
        fill-rule: evenodd;
      }
    </style>
    <style
       id="style2-1">
      .cls-1 {
        fill-rule: evenodd;
      }
    </style>
    <style
       id="style2-5">
      .cls-1 {
        fill-rule: evenodd;
      }
    </style>
    <style
       id="style2-12">
      .cls-1 {
        fill-rule: evenodd;
      }
    </style>
    <style
       id="style2-6">
      .cls-1 {
        fill-rule: evenodd;
      }
    </style>
    <style
       id="style2-2-3">
      .cls-1 {
        fill-rule: evenodd;
      }
    </style>
    <style
       id="style2-1-3">
      .cls-1 {
        fill-rule: evenodd;
      }
    </style>
    <style
       id="style2-5-0">
      .cls-1 {
        fill-rule: evenodd;
      }
    </style>
    <style
       id="style2-12-8">
      .cls-1 {
        fill-rule: evenodd;
      }
    </style>
    <style
       id="style2-0">
      .cls-1 {
        fill-rule: evenodd;
      }
    </style>
    <style
       id="style2-25">
      .cls-1, .cls-2 {
        fill-rule: evenodd;
      }

      .cls-2 {
        fill: none;
        stroke: #000;
        stroke-width: 6.35px;
      }
    </style>
    <style
       id="style2-8">
      .cls-1, .cls-2 {
        fill-rule: evenodd;
      }

      .cls-2 {
        fill: none;
        stroke: #000;
        stroke-width: 6.35px;
      }
    </style>
    <style
       id="style2-27">
      .cls-1, .cls-2 {
        fill-rule: evenodd;
      }

      .cls-2 {
        fill: none;
        stroke: #000;
        stroke-width: 6.35px;
      }
    </style>
    <style
       id="style2-14">
      .cls-1 {
        fill-rule: evenodd;
      }
    </style>
    <style
       id="style2-2-2">
      .cls-1 {
        fill-rule: evenodd;
      }
    </style>
    <style
       id="style2-1-8">
      .cls-1 {
        fill-rule: evenodd;
      }
    </style>
    <style
       id="style2-5-01">
      .cls-1 {
        fill-rule: evenodd;
      }
    </style>
    <style
       id="style2-12-7">
      .cls-1 {
        fill-rule: evenodd;
      }
    </style>
    <style
       id="style2-3">
      .cls-1 {
        fill-rule: evenodd;
      }
    </style>
    <style
       id="style2-55">
      .cls-1 {
        fill-rule: evenodd;
      }
    </style>
    <style
       id="style2-2-30">
      .cls-1 {
        fill-rule: evenodd;
      }
    </style>
    <style
       id="style2-1-81">
      .cls-1 {
        fill-rule: evenodd;
      }
    </style>
    <style
       id="style2-5-08">
      .cls-1 {
        fill-rule: evenodd;
      }
    </style>
    <style
       id="style2-12-88">
      .cls-1 {
        fill-rule: evenodd;
      }
    </style>
    <style
       id="style2-3-4">
      .cls-1 {
        fill-rule: evenodd;
      }
    </style>
    <style
       id="style2-9">
      .cls-1 {
        fill-rule: evenodd;
      }
    </style>
    <style
       id="style2-04">
      .cls-1 {
        fill-rule: evenodd;
      }
    </style>
    <style
       id="style2-2-9">
      .cls-1 {
        fill-rule: evenodd;
      }
    </style>
    <style
       id="style2-1-9">
      .cls-1 {
        fill-rule: evenodd;
      }
    </style>
    <style
       id="style2-5-9">
      .cls-1 {
        fill-rule: evenodd;
      }
    </style>
    <style
       id="style2-12-1">
      .cls-1 {
        fill-rule: evenodd;
      }
    </style>
    <style
       id="style2-69">
      .cls-1 {
        fill-rule: evenodd;
      }
    </style>
    <style
       id="style2-1-33">
      .cls-1 {
        fill-rule: evenodd;
      }
    </style>
    <style
       id="style2-3-6">
      .cls-1 {
        fill-rule: evenodd;
      }
    </style>
    <style
       id="style2-6-7">
      .cls-1 {
        fill-rule: evenodd;
      }
    </style>
    <style
       id="style2-7">
      .cls-1 {
        fill-rule: evenodd;
      }
    </style>
    <style
       id="style2-65">
      .cls-1 {
        fill-rule: evenodd;
      }
    </style>
    <style
       id="style2-16">
      .cls-1 {
        fill-rule: evenodd;
      }
    </style>
    <style
       id="style2-79">
      .cls-1 {
        fill-rule: evenodd;
      }
    </style>
    <style
       id="style2-9-2">
      .cls-1 {
        fill-rule: evenodd;
      }
    </style>
    <style
       id="style2-99">
      .cls-1, .cls-2 {
        fill-rule: evenodd;
      }

      .cls-2 {
        opacity: 0.79;
      }
    </style>
    <style
       id="style2-9-5">
      .cls-1 {
        fill-rule: evenodd;
      }
    </style>
    <style
       id="style2-6-4">
      .cls-1 {
        fill-rule: evenodd;
      }
    </style>
    <style
       id="style2-8-4">
      .cls-1 {
        fill-rule: evenodd;
      }
    </style>
  </defs>
  <metadata
     id="metadata5">
    <rdf:RDF>
      <cc:Work
         rdf:about="">
        <dc:format>image/svg+xml</dc:format>
        <dc:type
           rdf:resource="http://purl.org/dc/dcmitype/StillImage" />
        <dc:title />
      </cc:Work>
    </rdf:RDF>
  </metadata>
  <path
     style="fill:#ffffff;stroke-width:1.16878"
     d="m 102.5009,227.90341 c -3.540449,-1.87006 -3.597998,-4.75097 -0.25427,-12.73093 2.81641,-6.72146 3.16275,-8.80405 3.24603,-19.51756 0.20686,-26.60591 -7.782878,-38.8073 -17.395521,-26.56525 -5.337764,6.79781 -10.616637,7.44868 -25.694055,3.16796 -5.882576,-1.67021 -6.082562,-1.63433 -7.889318,1.41615 -2.124868,3.58757 -4.915795,32.07404 -3.642838,37.18179 0.41697,1.67313 1.86049,4.14634 3.20782,5.49602 5.26597,5.27527 2.084757,10.17634 -6.605311,10.17634 -8.547565,0 -8.922314,-0.87023 -9.744099,-22.62725 -0.698952,-18.50485 -1.432121,-24.85535 -2.869565,-24.85535 -2.673824,0 -13.01975,12.58031 -14.54355,17.68452 -1.502468,5.03273 -1.357915,19.6735 0.214005,21.67544 1.024128,1.3043 0.971414,1.89089 -0.258916,2.88152 -3.937035,3.16992 -17.1068524,-0.13946 -18.0073754,-4.52509 -0.3415425,-1.66334 1.7216842,-8.66258 5.4667344,-18.54531 3.308428,-8.73057 6.564681,-18.84135 7.236125,-22.46849 0.671444,-3.62716 2.924918,-10.74955 5.007725,-15.82751 3.528539,-8.60283 3.772874,-9.95273 3.581083,-19.78448 -0.233777,-11.98425 -0.854185,-15.53497 -2.58677,-14.8046 -1.363469,0.57482 -3.714518,18.04939 -3.036292,22.56779 0.253357,1.68787 -0.268006,3.70007 -1.219168,4.70541 -2.173973,2.29774 -2.913937,1.20882 -1.795379,-2.64201 0.52755,-1.81623 0.473554,-5.20887 -0.13119,-8.2431 -1.450521,-7.27776 0.603687,-27.08845 3.601535,-34.73294 3.74615,-9.552725 14.760994,-21.761115 26.10345,-28.931962 12.059585,-7.624286 16.812597,-8.415802 28.679527,-4.776114 12.42882,3.811999 19.643727,4.453161 31.953443,2.83946 7.69399,-1.008617 11.60896,-2.153821 13.63063,-3.987147 4.70022,-4.262276 13.70059,-9.127471 16.91085,-9.141188 4.25553,-0.01824 13.8598,3.927036 18.60995,7.644522 2.62013,2.050539 6.40617,3.44638 10.87456,4.00924 6.52433,0.82185 6.9453,1.086146 8.7275,5.479867 1.41373,3.485193 1.72773,6.323973 1.28146,11.585388 -0.54642,6.44172 -0.27384,7.63893 3.6019,15.822864 9.54703,20.15901 10.64293,36.22354 4.19579,61.50613 -2.23605,8.76872 -4.8344,20.98811 -5.77414,27.15427 -0.9397,6.16614 -2.19736,13.22375 -2.79476,15.68355 -0.90183,3.7132 -0.80066,4.6759 0.59578,5.67115 2.1532,1.5346 2.18034,6.18273 0.0421,7.22765 -0.93493,0.45689 -2.4948,-0.2876 -3.62892,-1.73192 -1.90467,-2.42569 -1.95603,-4.07198 -1.20834,-38.76287 0.65819,-30.54431 0.53698,-37.19842 -0.77275,-42.40302 -1.66684,-6.62365 -8.8507,-18.22743 -11.28456,-18.22743 -0.8136,0 -3.92369,0.98133 -6.91135,2.18071 l -5.43215,2.18067 -5.53343,-5.03349 c -7.94328,-7.22559 -18.31073,-20.28338 -20.63065,-25.984335 -2.18282,-5.363987 -2.59506,-12.968249 -0.91927,-16.956041 1.36943,-3.258751 -0.21383,-3.307253 -2.50938,-0.07684 -2.46601,3.470288 -3.15719,10.660286 -1.50862,15.693025 0.76581,2.337872 7.27363,11.821111 14.46187,21.073881 l 13.06956,16.82322 -0.22714,9.48204 c -0.28724,11.99139 2.78511,27.71455 9.20142,47.08984 3.0671,9.26168 4.75666,16.29804 4.75066,19.78444 -0.006,4.5074 0.55417,6.00503 3.36593,8.9703 2.80264,2.95566 3.18257,3.96256 2.23933,5.93533 -1.54519,3.23176 -9.91097,5.27861 -13.3703,3.27129 -2.45918,-1.42698 -2.60984,-2.07793 -2.47105,-10.67715 0.17628,-10.92122 -1.40234,-14.83582 -9.66032,-23.95503 -7.16176,-7.90864 -15.25512,-15.72439 -16.28291,-15.72439 -0.44945,0 -1.04778,4.10477 -1.32966,9.1217 -0.28735,5.11521 -1.82691,13.85583 -3.50509,19.89993 l -2.99261,10.77823 3.10701,3.16674 c 2.56088,2.61008 2.90613,3.57507 1.96413,5.49008 -1.28842,2.61928 -10.69349,3.73467 -14.50703,1.72037 z"
     id="path27" />
  <path
     style="fill:#ffffff;stroke-width:0.104788"
     d="m 192.88291,93.944956 c -0.0611,-1.369011 0.42091,-7.869111 0.6679,-9.005262 0.32332,-1.487157 0.92746,-3.076879 1.68606,-4.436717 1.47339,-2.641156 2.68325,-4.01204 7.48425,-8.48024 5.9608,-5.547591 7.3746,-7.230907 10.1645,-12.101915 1.92507,-3.361091 3.46302,-6.5516 4.74573,-9.845134 1.126,-2.891202 2.13735,-6.027257 2.54719,-7.898343 0.22301,-1.018299 0.40334,-2.622659 0.30263,-2.692637 -0.0299,-0.0207 -0.69021,0.982549 -1.46747,2.229455 -7.04717,11.304836 -12.09716,17.031424 -18.46328,20.936971 -1.87397,1.149674 -2.72189,1.400183 -3.15271,0.93143 -0.46543,-0.506349 -0.60382,-2.862198 -0.39555,-6.735871 0.52955,-9.852064 3.61781,-18.519392 9.0356,-25.358894 4.6137,-5.824329 11.22252,-10.508324 19.00655,-13.470816 1.69119,-0.643624 7.02695,-2.388417 7.11425,-2.326342 0.11485,0.08169 0.62468,2.621477 0.7367,3.670036 0.1388,1.299603 0.48307,6.940543 0.62699,10.272998 0.41551,9.621375 -0.24413,16.39993 -2.20106,22.61952 -1.17119,3.722391 -2.48482,6.615067 -4.39369,9.675236 -2.99143,4.795632 -7.25418,8.559989 -12.25391,10.821227 -2.10134,0.950371 -3.499,1.407804 -6.73465,2.204182 -1.74882,0.430456 -3.27913,0.861926 -3.69385,1.041549 -2.88256,1.248401 -5.03068,3.112984 -6.78549,5.889877 -1.10023,1.741028 -1.76599,3.297178 -3.16589,7.399722 -0.10537,0.308764 -0.40982,1.484235 -0.67654,2.612187 -0.26672,1.127908 -0.53718,2.136916 -0.60096,2.242248 -0.10422,0.172005 -0.11777,0.152108 -0.13327,-0.194467 z m -1.43424,-21.254527 c -3.41773,0.320415 -7.27285,-0.428918 -10.45354,-2.031905 -0.99646,-0.502163 -2.98558,-1.833734 -3.89761,-2.609143 -1.86757,-1.587766 -4.39807,-4.6585 -5.93128,-7.197528 -1.79854,-2.978334 -3.58546,-7.18755 -4.71126,-11.097535 -0.37386,-1.298605 -0.37014,-1.758022 0.0157,-1.956155 0.64576,-0.33148 4.86051,-0.451906 7.38874,-0.211129 5.51621,0.525349 10.45506,2.463762 14.20147,5.573862 1.83409,1.522619 3.74917,3.775531 4.97083,5.847815 0.78283,1.327957 1.86781,3.532031 2.0719,4.208879 0.16034,0.53165 0.15927,0.632999 -0.0101,0.920342 -0.28981,0.49488 -0.82277,0.552586 -2.71875,0.29442 -3.8891,-0.529569 -6.69909,-1.794179 -12.09163,-5.441798 -0.92509,-0.625738 -1.70105,-1.10513 -1.72438,-1.065304 -0.0652,0.111471 1.48051,2.154884 2.3417,3.095506 3.48682,3.80858 7.90133,6.479998 14.72022,8.907894 l 2.03224,0.723593 -0.43161,0.264526 c -0.85592,0.524584 -2.13152,0.98787 -3.7484,1.361356 -0.89131,0.205933 -1.80278,0.391486 -2.02551,0.412351 z"
     id="path38" />
  <g
     id="g183"
     transform="matrix(0.308234,0,0,0.33294999,311.06877,116.8933)"
     style="fill:#ffffff">
    <path
       id="IconGraphic"
       class="cls-1"
       d="m -208.71015,-130.79636 v 27.08606 h -22.15908 v -27.08606 h -26.90674 v -22.30674 h 26.90674 v -27.08609 h 22.15908 v 27.08609 h 26.9067 v 22.30674 z"
       style="fill:#ffffff;fill-rule:evenodd;stroke:#ffffff;stroke-width:1.13769;stroke-opacity:1"
       sodipodi:nodetypes="ccccccccccccc" />
    <g
       id="layer1"
       transform="matrix(0.85325611,0,0,0.83533814,155.7899,1.6512474)"
       style="fill:#ffffff" />
  </g>
</svg>
