<?xml version="1.0" encoding="UTF-8" standalone="no"?>
<svg
   id="Capa_1"
   enable-background="new 0 0 512 512"
   height="512"
   viewBox="0 0 512 512"
   width="512"
   version="1.1"
   sodipodi:docname="icons_emotion_disgust.svg"
   inkscape:version="1.4 (86a8ad7, 2024-10-11)"
   xmlns:inkscape="http://www.inkscape.org/namespaces/inkscape"
   xmlns:sodipodi="http://sodipodi.sourceforge.net/DTD/sodipodi-0.dtd"
   xmlns="http://www.w3.org/2000/svg"
   xmlns:svg="http://www.w3.org/2000/svg">
  <defs
     id="defs6" />
  <sodipodi:namedview
     id="namedview6"
     pagecolor="#ffffff"
     bordercolor="#000000"
     borderopacity="0.25"
     inkscape:showpageshadow="2"
     inkscape:pageopacity="0.0"
     inkscape:pagecheckerboard="0"
     inkscape:deskcolor="#d1d1d1"
     inkscape:zoom="3.5449219"
     inkscape:cx="256"
     inkscape:cy="256"
     inkscape:window-width="3840"
     inkscape:window-height="2054"
     inkscape:window-x="7665"
     inkscape:window-y="-5"
     inkscape:window-maximized="1"
     inkscape:current-layer="Capa_1" />
  <g
     id="g6">
    <path
       d="m 136,236 h 40 c 11.046,0 20,-8.954 20,-20 0,-11.046 -8.954,-20 -20,-20 h -40 c -11.046,0 -20,8.954 -20,20 0,11.046 8.954,20 20,20 z"
       id="path1"
       style="fill:#ffffff" />
    <path
       d="m 376,196 h -40 c -11.046,0 -20,8.954 -20,20 0,11.046 8.954,20 20,20 h 40 c 11.046,0 20,-8.954 20,-20 0,-11.046 -8.954,-20 -20,-20 z"
       id="path2"
       style="fill:#ffffff" />
    <path
       d="M 256,512 C 399.551,512 512,399.551 512,256 512,112.449 399.551,0 256,0 112.449,0 0,112.449 0,256 0,399.551 112.449,512 256,512 Z m 0,-472 c 121.122,0 216,94.878 216,216 0,121.122 -94.878,216 -216,216 C 134.878,472 40,377.122 40,256 40,134.878 134.878,40 256,40 Z"
       id="path3"
       style="fill:#ffffff" />
    <path
       d="m 136,356 c -11.046,0 -20,8.954 -20,20 0,11.046 8.954,20 20,20 26.073,0 48.303,-16.722 56.56,-40 h 126.88 c 8.256,23.278 30.487,40 56.56,40 11.046,0 20,-8.954 20,-20 0,-11.046 -8.954,-20 -20,-20 -11.028,0 -20,-8.972 -20,-20 0,-11.028 8.972,-20 20,-20 11.046,0 20,-8.954 20,-20 0,-11.046 -8.954,-20 -20,-20 -26.073,0 -48.303,16.722 -56.56,40 H 192.56 c -8.256,-23.278 -30.487,-40 -56.56,-40 -11.046,0 -20,8.954 -20,20 0,11.046 8.954,20 20,20 11.028,0 20,8.972 20,20 0,11.028 -8.972,20 -20,20 z"
       id="path4"
       style="fill:#ffffff" />
    <path
       d="m 136,156 h 40 c 33.084,0 60,-26.916 60,-60 0,-11.046 -8.954,-20 -20,-20 -11.046,0 -20,8.954 -20,20 0,11.028 -8.972,20 -20,20 h -40 c -11.046,0 -20,8.954 -20,20 0,11.046 8.954,20 20,20 z"
       id="path5"
       style="fill:#ffffff" />
    <path
       d="m 336,156 h 40 c 11.046,0 20,-8.954 20,-20 0,-11.046 -8.954,-20 -20,-20 h -40 c -11.028,0 -20,-8.972 -20,-20 0,-11.046 -8.954,-20 -20,-20 -11.046,0 -20,8.954 -20,20 0,33.084 26.916,60 60,60 z"
       id="path6"
       style="fill:#ffffff" />
  </g>
</svg>
