<?xml version="1.0" encoding="UTF-8" standalone="no"?>
<svg
   id="Layer_1"
   height="512"
   viewBox="0 0 64 64"
   width="512"
   data-name="Layer 1"
   version="1.1"
   sodipodi:docname="icons_collectivism.svg"
   inkscape:version="1.4 (86a8ad7, 2024-10-11)"
   xmlns:inkscape="http://www.inkscape.org/namespaces/inkscape"
   xmlns:sodipodi="http://sodipodi.sourceforge.net/DTD/sodipodi-0.dtd"
   xmlns="http://www.w3.org/2000/svg"
   xmlns:svg="http://www.w3.org/2000/svg">
  <defs
     id="defs5" />
  <sodipodi:namedview
     id="namedview5"
     pagecolor="#ffffff"
     bordercolor="#000000"
     borderopacity="0.25"
     inkscape:showpageshadow="2"
     inkscape:pageopacity="0.0"
     inkscape:pagecheckerboard="0"
     inkscape:deskcolor="#d1d1d1"
     inkscape:zoom="3.5449219"
     inkscape:cx="256"
     inkscape:cy="256"
     inkscape:window-width="3840"
     inkscape:window-height="2054"
     inkscape:window-x="3825"
     inkscape:window-y="-15"
     inkscape:window-maximized="1"
     inkscape:current-layer="Layer_1" />
  <g
     id="g5">
    <path
       d="m37 48h1a4 4 0 0 0 4-4v-11a6 6 0 0 0 -6-6h-8a6 6 0 0 0 -6 6v11a4 4 0 0 0 4 4h1v15h10z"
       id="path1"
       style="fill:#ffffff" />
    <circle
       cx="32"
       cy="20"
       r="6"
       id="circle1"
       style="fill:#ffffff" />
    <path
       d="m60 30v11a4 4 0 0 1 -4 4h-1v15h-10v-15h-1.09a5.47 5.47 0 0 0 .09-1v-11a7.977 7.977 0 0 0 -3.03-6.26 5.969 5.969 0 0 1 5.03-2.74h8a6 6 0 0 1 6 6z"
       id="path2"
       style="fill:#ffffff" />
    <circle
       cx="50"
       cy="17"
       r="6"
       id="circle2"
       style="fill:#ffffff" />
    <path
       d="m20 33v11a5.47 5.47 0 0 0 .09 1h-1.09v15h-10v-15h-1a4 4 0 0 1 -4-4v-11a6 6 0 0 1 6-6h8a5.969 5.969 0 0 1 5.03 2.74 7.977 7.977 0 0 0 -3.03 6.26z"
       id="path3"
       style="fill:#ffffff" />
    <circle
       cx="14"
       cy="17"
       r="6"
       id="circle3"
       style="fill:#ffffff" />
    <circle
       cx="24"
       cy="7"
       r="6"
       id="circle4"
       style="fill:#ffffff" />
    <circle
       cx="40"
       cy="7"
       r="6"
       id="circle5"
       style="fill:#ffffff" />
  </g>
</svg>
