<?xml version="1.0" encoding="UTF-8" standalone="no"?>
<svg
   id="Capa_1"
   enable-background="new 0 0 512 512"
   height="512"
   viewBox="0 0 512 512"
   width="512"
   version="1.1"
   sodipodi:docname="icons_pacifism.svg"
   inkscape:version="1.4 (86a8ad7, 2024-10-11)"
   xmlns:inkscape="http://www.inkscape.org/namespaces/inkscape"
   xmlns:sodipodi="http://sodipodi.sourceforge.net/DTD/sodipodi-0.dtd"
   xmlns="http://www.w3.org/2000/svg"
   xmlns:svg="http://www.w3.org/2000/svg">
  <defs
     id="defs1" />
  <sodipodi:namedview
     id="namedview1"
     pagecolor="#ffffff"
     bordercolor="#000000"
     borderopacity="0.25"
     inkscape:showpageshadow="2"
     inkscape:pageopacity="0.0"
     inkscape:pagecheckerboard="0"
     inkscape:deskcolor="#d1d1d1"
     inkscape:zoom="3.5449219"
     inkscape:cx="256"
     inkscape:cy="256"
     inkscape:window-width="3840"
     inkscape:window-height="2054"
     inkscape:window-x="3825"
     inkscape:window-y="-15"
     inkscape:window-maximized="1"
     inkscape:current-layer="Capa_1" />
  <g
     id="g1">
    <path
       d="M 287.867,1.966 C 266.917,-0.656 245.068,-0.654 224.148,1.964 96.363,17.824 0,127.037 0,256.005 c 0,28.026 4.503,55.576 13.383,81.878 6.886,20.417 16.368,39.929 28.179,57.99 41.343,63.285 107.888,104.899 182.558,114.17 10.433,1.305 21.161,1.958 31.888,1.958 10.717,0 21.434,-0.652 31.846,-1.954 74.692,-9.273 141.24,-50.886 182.577,-114.161 11.817,-18.071 21.3,-37.584 28.184,-57.993 8.882,-26.309 13.386,-53.86 13.386,-81.886 C 512,127.037 415.644,17.825 287.867,1.966 Z m -63.734,443.67 C 170.879,436.715 123.494,405.368 94.125,359.632 l 130.008,-89.658 z m 0,-253.082 -155.385,107.155 c -3.327,-14.235 -5.014,-28.939 -5.014,-43.704 0,-45.696 16.377,-90.015 46.113,-124.793 29.408,-34.394 69.996,-57.421 114.285,-64.839 v 126.181 z m 63.734,253.082 V 269.974 l 130.008,89.658 c -29.368,45.736 -76.753,77.084 -130.008,86.004 z M 443.252,299.708 287.867,192.554 V 66.374 c 44.29,7.418 84.877,30.445 114.285,64.839 29.736,34.777 46.113,79.096 46.113,124.792 0.001,14.765 -1.686,29.469 -5.013,43.703 z"
       id="path1"
       style="fill:#ffffff" />
  </g>
</svg>
