<?xml version="1.0" encoding="UTF-8" standalone="no"?>
<svg
   id="Layer_1"
   enable-background="new 0 0 38 38"
   viewBox="0 0 38 38"
   version="1.1"
   sodipodi:docname="icons_stayathomeparents.svg"
   inkscape:version="1.4 (86a8ad7, 2024-10-11)"
   xmlns:inkscape="http://www.inkscape.org/namespaces/inkscape"
   xmlns:sodipodi="http://sodipodi.sourceforge.net/DTD/sodipodi-0.dtd"
   xmlns="http://www.w3.org/2000/svg"
   xmlns:svg="http://www.w3.org/2000/svg">
  <defs
     id="defs5" />
  <sodipodi:namedview
     id="namedview5"
     pagecolor="#ffffff"
     bordercolor="#000000"
     borderopacity="0.25"
     inkscape:showpageshadow="2"
     inkscape:pageopacity="0.0"
     inkscape:pagecheckerboard="0"
     inkscape:deskcolor="#d1d1d1"
     inkscape:zoom="47.763158"
     inkscape:cx="19"
     inkscape:cy="19"
     inkscape:window-width="3840"
     inkscape:window-height="2054"
     inkscape:window-x="3825"
     inkscape:window-y="-15"
     inkscape:window-maximized="1"
     inkscape:current-layer="Layer_1" />
  <g
     id="g5">
    <path
       d="M 13.027797,8.9822054 C 11.499782,10.696561 9.957118,12.398953 8.4781141,14.155057 8.0219984,14.696805 7.6803236,15.330106 7.488307,16.011503 c -0.4420333,1.569376 -0.7835107,3.020893 -2.1088257,8.594483 -0.1104736,0.464599 0.2404175,0.914795 0.7178345,0.914795 h 2.8503418 c 0.3395996,0 0.6148682,0.26831 0.614624,0.608154 -9.766e-4,1.369873 -0.00281,4.723633 0.00342,7.223142 0.00256,1.016358 0.5730594,1.647217 1.4486084,1.64795 0.891296,9.76e-4 1.428528,-0.614258 1.428711,-1.639161 3.66e-4,-2.517087 2.44e-4,-5.876462 1.83e-4,-7.243162 -6.1e-5,-0.339599 0.275146,-0.60791 0.614563,-0.60791 h 2.008789 c 0.473572,0 0.824463,-0.438477 0.720886,-0.900635 -0.352844,-1.574463 -1.111328,-4.82373 -1.596557,-6.61084 -0.237427,-0.874511 -0.15094,-1.48999 0.526916,-2.129639 0.814697,-0.768555 1.51349,-1.659912 2.341554,-2.58667 0.04956,0.912842 0.108398,1.692627 0.127807,2.477051 0.01355,0.54712 0.335511,1.037843 0.830018,1.272218 1.083679,0.513916 2.164428,1.034912 3.256958,1.529541 0.678512,0.306772 1.415489,0.05782 1.510131,-0.71753 0.05896,-0.482666 -0.174255,-0.838623 -0.601501,-1.047119 -0.827454,-0.403564 -1.656189,-0.806397 -2.499207,-1.175538 -0.271301,-0.118652 -0.443359,-0.380615 -0.449096,-0.676514 -0.02124,-1.096923 -0.128296,-2.193115 -0.118286,-3.289306 0.03184,-3.4772474 -3.914732,-5.11151 -6.08838,-2.6726076 z"
       id="path1"
       style="fill:#ffffff" />
    <path
       d="m 25.89584,20.830107 c -0.558716,-0.04248 -0.9375,0.26416 -1.01709,0.879638 -0.08661,0.670411 -0.132813,1.345948 -0.198059,2.034913 -1.079407,0 -2.107361,0 -3.181519,0 0.135193,-0.578858 0.254517,-1.125489 0.391785,-1.667481 0.143127,-0.565674 -0.0755,-0.964844 -0.577149,-1.191406 -0.815612,-0.368164 -1.641601,-0.714844 -2.474121,-1.043457 -0.609253,-0.240235 -1.149414,-0.01294 -1.358947,0.526123 -0.196534,0.505859 0.04108,1.020263 0.608886,1.277099 0.477051,0.215821 0.962891,0.412354 1.409912,0.602295 -0.373962,0.76001 -0.81488,1.460205 -1.073974,2.222412 -0.563721,1.658692 0.604004,3.442139 2.234009,3.479981 1.228088,0.02881 2.457763,0.02417 3.686035,4.88e-4 1.065429,-0.02075 1.969604,-0.752685 2.067627,-1.705566 0.149536,-1.452881 0.254333,-2.910889 0.352234,-4.368653 0.03943,-0.58667 -0.340699,-1.005859 -0.869629,-1.046386 z"
       id="path2"
       style="fill:#ffffff" />
    <path
       d="m 19.551846,8.5825472 c 1.52069,-0.00903 2.750183,-1.2573242 2.752746,-2.7946777 0.0025,-1.5300293 -1.229004,-2.7775879 -2.751526,-2.7878418 -1.509399,-0.00977 -2.783874,1.2473145 -2.794799,2.7568359 -0.01105,1.5258789 1.28302,2.8347168 2.793579,2.8256836 z"
       id="path3"
       style="fill:#ffffff" />
    <path
       d="m 31.110866,25.284941 c -0.0018,-1.166748 -0.855285,-2.009766 -2.031433,-2.00708 -1.137329,0.0029 -2.058715,0.914062 -2.049377,2.027343 0.0092,1.101319 0.973999,2.052979 2.071045,2.042969 1.131225,-0.0105 2.011597,-0.914307 2.009765,-2.063232 z"
       id="path4"
       style="fill:#ffffff" />
    <path
       d="m 17.285976,28.621611 c -0.3125,-0.107911 -0.654785,0.0581 -0.763183,0.370605 -0.108399,0.312988 0.05762,0.654785 0.370605,0.763184 4.918694,1.703146 10.306656,1.74538 15.34375,0 0.313477,-0.108399 0.479004,-0.450196 0.370606,-0.763184 -0.10791,-0.3125 -0.449219,-0.478516 -0.763184,-0.370605 -4.547275,1.57555 -9.650978,1.698192 -14.558594,0 z"
       id="path5"
       style="fill:#ffffff" />
  </g>
</svg>
