<?xml version="1.0" encoding="UTF-8" standalone="no"?>
<svg
   id="Layer_1_1_"
   enable-background="new 0 0 48 48"
   height="512"
   viewBox="0 0 48 48"
   width="512"
   version="1.1"
   sodipodi:docname="icons_isolationism.svg"
   inkscape:version="1.4 (86a8ad7, 2024-10-11)"
   xmlns:inkscape="http://www.inkscape.org/namespaces/inkscape"
   xmlns:sodipodi="http://sodipodi.sourceforge.net/DTD/sodipodi-0.dtd"
   xmlns="http://www.w3.org/2000/svg"
   xmlns:svg="http://www.w3.org/2000/svg">
  <defs
     id="defs1" />
  <sodipodi:namedview
     id="namedview1"
     pagecolor="#ffffff"
     bordercolor="#000000"
     borderopacity="0.25"
     inkscape:showpageshadow="2"
     inkscape:pageopacity="0.0"
     inkscape:pagecheckerboard="true"
     inkscape:deskcolor="#d1d1d1"
     inkscape:zoom="3.5449219"
     inkscape:cx="256"
     inkscape:cy="256"
     inkscape:window-width="3840"
     inkscape:window-height="2054"
     inkscape:window-x="3825"
     inkscape:window-y="-15"
     inkscape:window-maximized="1"
     inkscape:current-layer="Layer_1_1_" />
  <g
     id="g1">
    <path
       d="m27 28v3h-6v-3c0-1.654 1.346-3 3-3s3 1.346 3 3zm-3-5c1.103 0 2-.897 2-2s-.897-2-2-2-2 .897-2 2 .897 2 2 2zm-21-5h8c.552 0 1-.447 1-1v-3c0-2.038-1.229-3.788-2.982-4.566 1.18-.697 1.982-1.967 1.982-3.434 0-2.206-1.794-4-4-4s-4 1.794-4 4c0 1.467.802 2.737 1.982 3.434-1.753.778-2.982 2.528-2.982 4.566v3c0 .553.448 1 1 1zm6.018 19.434c1.18-.697 1.982-1.967 1.982-3.434 0-2.206-1.794-4-4-4s-4 1.794-4 4c0 1.467.802 2.737 1.982 3.434-1.753.778-2.982 2.528-2.982 4.566v3c0 .553.448 1 1 1h8c.552 0 1-.447 1-1v-3c0-2.038-1.229-3.788-2.982-4.566zm26.982-12.434h-3v11c0 .553-.448 1-1 1h-16c-.552 0-1-.447-1-1v-11h-3c-.404 0-.769-.243-.924-.617s-.069-.804.217-1.09l12-12c.391-.391 1.023-.391 1.414 0l12 12c.286.286.372.716.217 1.09s-.52.617-.924.617zm-7 3c0-1.725-.885-3.238-2.218-4.137.748-.727 1.218-1.74 1.218-2.863 0-2.206-1.794-4-4-4s-4 1.794-4 4c0 1.124.47 2.136 1.219 2.863-1.333.899-2.219 2.412-2.219 4.137v4c0 .553.448 1 1 1h8c.552 0 1-.447 1-1zm14.018 9.434c1.18-.697 1.982-1.967 1.982-3.434 0-2.206-1.794-4-4-4s-4 1.794-4 4c0 1.467.802 2.737 1.982 3.434-1.753.778-2.982 2.528-2.982 4.566v3c0 .553.448 1 1 1h8c.552 0 1-.447 1-1v-3c0-2.038-1.229-3.788-2.982-4.566zm0-28c1.18-.697 1.982-1.967 1.982-3.434 0-2.206-1.794-4-4-4s-4 1.794-4 4c0 1.467.802 2.737 1.982 3.434-1.753.778-2.982 2.528-2.982 4.566v3c0 .553.448 1 1 1h8c.552 0 1-.447 1-1v-3c0-2.038-1.229-3.788-2.982-4.566z"
       id="path1"
       style="fill:#ffffff" />
  </g>
</svg>
