<?xml version="1.0" encoding="UTF-8" standalone="no"?>
<!-- Generator: Adobe Illustrator 19.0.0, SVG Export Plug-In . SVG Version: 6.00 Build 0)  -->

<svg
   version="1.1"
   id="Layer_1"
   x="0px"
   y="0px"
   viewBox="0 0 512 512"
   style="enable-background:new 0 0 512 512;"
   xml:space="preserve"
   sodipodi:docname="icons_singleparents.svg"
   inkscape:version="1.4 (86a8ad7, 2024-10-11)"
   xmlns:inkscape="http://www.inkscape.org/namespaces/inkscape"
   xmlns:sodipodi="http://sodipodi.sourceforge.net/DTD/sodipodi-0.dtd"
   xmlns="http://www.w3.org/2000/svg"
   xmlns:svg="http://www.w3.org/2000/svg"><defs
   id="defs27">
	

	

	

	









	




	





		
	
		
	
		
	
		
	
		
	
		
	</defs><sodipodi:namedview
   id="namedview27"
   pagecolor="#ffffff"
   bordercolor="#000000"
   borderopacity="0.25"
   inkscape:showpageshadow="2"
   inkscape:pageopacity="0.0"
   inkscape:pagecheckerboard="0"
   inkscape:deskcolor="#d1d1d1"
   inkscape:zoom="3.5449219"
   inkscape:cx="256"
   inkscape:cy="256"
   inkscape:window-width="3840"
   inkscape:window-height="2054"
   inkscape:window-x="3825"
   inkscape:window-y="-15"
   inkscape:window-maximized="1"
   inkscape:current-layer="Layer_1" />





<g
   id="g27"><path
     d="m 498.482,392.175 -37.1,-25.44 c -3.221,-2.209 -7.206,-3 -11.029,-2.184 l -22.208,4.734 -18.726,-41.985 34.888,-7.651 c 7.686,-1.685 12.55,-9.283 10.864,-16.969 -1.685,-7.686 -9.281,-12.55 -16.969,-10.864 l -44.625,9.786 c -8.244,-5.075 -19,-4.596 -26.819,1.939 10.454,14.35 61.057,83.813 68.08,93.451 l 15.472,-3.298 32.055,21.981 c 6.492,4.452 15.359,2.794 19.807,-3.692 4.452,-6.49 2.799,-15.359 -3.69,-19.808 z"
     id="path1"
     style="fill:#ffffff" /><path
     d="m 395.266,243.582 c -7.715,-17.297 -27.992,-25.067 -45.289,-17.352 -11.272,5.027 -18.493,15.39 -20.024,26.786 l 27.888,38.28 c 6.556,1.192 13.527,0.494 20.073,-2.425 17.297,-7.715 25.066,-27.992 17.352,-45.289 z"
     id="path2"
     style="fill:#ffffff" /><path
     d="m 220.195,250.931 c -1.361,-1.726 -2.435,-3.104 -2.878,-3.711 -3.142,-4.313 -4.61,-9.776 -3.72,-15.518 -1.165,0.03 5.382,-0.082 -27.523,0.474 -0.636,10.813 2.336,21.832 9.127,31.156 0.688,0.944 1.484,2.034 2.349,3.219 2.382,3.26 6.033,5.358 10.048,5.784 4.015,0.426 8.035,-0.857 11.045,-3.549 0.003,-0.003 0.007,-0.006 0.01,-0.009 5.157,-4.61 5.827,-12.415 1.542,-17.846 z"
     id="path4"
     style="fill:#ffffff" /><circle
     cx="96.665001"
     cy="41.886002"
     r="41.886002"
     id="circle6"
     style="fill:#ffffff" /><path
     d="m 212.287,174.783 -65.647,1.109 -34.926,-50.676 40.85,31.593 -7.159,-36.168 c -2.448,-12.367 -13.296,-21.307 -25.903,-21.307 -16.237,0 -27.656,0 -45.677,0 -12.634,0 -23.451,8.914 -25.904,21.307 L 7.544,324.632 c -1.379,6.965 3.986,13.42 11.014,13.42 6.443,0 14.808,0 24.365,0 v 149.696 c 0,13.394 10.858,24.253 24.253,24.253 13.394,0 24.253,-10.857 24.253,-24.253 V 338.052 c 3.487,0 6.983,0 10.471,0 v 149.696 c 0,13.394 10.858,24.253 24.253,24.253 13.395,0 24.253,-10.857 24.253,-24.253 V 338.052 c 9.559,0 17.924,0 24.365,0 7.067,0 12.39,-6.466 11.013,-13.42 -3.513,-17.748 -14.743,-74.485 -18.238,-92.142 -23.715,0.4 -22.486,0.38 -38.064,0.643 -10.974,0.186 -20.424,-6.771 -23.953,-16.549 l -25.071,-69.828 40.701,59.057 c 3.546,5.146 9.392,8.21 15.628,8.21 0.107,0 0.215,0 0.322,-0.002 l 75.823,-1.282 c 10.481,-0.177 18.834,-8.818 18.656,-19.298 -0.181,-10.482 -8.825,-18.842 -19.301,-18.658 z"
     id="path8"
     style="fill:#ffffff" /><path
     d="m 471.246,452.102 c -5.791,-4.691 -13.159,-7.509 -21.175,-7.509 -1.163,0 -2.312,0.059 -3.445,0.174 L 273.103,206.58 c -5.688,-7.809 -13.485,-13.735 -22.772,-17.022 1.059,9.602 -1.506,19.007 -7.106,26.638 3.028,1.46 5.697,3.661 7.763,6.496 l 39.116,53.694 c 0,18.836 0,76.217 0,93.19 0,21.041 8.057,40.196 21.246,54.564 l -14.514,20.917 c -1.803,-0.3 -3.652,-0.463 -5.538,-0.463 -18.585,0 -33.703,15.119 -33.703,33.703 0,18.583 15.119,33.702 33.703,33.702 18.583,0 33.702,-15.119 33.702,-33.702 0,-6.681 -1.962,-12.909 -5.328,-18.152 l 13.354,-19.244 c 11.278,5.989 24.139,9.396 37.798,9.396 h 22.955 23.02 l 5.999,8.235 c -4.039,5.557 -6.43,12.386 -6.43,19.767 0,18.504 15.062,33.702 33.702,33.702 18.585,0 33.703,-15.119 33.703,-33.702 0,-10.57 -4.893,-20.013 -12.527,-26.197 z m -179.949,32.535 c -3.496,0 -6.34,-2.844 -6.34,-6.34 0,-3.496 2.844,-6.34 6.34,-6.34 3.496,0 6.34,2.844 6.34,6.34 0,3.496 -2.844,6.34 -6.34,6.34 z m 158.773,0 c -3.496,0 -6.34,-2.844 -6.34,-6.34 0,-3.496 2.844,-6.34 6.34,-6.34 3.496,0 6.34,2.844 6.34,6.34 0,3.496 -2.844,6.34 -6.34,6.34 z"
     id="path10"
     style="fill:#ffffff" /></g>















</svg>
