<?xml version="1.0" encoding="UTF-8" standalone="no"?>
<svg
   xmlns:dc="http://purl.org/dc/elements/1.1/"
   xmlns:cc="http://creativecommons.org/ns#"
   xmlns:rdf="http://www.w3.org/1999/02/22-rdf-syntax-ns#"
   xmlns:svg="http://www.w3.org/2000/svg"
   xmlns="http://www.w3.org/2000/svg"
   width="222"
   height="177.96382"
   viewBox="0 0 222 177.96382"
   version="1.1"
   id="svg7">
  <metadata
     id="metadata11">
    <rdf:RDF>
      <cc:Work
         rdf:about="">
        <dc:format>image/svg+xml</dc:format>
        <dc:type
           rdf:resource="http://purl.org/dc/dcmitype/StillImage" />
        <dc:title></dc:title>
      </cc:Work>
    </rdf:RDF>
  </metadata>
  <defs
     id="defs4">
    <style
       id="style2">
      .cls-1 {
        fill-rule: evenodd;
      }
    </style>
    <style
       id="style2-8">
      .cls-1 {
        fill-rule: evenodd;
      }
    </style>
    <style
       id="style2-6">
      .cls-1 {
        fill-rule: evenodd;
      }
    </style>
    <style
       id="style2-3">
      .cls-1 {
        fill-rule: evenodd;
      }
    </style>
    <style
       id="style2-5">
      .cls-1 {
        fill-rule: evenodd;
      }
    </style>
  </defs>
  <path
     id="IconGraphic"
     class="cls-1"
     d="m 55.576439,121.96632 h -2.609752 v 47.99546 c 0,4.4004 -3.749813,7.96763 -8.375443,7.96763 -4.625628,0 -8.375441,-3.56723 -8.375441,-7.96763 v -47.99546 h -3.047819 v 47.99546 c 0,4.4004 -3.749812,7.96763 -8.375442,7.96763 -4.625628,0 -8.375441,-3.56723 -8.375441,-7.96763 V 121.96632 H 14.56604 c -3.603317,0 -6.5243821,-2.77883 -6.5243821,-6.20669 V 64.878043 c 0,-3.427861 2.9210651,-6.206693 6.5243821,-6.206693 h 41.010399 c 3.603317,0 6.524381,2.778832 6.524381,6.206693 v 50.881587 c 0,3.42786 -2.921064,6.20669 -6.524381,6.20669 z M 35.071239,54.331098 C 19.038531,54.397536 10.945754,35.976354 22.256537,25.169246 c 11.310784,-10.807107 30.709997,-3.188878 30.71015,12.063301 0.02216,9.422913 -7.99022,17.078496 -17.895448,17.098551 z"
     style="fill:#ffffff;fill-rule:evenodd;stroke-width:0.909079" />
  <path
     id="IconGraphic-3"
     class="cls-1"
     d="m 214.33097,119.29183 a 5.9509872,6.4221155 0 0 1 -2.09633,0.17663 l 2.68888,15.04382 h -16.25095 v 35.00515 a 7.348555,7.9303263 0 0 1 -14.69711,0 v -35.00515 h -2.67219 v 35.00515 a 7.34855,7.9303207 0 0 1 -14.6971,0 v -35.00515 h -16.24095 l 2.75036,-15.4014 a 5.9002153,6.3673243 0 0 1 -2.19922,-0.16438 5.8120329,6.2721604 0 0 1 -4.15862,-7.68087 L 159.0218,62.025563 a 5.8527839,6.3161376 0 0 1 5.12728,-4.629142 l 0.007,-0.03532 h 36.97728 l 0.0301,0.166537 a 5.8895266,6.3557893 0 0 1 5.01039,4.630585 l 12.35221,49.425347 a 5.8314062,6.2930677 0 0 1 -4.19467,7.70826 z M 182.64338,54.486715 a 15.881546,17.13886 0 1 1 16.04589,-17.137416 15.966389,17.230419 0 0 1 -16.04589,17.137416 z"
     style="fill:#ffffff;fill-rule:evenodd;stroke-width:0.693991" />
  <path
     id="IconGraphic-0"
     style="fill:#ffffff;fill-rule:evenodd;stroke-width:0.194038"
     d="m 130.58226,62.491232 a 1.9472039,1.7560616 0 0 1 -2.7651,0 l -14.74687,-13.379419 -3.11061,2.822047 -7.37364,-6.688882 8.98555,-8.153617 7.37341,6.688885 -3.1096,2.82296 14.74686,13.37942 a 1.9751962,1.7813062 0 0 1 0,2.508606 z m -11.521,-19.232832 -6.91265,-6.27152 a 2.3043615,2.0781599 0 0 1 0,-2.926703 2.2714653,2.0484928 0 0 1 3.22584,0 l 6.91268,6.271515 a 2.3043615,2.0781599 0 0 1 0,2.926708 2.2714653,2.0484928 0 0 1 -3.22587,0 z m -9.67777,11.707015 a 2.2714653,2.0484928 0 0 1 -3.22587,0 l -6.912674,-6.271691 a 2.3043615,2.0781599 0 0 1 0,-2.926716 2.2714653,2.0484928 0 0 1 3.225844,0 l 6.9127,6.271524 a 2.3047702,2.0785283 0 0 1 0,2.926883 z m 5.47935,7.976908 c 0,2.041127 -4.81449,3.695644 -10.75356,3.695644 -5.939079,0 -10.753565,-1.654517 -10.753565,-3.695644 0,-2.041114 4.814486,-3.695463 10.753565,-3.695463 5.93907,0 10.75356,1.654527 10.75356,3.695463 z m -10.75356,4.582519 c 6.47888,0 11.73125,-1.852975 11.73125,-4.138984 a 2.3211159,2.0932698 0 0 0 -0.71514,-1.42494 c 1.87404,1.20658 2.99498,2.727156 2.99498,4.381492 0,3.918611 -6.27273,7.095371 -14.01212,7.095371 -7.739369,0 -14.011084,-3.17676 -14.011084,-7.095371 0,-1.654336 1.120917,-3.174912 2.994971,-4.381492 a 2.3209118,2.0930857 0 0 0 -0.713905,1.42494 c 0,2.286009 5.252143,4.138984 11.731048,4.138984 z m 22.89428,8.696839 c -8.81728,6.93659 -16.36532,16.684734 -17.27479,20.637403 C 108.66679,92.823978 101.88849,83.344839 92.365099,76.415345 82.543411,69.270493 67.792576,62.5895 67.904211,44.716706 68.106517,12.17554 98.849732,2.4766954 109.66512,30.516925 119.98315,3.5969001 151.26286,11.899431 151.46445,44.524223 151.57643,62.39307 136.64321,68.637422 127.00356,76.221681 Z" />
</svg>
