<?xml version="1.0" encoding="UTF-8" standalone="no"?>
<svg id="Layer_1" version="1.1" viewBox="0 0 512 512" sodipodi:docname="icons_emotion_anger.svg" inkscape:version="1.4 (86a8ad7, 2024-10-11)"
   xmlns:inkscape="http://www.inkscape.org/namespaces/inkscape"
   xmlns:sodipodi="http://sodipodi.sourceforge.net/DTD/sodipodi-0.dtd"
   xmlns="http://www.w3.org/2000/svg"
   xmlns:svg="http://www.w3.org/2000/svg">
   <sodipodi:namedview id="namedview1" pagecolor="#ffffff" bordercolor="#000000" borderopacity="0.25" inkscape:showpageshadow="2" inkscape:pageopacity="0.0" inkscape:pagecheckerboard="0" inkscape:deskcolor="#d1d1d1" inkscape:zoom="3.5449219" inkscape:cx="256" inkscape:cy="256" inkscape:window-width="3840" inkscape:window-height="2054" inkscape:window-x="3825" inkscape:window-y="-15" inkscape:window-maximized="1" inkscape:current-layer="g2" />
   <!-- Generator: Adobe Illustrator 29.0.1, SVG Export Plug-In . SVG Version: 2.1.0 Build 192)  -->
   <defs id="defs1">
      <style id="style1">
      .st0 {
        fill: #fff;
      }
      </style>
   </defs>
   <g id="g2">
      <path class="st0" d="M256,512c-68.4,0-132.7-26.6-181-75C26.6,388.7,0,324.4,0,256S26.6,123.3,75,75C123.3,26.6,187.6,0,256,0s69.8,7.1,102,21.2c10.1,4.4,14.8,16.2,10.4,26.3-4.4,10.1-16.2,14.8-26.3,10.4-27.2-11.8-56.2-17.8-86.1-17.8-119.1,0-216,96.9-216,216s96.9,216,216,216,216-96.9,216-216-.7-20.6-2-30.3c-1.5-10.9,6.1-21,17.1-22.5,10.9-1.5,21,6.1,22.5,17.1,1.6,11.4,2.4,23.8,2.4,35.7,0,68.4-26.6,132.7-75,181-48.4,48.4-112.6,75-181,75h0ZM355.3,388.9c8-14.4,7.7-31.3-.9-45.3-14.5-23.5-43.3-51.6-98.4-51.6s-84,28.1-98.4,51.6c-8.6,14-8.9,30.9-.9,45.3,8,14.2,23,23.1,39.3,23.1h120c16.3,0,31.4-8.9,39.4-23.1ZM320.4,364.6c1.2,1.9.7,3.7,0,4.8-.5,1-1.9,2.6-4.4,2.6h-120c-2.6,0-3.9-1.6-4.4-2.6-.6-1.1-1.1-2.9,0-4.8,13.3-21.6,34.9-32.6,64.4-32.6s51.1,11,64.4,32.6ZM438.1,192.2c-5.2,0-10.4-2-14.4-6.1-7.7-7.9-7.5-20.6.4-28.3l41.1-39.9h-33.8c-14.5,0-27.4-8.7-32.8-22.1-5.5-13.4-2.2-28.7,8.2-38.8l51-49.5c7.9-7.7,20.6-7.5,28.3.4,7.7,7.9,7.5,20.6-.4,28.3l-42.9,41.6h33.8c14.5,0,27.3,8.7,32.8,22.1,5.5,13.4,2.3,28.6-8,38.7l-49.3,47.8c-3.9,3.8-8.9,5.6-13.9,5.6h0ZM391.8,172.4c-1.4-11-11.5-18.7-22.4-17.3-26.3,3.4-46.5,13.2-60.9,28.2-8.1,8.1-12.6,18.9-12.6,30.4,0,21.3,9.8,39.1,31.7,39.1s25-11.2,25-25-4.4-16.3-11.1-20.8c7.6-6.5,18.1-10.3,33.1-12.3,11-1.4,18.7-11.5,17.3-22.4h0ZM142.6,155.2c-11-1.4-21,6.3-22.4,17.3-1.4,11,6.3,21,17.3,22.4,15,2,25.4,5.8,33.1,12.3-6.7,4.5-11.1,12.1-11.1,20.8,0,13.8,11.2,25,25,25,19.6,0,31.7-16.2,31.7-39.1s-4.5-22.3-12.6-30.4c-14.4-15-34.6-24.8-60.9-28.2Z" id="path1" inkscape:label="IconGraphic" style="fill:#ffffff;fill-opacity:1" />
   </g>
</svg>
