<?xml version="1.0" encoding="UTF-8" standalone="no"?>
<svg
   id="Layer"
   height="512"
   viewBox="0 0 24 24"
   width="512"
   version="1.1"
   sodipodi:docname="icons_prohibitionism.svg"
   inkscape:version="1.4 (86a8ad7, 2024-10-11)"
   xmlns:inkscape="http://www.inkscape.org/namespaces/inkscape"
   xmlns:sodipodi="http://sodipodi.sourceforge.net/DTD/sodipodi-0.dtd"
   xmlns="http://www.w3.org/2000/svg"
   xmlns:svg="http://www.w3.org/2000/svg">
  <defs
     id="defs1" />
  <sodipodi:namedview
     id="namedview1"
     pagecolor="#ffffff"
     bordercolor="#000000"
     borderopacity="0.25"
     inkscape:showpageshadow="2"
     inkscape:pageopacity="0.0"
     inkscape:pagecheckerboard="0"
     inkscape:deskcolor="#d1d1d1"
     inkscape:zoom="3.5449219"
     inkscape:cx="256"
     inkscape:cy="256"
     inkscape:window-width="3840"
     inkscape:window-height="2054"
     inkscape:window-x="3825"
     inkscape:window-y="-15"
     inkscape:window-maximized="1"
     inkscape:current-layer="Layer" />
  <g
     id="g1">
    <path
       d="m6.009 6.5a4 4 0 1 1 4 4 4 4 0 0 1 -4-4zm5.741 11.5a6.213 6.213 0 0 1 2.22-4.77.312.312 0 0 0 .09-.21c0-.2-.252-.287-.3-.3a6.778 6.778 0 0 0 -1.76-.22h-4c-4.06 0-5.5 2.97-5.5 5.52 0 2.28 1.21 3.48 3.5 3.48h6.29a.305.305 0 0 0 .309-.3.248.248 0 0 0 -.029-.132 6.178 6.178 0 0 1 -.82-3.068zm11 0a4.75 4.75 0 1 1 -4.75-4.75 4.756 4.756 0 0 1 4.75 4.75zm-7.508 1.7 4.458-4.458a3.233 3.233 0 0 0 -4.458 4.458zm6.008-1.7a3.213 3.213 0 0 0 -.492-1.7l-4.458 4.458a3.233 3.233 0 0 0 4.95-2.758z"
       fill="rgb(0,0,0)"
       id="path1"
       style="fill:#ffffff" />
  </g>
</svg>
