<?xml version="1.0" encoding="UTF-8" standalone="no"?>
<svg
   xmlns:dc="http://purl.org/dc/elements/1.1/"
   xmlns:cc="http://creativecommons.org/ns#"
   xmlns:rdf="http://www.w3.org/1999/02/22-rdf-syntax-ns#"
   xmlns:svg="http://www.w3.org/2000/svg"
   xmlns="http://www.w3.org/2000/svg"
   xmlns:sodipodi="http://sodipodi.sourceforge.net/DTD/sodipodi-0.dtd"
   xmlns:inkscape="http://www.inkscape.org/namespaces/inkscape"
   width="238"
   height="220"
   viewBox="0 0 238 220"
   version="1.1"
   id="svg7"
   sodipodi:docname="icons_extraditionpolicy.svg"
   inkscape:version="1.0.2-2 (e86c870879, 2021-01-15)">
  <sodipodi:namedview
     pagecolor="#ffffff"
     bordercolor="#666666"
     borderopacity="1"
     objecttolerance="10"
     gridtolerance="10"
     guidetolerance="10"
     inkscape:pageopacity="0"
     inkscape:pageshadow="2"
     inkscape:window-width="1438"
     inkscape:window-height="875"
     id="namedview21"
     showgrid="false"
     inkscape:pagecheckerboard="true"
     inkscape:zoom="2.3623794"
     inkscape:cx="83.944257"
     inkscape:cy="105.3798"
     inkscape:window-x="0"
     inkscape:window-y="0"
     inkscape:window-maximized="0"
     inkscape:current-layer="svg7"
     inkscape:document-rotation="0" />
  <metadata
     id="metadata11">
    <rdf:RDF>
      <cc:Work
         rdf:about="">
        <dc:format>image/svg+xml</dc:format>
        <dc:type
           rdf:resource="http://purl.org/dc/dcmitype/StillImage" />
        <dc:title></dc:title>
      </cc:Work>
    </rdf:RDF>
  </metadata>
  <defs
     id="defs4">
    <style
       id="style2">
      .cls-1 {
        fill-rule: evenodd;
      }
    </style>
    <style
       id="style2-1">
      .cls-1 {
        fill-rule: evenodd;
      }
    </style>
    <style
       id="style2-3">
      .cls-1 {
        fill-rule: evenodd;
      }
    </style>
    <style
       id="style2-6">
      .cls-1 {
        fill-rule: evenodd;
      }
    </style>
    <style
       id="style2-7">
      .cls-1 {
        fill-rule: evenodd;
      }
    </style>
    <style
       id="style2-65">
      .cls-1 {
        fill-rule: evenodd;
      }
    </style>
    <style
       id="style2-16">
      .cls-1 {
        fill-rule: evenodd;
      }
    </style>
    <style
       id="style2-79">
      .cls-1 {
        fill-rule: evenodd;
      }
    </style>
    <style
       id="style2-9">
      .cls-1 {
        fill-rule: evenodd;
      }
    </style>
    <style
       id="style2-99">
      .cls-1, .cls-2 {
        fill-rule: evenodd;
      }

      .cls-2 {
        opacity: 0.79;
      }
    </style>
    <style
       id="style2-9-5">
      .cls-1 {
        fill-rule: evenodd;
      }
    </style>
    <style
       id="style2-6-4">
      .cls-1 {
        fill-rule: evenodd;
      }
    </style>
    <style
       id="style2-8">
      .cls-1 {
        fill-rule: evenodd;
      }
    </style>
  </defs>
  <path
     style="fill:#ffffff;stroke-width:0.126541"
     d="m 93.059903,211.08978 -1.553998,-1.50595 1.340527,-1.53088 c 4.13265,-4.7195 9.036848,-9.10954 14.201828,-12.71284 11.18727,-7.8047 22.59177,-10.9937 33.15925,-9.2722 2.81862,0.45917 3.40138,0.65872 10.31623,3.53238 11.01418,4.57726 12.24478,5.07871 14.32741,5.83831 3.29679,1.2024 4.64069,1.5119 7.64307,1.76031 4.25995,0.3524 8.96516,-0.042 12.29232,-1.03038 0.47185,-0.1402 0.87633,-0.23532 0.89882,-0.21142 0.0225,0.0239 -0.41882,0.38944 -0.98072,0.81236 -4.89866,3.68695 -9.63198,5.76059 -15.02222,6.58121 -1.66542,0.25356 -6.06075,0.21484 -7.79857,-0.0688 -2.77986,-0.45353 -5.24396,-1.27582 -8.04578,-2.6848 -3.55215,-1.78635 -7.88921,-4.80581 -11.48134,-7.99329 -5.33551,-4.73452 -10.96591,-6.31427 -17.49562,-4.90892 -3.57161,0.76869 -6.60255,2.24431 -10.39718,5.06177 -5.29836,3.93397 -12.9602,11.54978 -18.702012,18.58962 -0.526397,0.6454 -1.000058,1.19056 -1.052565,1.21145 -0.05256,0.0209 -0.79475,-0.63973 -1.64945,-1.468 z m 51.948837,-0.17095 c -3.22635,-3.82969 -9.11028,-9.83056 -12.97503,-13.23289 -3.18294,-2.80212 -6.98308,-5.66678 -9.29423,-7.00632 -0.55619,-0.32235 -1.01211,-0.62845 -1.01319,-0.68024 -0.001,-0.0518 0.30031,-0.18744 0.66979,-0.30149 l 0.67177,-0.20734 1.75377,0.80601 c 5.56272,2.55658 11.03141,6.15016 16.4298,10.79636 2.33702,2.01138 6.29664,5.87879 7.25712,7.08809 l 0.53126,0.66888 -1.53006,1.53899 c -0.84154,0.84643 -1.55769,1.53845 -1.59147,1.53783 -0.0337,0 -0.44307,-0.45417 -0.90953,-1.00788 z m -73.084743,-6.11514 c -4.542954,-0.30764 -9.460253,-1.92036 -13.643872,-4.47468 -1.31013,-0.79992 -4.167436,-2.79425 -4.279727,-2.98713 -0.03115,-0.0536 0.645342,0.0916 1.503343,0.32265 3.822285,1.02901 8.26495,1.30877 13.104335,0.82514 3.1804,-0.31782 5.695669,-1.19778 13.386518,-4.68305 8.701043,-3.94307 14.410251,-6.39945 15.585975,-6.70581 4.461801,-1.16261 9.582331,-1.41579 14.441561,-0.71401 1.23112,0.17782 4.41366,0.85353 5.3881,1.14402 l 0.78263,0.23331 -0.57195,0.23191 c -0.55425,0.22471 -0.61079,0.22365 -1.82653,-0.0355 -3.8274,-0.81519 -7.14362,-0.6559 -10.41898,0.50046 -2.86383,1.0111 -5.31392,2.59722 -7.967895,5.1582 -3.891103,3.75478 -9.984783,7.81196 -14.262876,9.49624 -3.342964,1.31613 -7.493054,1.94049 -11.220632,1.68807 z M 59.7042,191.06942 c -8.733483,-0.58939 -16.945362,-4.27791 -23.164389,-10.4048 -0.990539,-0.97587 -3.232743,-3.53787 -3.237549,-3.69933 -0.0012,-0.0492 0.345528,0.13489 0.771109,0.40937 3.166003,2.04204 7.63263,3.77307 11.808176,4.57622 2.610389,0.5021 4.512413,0.6599 9.34001,0.77485 5.331867,0.12693 7.831459,0.35955 14.123381,1.31431 3.493564,0.53012 8.343372,1.38099 9.364431,1.64296 0.246318,0.0632 0.276321,0.0217 0.276321,-0.38177 0,-0.37242 -0.104473,-0.55637 -0.589626,-1.03816 -0.749826,-0.74462 -1.560585,-1.14586 -4.762527,-2.35681 -1.423888,-0.5385 -2.971311,-1.16726 -3.438741,-1.39723 -2.802649,-1.37888 -5.340375,-3.99092 -7.85279,-8.08273 -1.724358,-2.80837 -2.71619,-4.81198 -4.841921,-9.78132 -0.723432,-1.6912 -1.461505,-3.30326 -1.640169,-3.58238 -0.178653,-0.27914 -0.30254,-0.53118 -0.275298,-0.56008 0.08871,-0.0942 1.191295,0.77642 2.453701,1.9376 1.351543,1.2432 4.236256,4.32224 6.155954,6.57067 2.404402,2.81616 5.78174,6.51662 7.582251,8.3077 3.802554,3.78264 5.475064,5.05186 9.416384,7.14569 2.894113,1.5375 3.680804,1.91288 5.338355,2.54719 0.766678,0.29341 1.02604,0.44252 0.859682,0.49422 -0.131034,0.0406 -1.039604,0.25713 -2.019026,0.48091 -5.554247,1.2691 -12.474775,3.0068 -16.041811,4.02803 -3.441303,0.98524 -6.191727,1.28665 -9.625908,1.05489 z m 116.05741,-1.52163 c -1.3544,-0.0826 -2.71515,-0.31788 -4.43965,-0.76788 -3.73932,-0.97574 -11.29225,-2.65557 -17.02175,-3.78581 -1.03009,-0.2032 -1.87289,-0.4151 -1.87289,-0.47088 0,-0.0559 0.0765,-0.10142 0.16994,-0.10142 0.85147,0 8.3095,-4.04684 10.21454,-5.54256 2.38719,-1.87427 6.76193,-6.41435 10.5524,-10.95119 1.07846,-1.29083 2.59789,-3.10964 3.37654,-4.04186 1.93536,-2.31707 4.90239,-5.4345 6.11971,-6.42988 0.55373,-0.45279 1.00676,-0.78062 1.00676,-0.72853 0,0.052 -0.16078,0.36384 -0.35728,0.69284 -0.1965,0.32898 -0.86462,1.88896 -1.48468,3.46662 -4.1458,10.54813 -7.86411,15.97861 -12.58846,18.38504 -0.60792,0.30967 -2.15536,0.98641 -3.43874,1.50393 -2.74307,1.10612 -3.56139,1.53917 -4.37395,2.3148 -0.52011,0.49645 -0.59994,0.63922 -0.59994,1.073 v 0.50037 l 0.39915,-0.12211 c 0.80178,-0.24525 6.01133,-1.29847 9.24161,-1.86838 6.79063,-1.19805 9.17574,-1.49274 13.3251,-1.6463 5.53724,-0.20487 8.13662,-0.52895 11.60575,-1.44687 3.68996,-0.97634 7.62417,-2.77342 10.68394,-4.88022 0.64916,-0.44697 -0.68072,1.24335 -2.57834,3.27711 -4.07524,4.36762 -8.62486,7.37962 -14.26679,9.44513 -4.33769,1.58804 -9.44906,2.38245 -13.67297,2.12509 z M 57.554989,177.03968 c -2.517221,-0.69353 -6.249662,-1.52464 -9.290322,-2.06865 -5.118114,-0.91566 -8.374889,-1.99321 -12.570236,-4.15891 -4.55748,-2.35263 -8.082609,-4.9726 -11.590004,-8.61401 -3.755534,-3.89897 -6.573214,-8.04921 -8.930657,-13.15419 -1.314291,-2.84602 -1.314902,-2.88542 -0.02221,-1.42003 3.984039,4.51645 6.291571,6.42649 10.447572,8.64791 5.84325,3.12327 13.539799,7.86763 19.122041,11.78731 2.298331,1.61384 3.879268,2.82707 6.166824,4.73253 0.318379,0.26519 0.93829,0.6867 1.377585,0.9367 0.786715,0.44773 0.801535,0.45065 0.986096,0.19558 0.339605,-0.46934 0.347198,-0.80599 0.03433,-1.52376 -0.313481,-0.71923 -0.586477,-1.04561 -2.595711,-3.1031 -4.066089,-4.16378 -6.842297,-9.41452 -8.410497,-15.90701 -0.497045,-2.05787 -0.829587,-4.07961 -1.119915,-6.80872 -0.375261,-3.52738 -1.25049,-8.69052 -2.027874,-11.9626 -0.161305,-0.67896 -0.275276,-1.2536 -0.253276,-1.27694 0.02197,-0.0234 0.329639,0.32552 0.683627,0.77529 1.594091,2.02539 3.484092,5.20451 4.725263,7.94817 0.375706,0.83053 2.186159,5.94634 4.123121,11.65075 1.89932,5.59354 3.673389,10.72092 3.9424,11.39417 1.544027,3.86451 4.4433,9.27739 6.185498,11.54825 0.637573,0.83103 0.642227,0.82924 -0.983652,0.38126 z m 123.376871,-1.56642 c 1.3165,-1.5429 3.92842,-6.42004 5.63394,-10.52006 0.45988,-1.10559 2.10007,-6.06624 4.24639,-12.84296 2.95567,-9.33218 3.63059,-11.33288 4.35949,-12.92288 1.35336,-2.95209 3.10222,-5.94251 4.46623,-7.63688 l 0.41987,-0.52153 -0.17436,0.78232 c -0.67977,3.04992 -1.65512,9.6018 -1.89249,12.71256 -0.61715,8.08802 -2.829,14.71243 -6.70971,20.0953 -0.53151,0.73725 -1.78564,2.24142 -2.78699,3.34258 -2.20855,2.42874 -2.60467,3.18741 -2.09523,4.01283 0.10905,0.17676 0.24528,0.32138 0.30266,0.32138 0.24932,0 1.9793,-1.23516 2.9308,-2.0925 4.33884,-3.90951 15.58926,-11.58197 24.0781,-16.42055 3.86213,-2.2014 6.12345,-4.10843 9.2457,-7.79718 0.77161,-0.91158 1.57708,-1.86279 1.78994,-2.11379 l 0.38706,-0.45633 -0.37373,0.97787 c -0.6841,1.78997 -2.54854,5.65024 -3.55127,7.35278 -5.24784,8.91039 -13.02549,15.57172 -22.48078,19.25416 -2.397,0.93355 -4.19814,1.42574 -8.06542,2.20401 -2.07347,0.41729 -6.0585,1.43131 -8.2686,2.10402 -0.70922,0.21586 -1.40005,0.42543 -1.53514,0.4657 -0.21627,0.0645 -0.2075,0.0285 0.0735,-0.30085 z M 33.606623,153.33954 c -6.402847,-4.26129 -9.075697,-6.2618 -13.325104,-9.97323 C 13.172631,137.1574 8.656459,130.93083 6.1172395,123.83766 5.09081,120.97038 4.2911564,117.15299 4.1328128,114.36439 c -0.03737,-0.65901 -0.096952,-1.69697 -0.1323964,-2.30653 l -0.064402,-1.10826 1.1629025,2.47732 c 2.3592176,5.02585 4.6258535,8.48094 7.4416981,11.34354 2.551302,2.59366 3.854263,4.04053 5.183279,5.75582 2.261795,2.91918 5.696939,7.87105 8.941374,12.88929 1.610647,2.49119 2.76354,3.93766 3.792577,4.7583 0.448416,0.35758 0.849472,0.65073 0.891225,0.65143 0.04171,0.001 0.16328,-0.33612 0.270057,-0.74846 0.324245,-1.2522 -0.06416,-2.49244 -1.296309,-4.13974 -0.62178,-0.83122 -1.560316,-2.90509 -2.035736,-4.4983 -0.808385,-2.70901 -1.12585,-5.09988 -1.211873,-9.12698 -0.09108,-4.26473 0.109881,-6.57509 1.19126,-13.69045 0.474067,-3.11947 0.91823,-6.08248 0.987013,-6.58445 0.227973,-1.66378 0.244626,-1.67539 0.560693,-0.39117 1.490897,6.0579 2.444523,13.31681 3.117516,23.73014 0.409021,6.32901 0.833123,10.24539 1.489578,13.75566 0.394264,2.10823 0.752378,3.28626 1.82559,6.0053 0.544076,1.37843 0.973934,2.52127 0.955248,2.5396 -0.01869,0.0185 -1.636678,-1.03326 -3.595534,-2.33691 z m 168.559587,-0.006 c 0,-0.0318 0.41196,-1.16121 0.91542,-2.50993 1.09419,-2.93105 1.4404,-4.24842 1.8438,-7.01573 0.53096,-3.64254 0.81668,-7.21526 1.04797,-13.10373 0.38315,-9.75563 1.18787,-17.11835 2.54376,-23.27379 l 0.31594,-1.43425 0.34039,2.08617 c 0.18724,1.14738 0.72999,4.28642 1.20609,6.97562 1.18099,6.67039 1.29683,7.79075 1.30108,12.58219 0.003,4.13305 -0.0688,5.02306 -0.63173,7.74767 -0.54207,2.62403 -1.44779,4.94253 -2.55399,6.53791 -0.68242,0.98414 -1.04782,2.00822 -1.04782,2.93664 0,0.68265 0.25763,1.48807 0.47599,1.48807 0.19068,0 1.05909,-0.75268 1.75057,-1.51725 0.89299,-0.98742 1.5323,-1.93308 4.32271,-6.39396 4.93533,-7.88991 7.88723,-11.99178 11.00869,-15.29739 1.11735,-1.18324 2.34278,-2.56206 2.72318,-3.06403 2.19745,-2.89986 4.21389,-6.46148 5.75791,-10.17008 0.41797,-1.00397 0.78897,-1.85473 0.82444,-1.89059 0.1072,-0.1084 -0.072,4.81782 -0.21353,5.86733 -0.71686,5.31848 -2.40973,10.14928 -5.1848,14.79548 -4.33123,7.25164 -11.27157,13.92573 -23.35824,22.46216 -2.90825,2.05401 -3.38783,2.36425 -3.38783,2.19149 z M 71.30994,134.60964 c -3.905417,-1.33047 -4.182633,-6.74715 -0.445077,-8.69662 l 0.690702,-0.36025 16.834581,-0.0651 16.834584,-0.0652 1.03459,-0.54448 c 2.15859,-1.13603 3.79091,-3.28378 4.71005,-6.19731 0.51598,-1.63553 0.80664,-3.52797 1.05354,-6.85918 0.22552,-3.04272 5.06891,-67.40199 5.2342,-69.552308 l 0.0777,-1.010487 h -20.2185 c -11.120143,0 -20.218441,0.04539 -20.218441,0.100897 0,0.05549 6.613207,12.860967 14.696009,28.456608 8.082812,15.59564 14.927212,28.81521 15.209772,29.376801 l 0.51375,1.021099 -1.23988,1.26288 c -11.51975,11.7333 -24.297913,16.4753 -37.093985,13.76553 -8.126021,-1.72082 -16.47629,-6.54472 -23.048868,-13.31519 l -1.672523,-1.72289 15.795906,-30.514298 15.795915,-30.514288 43.372095,-0.0016 43.37209,-0.0016 1.1587,2.249147 c 2.38242,4.624561 29.32267,56.536296 29.92492,57.662942 l 0.62728,1.173477 -1.20018,1.23866 c -6.85568,7.07557 -15.39714,12.05612 -23.56272,13.7395 -2.90648,0.59919 -3.64867,0.66815 -7.17107,0.66633 -3.80575,-0.002 -5.40078,-0.19762 -8.62555,-1.05804 -7.3933,-1.9727 -14.66123,-6.48178 -21.45817,-13.31286 l -1.28429,-1.29074 0.50942,-1.034502 c 0.28017,-0.568988 7.14264,-13.825344 15.24991,-29.458551 l 14.74052,-28.424012 -20.09566,-0.033 c -11.05259,-0.01815 -20.11466,-0.01276 -20.13795,0.01194 -0.0233,0.02471 0.15027,2.562516 0.38565,5.639557 0.44609,5.831472 4.58405,61.023388 4.9156,65.564008 0.3483,4.76989 1.14312,7.54167 2.82246,9.84283 0.90467,1.23967 2.11898,2.24142 3.3663,2.77711 l 0.68952,0.29612 17.19634,0.0651 17.19634,0.0652 0.81671,0.42691 c 3.72942,1.94937 3.28377,7.41228 -0.70959,8.69841 -0.5307,0.17092 -6.36469,0.19371 -48.25476,0.18852 -46.689646,-0.005 -47.665965,-0.0111 -48.387962,-0.25695 z M 103.76901,97.422113 C 101.9239,93.751093 75.85648,43.60555 75.793278,43.60555 c -0.08779,0 -28.159249,54.156042 -28.225776,54.453785 -0.03337,0.1496 4.437118,0.177686 28.285688,0.177686 h 28.3254 z m 87.17827,0.623131 c -0.13401,-0.37073 -28.11814,-54.246167 -28.26488,-54.415958 -0.11873,-0.137349 -2.98052,5.290046 -14.25919,27.042561 -7.76088,14.967921 -14.12853,27.293322 -14.15037,27.38979 -0.0332,0.146545 4.62982,0.175384 28.35203,0.175384 24.93669,0 28.38329,-0.02338 28.32241,-0.191777 z M 19.656603,122.97792 c -1.362519,-2.03617 -2.650733,-3.77376 -4.321198,-5.82851 -4.548079,-5.59438 -7.672,-11.66365 -9.4944754,-18.446138 C 4.3103118,93.006927 3.741722,86.250374 4.3149195,80.569803 4.5416704,78.322588 4.9681554,75.419581 5.071537,75.419581 c 0.057242,0 0.1041237,0.183159 0.1041237,0.407019 0,0.742657 0.3733796,3.156303 0.7371815,4.765324 0.3723566,1.646921 0.7471466,2.655396 3.8539798,10.370235 3.509606,8.715037 4.466121,11.559561 5.007129,14.890461 1.293842,7.96596 2.274263,11.32483 3.535858,12.11355 l 0.378328,0.23654 0.366868,-0.3895 c 0.465819,-0.49455 0.477173,-0.99717 0.05983,-2.64928 -0.549951,-2.1769 -0.712104,-4.10549 -0.63937,-7.60435 0.08966,-4.31376 0.508936,-6.90659 1.760471,-10.887183 0.894468,-2.844879 1.80057,-4.801598 5.041552,-10.887178 1.489462,-2.796766 2.85391,-5.378397 3.032101,-5.736956 0.317653,-0.639203 0.322894,-0.643019 0.268119,-0.195578 -0.03067,0.25099 -0.08873,0.984408 -0.128858,1.629815 -0.172082,2.766081 -0.809278,7.799751 -1.48548,11.734685 -0.664696,3.868041 -1.236141,6.420327 -2.101839,9.387755 -3.15592,10.81768 -4.014758,15.02763 -4.023078,19.72073 -0.0023,1.30874 -0.0095,2.37952 -0.01504,2.37955 -0.0058,2e-5 -0.530995,-0.77727 -1.166711,-1.7273 z m 198.203817,-1.91561 c 0.11243,-2.06345 -0.38514,-5.84816 -1.26972,-9.65636 -0.66716,-2.87223 -1.44722,-5.59883 -2.92812,-10.23525 -1.19407,-3.738303 -1.68947,-5.646324 -2.46544,-9.495539 -0.82275,-4.081362 -1.77142,-10.556427 -1.97093,-13.452294 -0.0711,-1.030101 -0.0692,-1.038213 0.13581,-0.651926 0.11428,0.215135 1.5472,2.767429 3.18439,5.671762 3.84459,6.820275 4.64925,8.531117 5.7504,12.226621 1.03543,3.474867 1.43364,6.115916 1.51819,10.069276 0.0734,3.4344 -0.0361,4.92031 -0.52772,7.14893 -0.36752,1.66646 -0.32846,2.10397 0.22714,2.54437 l 0.33674,0.26691 0.33772,-0.26301 c 1.26809,-0.98754 2.05961,-3.84511 3.1556,-11.3922 0.63562,-4.377155 0.90551,-5.228243 6.19427,-19.534301 2.16979,-5.869296 2.28078,-6.329386 2.78912,-11.562618 0.10491,-1.079256 0.10976,-1.063947 0.59486,1.825394 1.03518,6.166674 1.01389,12.139662 -0.0645,18.058377 -1.5168,8.325918 -4.77126,15.454328 -10.24044,22.430148 -1.18948,1.51715 -1.97035,2.63198 -3.57274,5.10079 l -1.23982,1.91025 z M 15.31672,87.992273 C 14.234339,83.971018 13.287706,80.824076 12.123028,77.375361 10.195574,71.66797 9.3509703,67.596148 9.1153446,62.87542 8.8241812,57.041926 9.7495449,51.534486 11.926832,46.142458 c 0.837741,-2.074669 2.762668,-5.916572 2.891199,-5.770478 0.01891,0.02152 -0.07004,0.596525 -0.197609,1.277787 -0.420375,2.244122 -0.422136,4.026229 -0.0082,8.735821 0.204634,2.330638 0.609145,7.297601 0.898921,11.037693 l 0.526869,6.80017 -0.403746,6.717224 c -0.376012,6.255984 -0.390136,6.745162 -0.205574,7.124072 0.254768,0.523034 0.722422,0.722373 1.201002,0.511915 0.505707,-0.222389 0.637986,-0.513087 1.002162,-2.202436 0.79198,-3.673902 0.990281,-4.478515 1.542382,-6.258497 1.012314,-3.263677 2.180294,-5.779483 3.719774,-8.012374 0.348501,-0.505465 2.820253,-3.265963 5.492798,-6.13444 2.672545,-2.86848 5.211164,-5.671168 5.641376,-6.228198 0.430222,-0.55703 0.807234,-0.98621 0.837824,-0.95374 0.126121,0.133898 -0.531747,2.899103 -1.196819,5.030577 -0.738392,2.366409 -1.519524,4.362412 -2.321705,5.932536 -0.497643,0.974029 -4.1258,6.821171 -7.685925,12.386611 -3.846436,6.013035 -4.918909,8.056673 -6.637158,12.64738 -0.4563,1.219105 -0.840809,2.231745 -0.854475,2.250318 -0.01363,0.01856 -0.397412,-1.350384 -0.85276,-3.042126 z m 205.7787,-1.406505 c -1.76316,-4.581588 -3.18496,-7.130206 -7.82946,-14.034666 -3.43437,-5.10545 -6.77921,-10.288253 -7.42645,-11.507239 -1.00161,-1.886336 -1.85879,-3.964718 -2.64814,-6.420748 -0.43296,-1.347215 -1.02516,-3.675357 -1.02516,-4.030329 0,-0.111055 0.48957,0.368977 1.08791,1.066711 1.32257,1.542226 4.51445,4.859714 7.82743,8.135464 1.35376,1.338569 2.76894,2.834739 3.14482,3.324828 2.36434,3.082856 4.15819,7.280888 5.32429,12.459935 0.67951,3.018009 0.87738,3.668886 1.21895,4.009564 0.43686,0.435712 1.0027,0.408955 1.38717,-0.06559 0.35881,-0.442879 0.37472,-0.03568 -0.33218,-8.515703 l -0.46011,-5.519866 0.52073,-8.822526 c 0.28639,-4.852387 0.59193,-9.976517 0.67894,-11.386955 0.17109,-2.772908 0.0966,-4.064641 -0.37165,-6.43216 -0.1276,-0.645409 -0.21481,-1.191983 -0.19379,-1.214614 0.0703,-0.07578 1.44844,2.37105 2.22619,3.952706 2.54194,5.16947 3.79724,10.302226 3.94105,16.114415 0.13881,5.611591 -0.50975,9.786187 -2.53838,16.338755 -1.27893,4.131 -2.18761,7.411852 -3.0906,11.158967 -0.40588,1.684257 -0.74793,3.071291 -0.76009,3.082296 -0.0121,0.011 -0.31885,-0.750953 -0.68147,-1.693239 z M 20.695206,57.304939 c -0.01055,-2.083954 -0.108357,-4.29688 -0.280116,-6.332616 -0.821125,-9.734338 -0.214588,-14.885132 2.410044,-20.466639 1.277742,-2.717244 2.616017,-4.65722 4.815879,-6.981135 1.282232,-1.354536 3.202341,-3.127228 3.202341,-2.956473 0,0.02482 -0.25096,0.509868 -0.557683,1.077877 -1.981055,3.668538 -2.546048,5.653993 -4.467967,15.701099 -1.064905,5.566897 -1.69089,8.07663 -2.774832,11.12497 -0.818504,2.301846 -1.287614,4.004027 -1.287614,4.672172 0,0.574664 0.423677,1.152957 0.844687,1.152957 0.287438,0 0.997496,-0.602305 0.997496,-0.846127 0,-0.323454 1.660535,-3.653859 2.497324,-5.008707 1.977564,-3.201871 4.464454,-6.016332 7.090931,-8.024949 5.039294,-3.853846 8.73118,-7.194878 10.792218,-9.766596 0.43557,-0.543497 0.80929,-0.969757 0.830491,-0.94725 0.07393,0.07846 -0.588357,2.371907 -1.035538,3.586119 -0.803861,2.1827 -1.959912,4.126076 -4.43023,7.44743 -1.758522,2.364347 -4.4757,5.241156 -8.867715,9.388677 -6.40763,6.050931 -7.413717,7.084546 -8.828204,9.069779 l -0.935364,1.312777 z m 194.999604,-0.63521 c -1.27223,-1.693729 -3.02651,-3.425649 -7.88158,-7.781106 -4.78322,-4.291024 -7.52445,-6.876973 -8.65591,-8.165598 -1.03129,-1.174533 -3.73555,-4.849019 -4.62453,-6.283653 -1.15743,-1.867912 -1.82951,-3.405737 -2.48005,-5.674603 l -0.31112,-1.085122 1.30383,1.454806 c 2.20294,2.458023 5.34227,5.157402 9.5506,8.212202 2.44446,1.774405 3.88479,3.025335 5.23466,4.54628 2.0824,2.346319 4.33805,5.827919 5.44202,8.399779 0.58484,1.362514 1.05636,1.673001 1.71077,1.126493 0.2559,-0.213692 0.32362,-0.382453 0.32362,-0.80659 0,-0.682468 -0.35008,-2.005843 -0.99132,-3.747434 -1.49332,-4.055783 -2.01888,-5.935073 -3.42759,-12.256225 -2.44703,-10.980346 -2.69771,-11.759176 -5.20295,-16.165063 -0.23251,-0.408911 -0.13635,-0.354684 0.97552,0.550137 5.92885,4.824827 9.19314,11.065102 10.00967,19.135332 0.20156,1.992283 0.20176,6.198609 0,10.365637 -0.09,1.864511 -0.14364,4.724897 -0.11902,6.356413 0.0244,1.631517 0.0358,2.966338 0.0249,2.966267 -0.0109,-6.8e-5 -0.40781,-0.516647 -0.88201,-1.147952 z M 31.619281,34.543765 c 0.03936,-0.143425 0.188582,-0.759495 0.331461,-1.369048 1.199568,-5.117764 3.287177,-10.645078 5.072234,-13.429692 2.517773,-3.927624 7.075747,-7.863553 12.410976,-10.7172153 0.911579,-0.4875765 3.972546,-1.9301675 4.095538,-1.9301675 0.02855,0 -0.438671,0.6014034 -1.038391,1.336451 -1.492872,1.8297418 -1.645574,2.0533108 -3.228242,4.7264688 -3.897097,6.582258 -8.085007,12.861364 -9.531376,14.290766 -0.261526,0.258452 -2.105824,1.925707 -4.098455,3.705014 -1.992628,1.779302 -3.727012,3.328045 -3.854202,3.441646 -0.215259,0.192275 -0.226282,0.188528 -0.159543,-0.05423 z M 204.24758,31.711108 c -4.20376,-3.574342 -7.90485,-6.868209 -8.41669,-7.490615 -1.74376,-2.120485 -5.08385,-6.989766 -8.52568,-12.428977 -1.96025,-3.0978506 -2.53535,-3.8823914 -4.47153,-6.1001085 l -0.37397,-0.4283462 1.82032,0.7884945 c 5.54202,2.4005979 10.65259,6.0022572 13.60391,9.5873072 2.71052,3.292568 4.84479,8.010104 6.74858,14.916819 0.26512,0.96188 0.46514,1.766832 0.44446,1.788784 -0.0206,0.02196 -0.39391,-0.263061 -0.8294,-0.633358 z"
     id="path34" />
</svg>
