<?xml version="1.0" encoding="UTF-8" standalone="no"?>
<svg
   id="Layer_1"
   height="512"
   viewBox="0 0 50 50"
   width="512"
   version="1.1"
   sodipodi:docname="icons_machiavellianism.svg"
   inkscape:version="1.4 (86a8ad7, 2024-10-11)"
   xmlns:inkscape="http://www.inkscape.org/namespaces/inkscape"
   xmlns:sodipodi="http://sodipodi.sourceforge.net/DTD/sodipodi-0.dtd"
   xmlns="http://www.w3.org/2000/svg"
   xmlns:svg="http://www.w3.org/2000/svg">
  <defs
     id="defs11" />
  <sodipodi:namedview
     id="namedview11"
     pagecolor="#ffffff"
     bordercolor="#000000"
     borderopacity="0.25"
     inkscape:showpageshadow="2"
     inkscape:pageopacity="0.0"
     inkscape:pagecheckerboard="0"
     inkscape:deskcolor="#d1d1d1"
     inkscape:zoom="3.5449219"
     inkscape:cx="256"
     inkscape:cy="256"
     inkscape:window-width="3840"
     inkscape:window-height="2054"
     inkscape:window-x="7665"
     inkscape:window-y="-5"
     inkscape:window-maximized="1"
     inkscape:current-layer="Layer_1" />
  <g
     id="g11">
    <path
       d="m 32.3,29.7 c -0.2,2.7 -0.6,8.4 -1.7,12 h 10.1 c -1,-3.6 -1.5,-9.3 -1.7,-12 z"
       id="path1"
       style="fill:#ffffff" />
    <path
       d="m 36,16.7 c -1.1,-0.1 -2.4,0.4 -2.8,1.5 0.8,1.1 1.1,1.4 1.4,2.3 h 3.2 c 0,-0.1 -1.7,-3.6 -1.8,-3.8 z"
       id="path2"
       style="fill:#ffffff" />
    <path
       d="m 31.3,24.1 c 0.5,0 0.9,-0.1 1.3,-0.4 1.2,-0.8 1.5,-2.4 0.7,-3.6 l -4.2,-5.8 c -0.8,-1 -0.5,-2.4 0.4,-3.2 2,-1.8 4,0.8 5.1,1.3 0.9,0.6 0.7,0.6 4.2,7.8 0.4,0.8 1.2,1.3 2.1,1.3 0.2,0 0.5,0 0.7,-0.1 C 42.9,21 43.5,19.6 43,18.3 38.4,8 41.5,12.5 34.6,3.9 32.2,0.9 29.4,2.8 14.5,2.9 V 14 c 3.2,0.5 1.2,0.3 7.7,2.7 l 4,2.5 c 2.7,3 3.1,4.9 5.1,4.9 z"
       id="path3"
       style="fill:#ffffff" />
    <path
       d="M 13.5,14.1 V 3 c 0,-1.1 -0.9,-2 -2,-2 h -3 c -1.1,0 -2,0.9 -2,2 v 11.1 c 0,1.1 0.9,2 2,2 h 3.1 c 1.1,0 1.9,-0.9 1.9,-2 z"
       id="path4"
       style="fill:#ffffff" />
    <path
       d="m 13.5,36.9 c -0.3,1.6 -0.8,4 -1.8,5.7 -0.5,0.7 -0.8,1.5 -0.9,2.4 H 23.5 C 23.4,44.2 23,43.4 22.6,42.6 21.6,40.9 21,38.5 20.7,36.9 Z"
       id="path5"
       style="fill:#ffffff" />
    <path
       d="m 17,27.5 c -2,0 -3.6,1.6 -3.6,3.6 0,0.5 0.1,1 0.3,1.4 h 6.6 c 0.2,-0.4 0.3,-0.9 0.3,-1.4 0,-2 -1.6,-3.6 -3.6,-3.6 z"
       id="path6"
       style="fill:#ffffff" />
    <path
       d="m 41.1,28 v -0.7 c 0,-0.4 -0.3,-0.7 -0.7,-0.7 h -0.9 l 0.7,-2.8 c 0.1,-0.6 0,-1.1 -0.3,-1.6 -0.3,-0.4 -0.7,-0.7 -1.3,-0.8 -0.1,0 -0.2,0 -0.3,0 h -3.5 c 0.1,1.8 -1.4,3.5 -3.3,3.5 l 0.4,1.6 H 31 c -0.4,0 -0.7,0.3 -0.7,0.7 V 28 c 0,0.4 0.3,0.7 0.7,0.7 h 9.5 c 0.3,0 0.6,-0.3 0.6,-0.7 z"
       id="path7"
       style="fill:#ffffff" />
    <path
       d="m 21.1,33.5 h -8 c -0.7,0 -1.2,0.5 -1.2,1.2 0,0.7 0.5,1.2 1.2,1.2 h 8 c 0.7,0 1.2,-0.5 1.2,-1.2 0,-0.7 -0.6,-1.2 -1.2,-1.2 z"
       id="path8"
       style="fill:#ffffff" />
    <path
       d="M 42.8,42.7 H 28.5 c -0.4,0 -0.7,0.3 -0.7,0.7 v 0.7 c 0,0.4 0.3,0.7 0.7,0.7 h 0.3 l 0.3,1.9 c 0.2,1.3 1.4,2.3 2.7,2.3 h 7.7 c 1.3,0 2.5,-1 2.7,-2.3 l 0.3,-1.9 h 0.3 c 0.4,0 0.7,-0.3 0.7,-0.7 v -0.7 c 0,-0.4 -0.3,-0.7 -0.7,-0.7 z"
       id="path9"
       style="fill:#ffffff" />
    <path
       d="M 23.9,46 H 10.2 c -0.6,0 -1,0.4 -1,1 v 1 c 0,0.6 0.4,1 1,1 H 24 c 0.6,0 1,-0.4 1,-1 v -1 c -0.1,-0.6 -0.5,-1 -1.1,-1 z"
       id="path10"
       style="fill:#ffffff" />
  </g>
</svg>
