<?xml version="1.0" encoding="UTF-8" standalone="no"?>
<svg
   xmlns:dc="http://purl.org/dc/elements/1.1/"
   xmlns:cc="http://creativecommons.org/ns#"
   xmlns:rdf="http://www.w3.org/1999/02/22-rdf-syntax-ns#"
   xmlns:svg="http://www.w3.org/2000/svg"
   xmlns="http://www.w3.org/2000/svg"
   xmlns:sodipodi="http://sodipodi.sourceforge.net/DTD/sodipodi-0.dtd"
   xmlns:inkscape="http://www.inkscape.org/namespaces/inkscape"
   width="164.4987"
   height="218.09772"
   viewBox="0 0 164.4987 218.09772"
   version="1.1"
   id="svg7"
   sodipodi:docname="icons_pressfreedom_d3a.svg"
   inkscape:version="0.92.4 (5da689c313, 2019-01-14)">
  <metadata
     id="metadata11">
    <rdf:RDF>
      <cc:Work
         rdf:about="">
        <dc:format>image/svg+xml</dc:format>
        <dc:type
           rdf:resource="http://purl.org/dc/dcmitype/StillImage" />
      </cc:Work>
    </rdf:RDF>
  </metadata>
  <sodipodi:namedview
     pagecolor="#ffffff"
     bordercolor="#666666"
     borderopacity="1"
     objecttolerance="10"
     gridtolerance="10"
     guidetolerance="10"
     inkscape:pageopacity="0"
     inkscape:pageshadow="2"
     inkscape:window-width="640"
     inkscape:window-height="480"
     id="namedview9"
     showgrid="false"
     inkscape:zoom="6.4296875"
     inkscape:cx="56.935058"
     inkscape:cy="109.09772"
     inkscape:current-layer="svg7" />
  <defs
     id="defs4">
    <style
       id="style2">
      .cls-1 {
        fill-rule: evenodd;
      }
    </style>
  </defs>
  <path
     id="IconGraphic"
     class="cls-1"
     d="m 163.20081,120.558 c -2.822,4.251 -4.24,9.171 -8.77,12.442 -4.977,3.594 -17.422,2.055 -25,0 -5.113,-1.386 -5.483,-10.4 -3.765,-13.79 1.279,-2.522 11.5,-4.305 15.766,-5.831 4.266,-1.526 10.986,-9.3 11.733,-8.975 0.747,0.325 5.666,-0.742 8.109,1.039 2.443,1.781 4.749,10.865 1.927,15.115 z m -33.332,-8.8 -0.986,-2.992 a 13.268,13.268 0 0 1 3.235,-0.769 l 1.007,3.1 a 18.386,18.386 0 0 0 -3.256,0.66 z m 4.562,-5.758 c -8.089,-0.433 -17.049,-15.935 -13,-20 4.682,-1.54 17,-4.55 20.116,-10.222 3.116,-5.672 4.064,-7.312 4.064,-7.312 a 7.78,7.78 0 0 1 7.933,1.87 c 3.577,3.543 3.978,12.307 1.154,19.3 -2.824,6.993 -14.58,16.669 -20.267,16.364 z m -2.908,-29.621 c -2.847,1.963 -13.114,9.735 -17.092,4.621 -3.978,-5.114 -10.115,-16.214 -10.271,-25.426 2,-3.568 11.957,-7.178 16.876,-7.413 4.919,-0.235 11.111,-7.236 14.8,-5.948 3.689,1.288 8.885,7 7.423,14.8 -1.462,7.8 -8.889,17.402 -11.736,19.366 z m -26.38,-39.618 c 1.067,-0.671 2.116,-1.383 3.132,-2.161 l 3.568,10.982 a 9.2,9.2 0 0 0 -3.167,1.9 z m -6.135005,20.755 -5.225,-15.848 a 39.885,39.885 0 0 0 6.892005,-2.492 l 4.206,12.757 c -0.734,0.962 -1.528,1.992 -2.45,3.067 a 9.589,9.589 0 0 1 -3.423005,2.515 z M 97.430805,29 c -2.523,1.336 0.152,4.813 -2,6 -2.152,1.187 -3.329,-3.074 -6,-3 -2.671,0.074 -2,2.946 -3.342,3.075 -0.594,0.057 -1.2,0.054 -1.8,0.082 l -0.37,-15.2 a 34.977,34.977 0 0 0 11.551,-3.9 l 8.879005,11.838 c -0.862,0.654 -1.738,1.282 -2.64,1.851 -0.757,0.471 -1.755005,-2.082 -4.278005,-0.746 z m -14,-29 7.89,10.52 a 31.118,31.118 0 0 1 -7.571,2.555 z m 1.616,42.925 c 1.275,-0.042 2.533,-0.161 3.781,-0.317 l 5.286,16.031 a 21.9,21.9 0 0 1 -4.082,-0.15 z m 15.484005,22.591 c 3.738,3.289 4.72,16.219 21.61,37.528 1.693,3.367 0.7,4.975 -3.92,6.474 -4.62,1.499 -16.617,6.186 -22.372005,-8.106 -1.551,-4.383 1.542,-8.505 1.542,-8.505 0,0 -5.689,3.065 -9.368,-3.8 -3.679,-6.865 -2.953,-3.852 -2.953,-3.852 0,0 -7.08,3.239 -9.114,4.916 -2.034,1.677 -0.489,3.515 3.377,6.517 3.866,3.002 15.635,13.822 18.214,20.637 2.024,4.272 -2.81,9.315 -3.213,12.68 -0.403,3.365 -2.342,14.8 0.8,15.848 3.142,1.048 6.173005,-10.57 7.883005,-18.214 1.245,-5.561 1.919,-7.323 2.924,-7.9 l 12.18,41.414 c -2.929,0.847 -6.338,-0.363 -8.7,2.359 -2.362,2.722 -8.677,10.736 -15.372005,13.774 -4.226,1.956 -6.875,-2.671 -6.875,-2.671 0,0 -18.912,33.036 -20.743,38.385 -1.831,5.349 -0.966,5.271 -11,5 -10.034,-0.271 -54.99999973,0 -54.99999973,0 0,0 0.266,-43.56 -0.425,-47.107 -0.489,-2.511 30.06399973,-19.1 35.14599973,-22.434 5.082,-3.334 6.748,-12.681 8.637,-17.193 1.889,-4.512 4.672,-8.756 5.954,-17.519 1.282,-8.763 6.671,-32.471 8.633,-37.1 1.962,-4.629 13.145,-5.5 23.384,-8.3 10.239,-2.8 15.034,-6.118 18.771005,-2.831 z m 17.71,50.332 c 0.4,-0.268 0.8,-0.549 1.191,-0.848 1.818,-1.39 3.425,-2.685 5,-3.78 l 0.95,2.881 a 10.108,10.108 0 0 0 -0.946,0.9 15.871,15.871 0 0 0 -3.727,8.321 z m -4.543,2.188 26.733,81.079 c -4.965,-0.407 -7,-3.115 -7,-3.115 v -2 l -24.23,-75.656 a 9.8,9.8 0 0 0 4.496,-0.308 z m 26.733,45.964 c 0.463,-0.024 0.918,-0.056 1.367,-0.093 l 10.7,32.441 a 27.545,27.545 0 0 1 -4.067,1.652 25.77,25.77 0 0 1 -2.862,0.741 l -12.164,-36.894 a 9.653,9.653 0 0 0 7.026,2.153 z m 9.421,-1.41 8.579,26.41 c 0,0 0.314,1.925 -1.7,4.227 l -9.888,-29.994 c 1.049,-0.194 2.054,-0.411 3.009,-0.643 z m -21.621,-19.231 c -0.161,0.489 -0.319,0.94 -0.476,1.36 l -2.706,-8.21 a 17.484,17.484 0 0 0 6.157,2.946 6.759,6.759 0 0 0 -2.975,3.904 z m 14.26,-3.419 v 0 z m -4.06,18.06 -0.74,0.517 c -1.278,0.036 -2,0.34 -4.4,-2.3 a 1.463,1.463 0 0 0 -0.259,-1.009 c -1.772,-2.794 -4.187,-5.9 -2.97,-9.164 1.217,-3.264 3.771,-4.874 9.929,-3.963 6.158,0.911 7.543,2.349 11.129,-0.3 3.586,-2.649 7.169,-6.646 9.5,-6.657 2.331,-0.011 1.914,4.87 1.036,9.787 -0.878,4.917 -11.42,21.066 -23.225,13.089 z"
     style="fill:#ffffff;fill-rule:evenodd"
     inkscape:connector-curvature="0" />
</svg>
