<?xml version="1.0" encoding="UTF-8" standalone="no"?>
<svg
   id="Layer_1"
   height="512"
   viewBox="0 0 66 66"
   width="512"
   version="1.1"
   sodipodi:docname="icons_authoritarianism.svg"
   inkscape:version="1.4 (86a8ad7, 2024-10-11)"
   xmlns:inkscape="http://www.inkscape.org/namespaces/inkscape"
   xmlns:sodipodi="http://sodipodi.sourceforge.net/DTD/sodipodi-0.dtd"
   xmlns="http://www.w3.org/2000/svg"
   xmlns:svg="http://www.w3.org/2000/svg">
  <defs
     id="defs5" />
  <sodipodi:namedview
     id="namedview5"
     pagecolor="#ffffff"
     bordercolor="#000000"
     borderopacity="0.25"
     inkscape:showpageshadow="2"
     inkscape:pageopacity="0.0"
     inkscape:pagecheckerboard="true"
     inkscape:deskcolor="#d1d1d1"
     inkscape:zoom="3.5449219"
     inkscape:cx="256"
     inkscape:cy="256"
     inkscape:window-width="3840"
     inkscape:window-height="2054"
     inkscape:window-x="3825"
     inkscape:window-y="-15"
     inkscape:window-maximized="1"
     inkscape:current-layer="Layer_1" />
  <g
     id="g5">
    <path
       d="m 17.3,18.2 c 3.6,0 6.3,-3.9 6.3,-7.3 0,-3.5 -2.8,-6.3 -6.3,-6.3 -3.5,0 -6.3,2.8 -6.3,6.3 -0.1,3.4 2.7,7.3 6.3,7.3 z"
       id="path1"
       style="fill:#ffffff" />
    <path
       d="m 40.3,19.2 c -0.2,0 -2,0.3 -18.4,0.5 -0.4,0 -0.7,0.2 -0.9,0.6 -0.8,1.8 -1.9,3.4 -3.1,4.9 H 16.6 C 15.3,23.7 14.3,22 13.5,20.3 13.3,20 13,19.7 12.6,19.7 H 8.4 c -3.2,0 -5.7,2.6 -5.7,5.7 v 15 c 0,1.6 1.3,3 3,3 H 8.6 V 64 c 0,0.5 0.4,1 1,1 h 4.9 c 0.5,0 0.9,-0.4 1,-0.9 l 1,-17.6 H 18 l 1,17.6 c 0,0.5 0.5,0.9 1,0.9 h 4.9 c 0.5,0 1,-0.4 1,-1 L 25.8,31 c 0,-0.8 0.3,-1.5 0.9,-1.9 2.8,-2.4 10.4,-1.9 14.1,-3 2.4,-0.7 3.1,-2.5 3,-3.8 -0.2,-2.1 -2.1,-3.3 -3.5,-3.1 z"
       id="path2"
       style="fill:#ffffff" />
    <path
       d="M 62.9,8.4 57.1,2.9 C 56.9,2.7 56.7,2.6 56.4,2.6 H 42 V 2 C 42,1.5 41.6,1 41,1 40.5,1 40,1.5 40,2 v 15.2 h 0.6 c 0.5,0 1,0.1 1.4,0.2 v -1.8 h 14.4 c 0.3,0 0.5,-0.1 0.7,-0.3 l 5.8,-5.5 c 0.2,-0.2 0.3,-0.4 0.3,-0.7 0,-0.3 -0.1,-0.5 -0.3,-0.7 z"
       id="path3"
       style="fill:#ffffff" />
    <path
       d="M 40,28.2 V 64 c 0,0.6 0.5,1 1,1 0.6,0 1,-0.4 1,-1 V 27.7 c -0.2,0.1 -0.4,0.2 -0.7,0.2 -0.4,0.1 -0.8,0.2 -1.3,0.3 z"
       id="path4"
       style="fill:#ffffff" />
  </g>
</svg>
