<?xml version="1.0" encoding="UTF-8" standalone="no"?>
<svg
   enable-background="new 0 0 512 512"
   height="512"
   viewBox="0 0 512 512"
   width="512"
   version="1.1"
   id="svg7"
   sodipodi:docname="icons_hedonism.svg"
   inkscape:version="1.4 (86a8ad7, 2024-10-11)"
   xmlns:inkscape="http://www.inkscape.org/namespaces/inkscape"
   xmlns:sodipodi="http://sodipodi.sourceforge.net/DTD/sodipodi-0.dtd"
   xmlns="http://www.w3.org/2000/svg"
   xmlns:svg="http://www.w3.org/2000/svg">
  <defs
     id="defs7" />
  <sodipodi:namedview
     id="namedview7"
     pagecolor="#ffffff"
     bordercolor="#000000"
     borderopacity="0.25"
     inkscape:showpageshadow="2"
     inkscape:pageopacity="0.0"
     inkscape:pagecheckerboard="0"
     inkscape:deskcolor="#d1d1d1"
     inkscape:zoom="3.5449219"
     inkscape:cx="256"
     inkscape:cy="256"
     inkscape:window-width="3840"
     inkscape:window-height="2054"
     inkscape:window-x="3825"
     inkscape:window-y="-15"
     inkscape:window-maximized="1"
     inkscape:current-layer="svg7" />
  <g
     id="g7">
    <path
       d="m189.673 144.978c28.436 0 51.6-23.164 51.6-51.6 0-28.489-23.164-51.653-51.6-51.653-28.489 0-51.653 23.164-51.653 51.653.001 28.436 23.164 51.6 51.653 51.6z"
       id="path1"
       style="fill:#ffffff" />
    <path
       d="m465.151 73.866c-.299-4.699-6.06-6.779-9.291-3.354l-24.863 26.347c11.05 7.306 23.278 11.825 36.472 13.45z"
       id="path2"
       style="fill:#ffffff" />
    <path
       d="m470.313 154.895-2.159-33.812c-16.215-1.669-31.178-7.165-44.561-16.379l-23.161 24.552c19.59 19.044 43.055 27.644 69.881 25.639z"
       id="path3"
       style="fill:#ffffff" />
    <path
       d="m471.002 165.618c-30.174 2.195-56.639-8.047-77.88-28.618l-7.812 8.274c-1.928 2.042-1.932 5.199-.084 7.314 21.834 24.986 49.11 34.827 81.867 29.536 2.772-.448 4.785-2.88 4.605-5.682z"
       id="path4"
       style="fill:#ffffff" />
    <path
       d="m308.476 236.25c27.923 81.019 44.271 199.596-15.177 261.887-13.371 14.138-36.175 18.697-55.114 6.071 23.91-32.643 35.944-70.025 35.731-111.454-.053-2.929-2.396-5.272-5.378-5.272-2.929 0-5.325 2.396-5.272 5.378-1.205 7.942 3.087 54.744-33.654 104.957-14.111 13.259-34.985 16.508-52.718 7.828-24.655-12.248-46.914-31.897-66.351-58.469-4.473-2.822-10.331-2.556-14.697.746l-14.005 10.65c-8.413 6.496-21.513 6.23-29.82-.799-9.905-8.467-11.183-23.43-2.769-33.388l33.282-39.831c9.041-10.848 25.046-11.049 34.826-1.704 21.14 20.555 39.991 35.305 57.457 44.997 7.768 4.278 17.237.351 19.809-8.147 23.605-79.742 19.263-163.483-50.641-207.838l-90.687-57.512c-10.597-6.763-15.496-19.863-11.768-31.897 5.324-17.748 26.406-25.57 42.068-15.39l87.544 56.659c8.201 5.272 18.584 5.804 27.211 1.438l41.429-21.087c8.467-4.313 14.005-12.514 14.804-22.046l8.254-97.715c1.118-13.419 12.567-23.91 25.986-23.91 15.617 0 27.758 13.687 25.986 29.075l-13.152 115.288c-5.378 31.365-3.035 62.889 6.816 91.485z"
       id="path5"
       style="fill:#ffffff" />
    <path
       d="m465.672 250.894-21.3 38.394c-1.811 8.496-12.327 12.301-20.981 12.301-9.016 0-19.053-4.251-19.49-12.887-.373-7.828 8.094-14.165 19.703-14.697 6.017-.319 11.342 1.012 15.123 3.515l17.626-31.791-39.246-1.225-26.04 47.073c-2 8.137-12.485 11.302-21.194 10.384-11.555-1.012-19.756-7.721-19.064-15.549s9.958-12.94 21.513-11.875c5.431.479 10.064 2.236 13.419 4.686l22.152-39.991c1.917-3.461 5.751-5.538 9.585-5.378l39.352 1.491c3.728.107 6.976 2.13 8.786 5.325 1.814 3.195 1.814 7.029.056 10.224z"
       id="path6"
       style="fill:#ffffff" />
    <path
       d="m453.797 366.981c.532 2.875-1.331 5.645-4.26 6.177l-38.713 7.349-14.857 51.76c-.16 7.135-7.615 13.366-18.372 14.804-9.602 1.373-20.778-1.972-22.046-10.916-1.065-7.775 6.816-14.804 18.372-16.401 5.378-.745 10.277-.053 14.111 1.651l12.674-43.932c1.118-3.834 4.26-6.656 8.148-7.402l38.713-7.349c2.876-.534 5.698 1.33 6.23 4.259z"
       id="path7"
       style="fill:#ffffff" />
  </g>
</svg>
