<?xml version="1.0" encoding="UTF-8" standalone="no"?>
<svg
   xmlns:dc="http://purl.org/dc/elements/1.1/"
   xmlns:cc="http://creativecommons.org/ns#"
   xmlns:rdf="http://www.w3.org/1999/02/22-rdf-syntax-ns#"
   xmlns:svg="http://www.w3.org/2000/svg"
   xmlns="http://www.w3.org/2000/svg"
   id="svg8"
   version="1.1"
   viewBox="0 0 256 256"
   height="256mm"
   width="256mm">
  <defs
     id="defs2">
    <style
       id="style2">
      .cls-1 {
        fill-rule: evenodd;
      }
    </style>
    <style
       id="style2-2">
      .cls-1 {
        fill-rule: evenodd;
      }
    </style>
    <style
       id="style2-1">
      .cls-1 {
        fill-rule: evenodd;
      }
    </style>
    <style
       id="style2-5">
      .cls-1 {
        fill-rule: evenodd;
      }
    </style>
    <style
       id="style2-12">
      .cls-1 {
        fill-rule: evenodd;
      }
    </style>
  </defs>
  <metadata
     id="metadata5">
    <rdf:RDF>
      <cc:Work
         rdf:about="">
        <dc:format>image/svg+xml</dc:format>
        <dc:type
           rdf:resource="http://purl.org/dc/dcmitype/StillImage" />
        <dc:title></dc:title>
      </cc:Work>
    </rdf:RDF>
  </metadata>
  <path
     id="path34"
     style="fill:#ffffff;stroke:#ffffff;stroke-width:0.485658px;stroke-linecap:butt;stroke-linejoin:miter;stroke-opacity:1"
     d="M 121.41851,1.5046971 106.10239,3.3462954 89.909497,7.3497286 77.30513,12.153284 l -11.487093,6.00373 -17.470179,12.249768 -9.572573,8.966632 -3.988102,4.242897 -6.541734,7.765506 -9.173004,13.449945 -5.664012,11.608343 -2.393617,6.004683 25.367798,0.240412 5.823078,-10.567812 5.344925,-7.365445 6.381716,-7.526041 11.247532,-10.487043 7.897615,-5.604619 12.523883,-6.884616 16.433377,-5.845035 11.25986,-2.425058 z m 14.08049,0.039906 7.93643,25.0193319 16.03476,3.282193 15.0766,6.124407 10.45028,6.044586 10.0905,7.805418 10.45029,10.40817 11.56664,16.491722 3.07157,5.764263 25.84593,0.12069 -3.23064,-7.84628 L 236.13032,62.190045 230.8252,54.26395 219.61742,40.6135 211.84005,33.088409 200.9116,24.521837 188.14815,16.436097 177.45833,11.232483 158.59249,4.8676586 148.70083,2.8255566 Z M 128.59841,2.1451672 100.67794,89.970817 8.9412326,89.169761 83.527779,143.13013 l -29.196825,86.7842 74.346996,-54.28065 73.46927,54.68071 -28.63724,-87.18426 74.31481,-53.803571 -91.785,0.363938 z M 250.53276,95.892837 229.831,111.12071 l 0.95915,8.88872 0.22534,15.56711 -2.65116,16.81385 -5.52767,15.90732 -5.69713,11.88772 -8.63048,12.17187 -8.35586,9.456 7.8976,24.338 10.29029,-9.60709 9.97118,-11.3689 9.17396,-12.96912 7.91276,-16.2665 3.32815,-9.90645 4.51265,-19.30447 0.67698,-6.56628 0.28219,-10.75595 -0.22536,-13.47373 -2.03098,-12.56716 z M 6.5476142,96.05533 l -1.3558752,4.72278 -1.5158966,9.84752 -0.876774,9.44745 -0.3995673,15.69163 1.2763413,10.96785 1.914515,9.36671 1.9949989,8.32615 2.9513067,8.7262 3.270392,7.68569 4.706752,9.12725 7.897612,12.48921 4.705802,6.00468 7.578525,8.6464 9.89166,8.6863 8.2167,-24.13846 -6.900584,-7.00433 -11.128237,-16.45275 -5.38469,-11.56844 -4.346956,-12.08917 -1.515898,-7.48519 -1.754498,-12.64984 0.19884,-17.01246 1.276344,-6.00466 z m 74.5070108,123.13059 -20.661039,15.21172 9.242123,5.73859 4.343164,2.15139 10.096188,4.18872 17.317719,5.32145 14.891,2.32148 9.19479,0.62242 13.14218,-0.45232 12.86097,-1.52896 14.94777,-3.62335 12.97364,-5.03827 10.37928,-5.20835 6.59949,-4.30179 -20.83811,-15.40273 -5.70376,3.04272 -6.06167,2.50964 -15.3985,4.5289 -17.43043,1.98128 -18.95293,-1.30186 -19.008815,-5.15133 z" />
</svg>
