<?xml version="1.0" encoding="UTF-8" standalone="no"?>
<svg
   id="Capa_1"
   enable-background="new 0 0 512 512"
   height="512"
   viewBox="0 0 512 512"
   width="512"
   version="1.1"
   sodipodi:docname="icons_racialequality.svg"
   inkscape:version="1.4 (86a8ad7, 2024-10-11)"
   xmlns:inkscape="http://www.inkscape.org/namespaces/inkscape"
   xmlns:sodipodi="http://sodipodi.sourceforge.net/DTD/sodipodi-0.dtd"
   xmlns="http://www.w3.org/2000/svg"
   xmlns:svg="http://www.w3.org/2000/svg">
  <defs
     id="defs5" />
  <sodipodi:namedview
     id="namedview5"
     pagecolor="#ffffff"
     bordercolor="#000000"
     borderopacity="0.25"
     inkscape:showpageshadow="2"
     inkscape:pageopacity="0.0"
     inkscape:pagecheckerboard="0"
     inkscape:deskcolor="#d1d1d1"
     inkscape:zoom="3.5449219"
     inkscape:cx="256"
     inkscape:cy="256"
     inkscape:window-width="3840"
     inkscape:window-height="2054"
     inkscape:window-x="3825"
     inkscape:window-y="-15"
     inkscape:window-maximized="1"
     inkscape:current-layer="Capa_1" />
  <g
     id="g5">
    <path
       d="M 497,512 H 15 C 6.716,512 0,505.284 0,497 v -85 h 512 v 85 c 0,8.284 -6.716,15 -15,15 z"
       id="path1"
       style="fill:#ffffff" />
    <path
       d="m 497,0 h -91 c -8.284,0 -15,6.716 -15,15 V 382 H 512 V 15 C 512,6.716 505.284,0 497,0 Z m -30.5,281 c 0,8.284 -6.716,15 -15,15 -8.284,0 -15,-6.716 -15,-15 V 101 c 0,-8.284 6.716,-15 15,-15 8.284,0 15,6.716 15,15 z"
       id="path2"
       style="fill:#ffffff" />
    <path
       d="M 106,0 H 15 C 6.716,0 0,6.716 0,15 V 382 H 121 V 15 C 121,6.716 114.284,0 106,0 Z M 75.5,281 c 0,8.284 -6.716,15 -15,15 -8.284,0 -15,-6.716 -15,-15 V 101 c 0,-8.284 6.716,-15 15,-15 8.284,0 15,6.716 15,15 z"
       id="path3"
       style="fill:#ffffff" />
    <path
       d="m 151,382 h 30 V 272 c 0,-8.284 6.716,-15 15,-15 8.284,0 15,6.716 15,15 V 382 H 361 V 162 H 151 Z M 256,257 h 60 c 8.284,0 15,6.716 15,15 0,8.284 -6.716,15 -15,15 h -60 c -8.284,0 -15,-6.716 -15,-15 0,-8.284 6.716,-15 15,-15 z"
       id="path4"
       style="fill:#ffffff" />
  </g>
</svg>
