<?xml version="1.0" encoding="UTF-8" standalone="no"?>
<svg
   xmlns:dc="http://purl.org/dc/elements/1.1/"
   xmlns:cc="http://creativecommons.org/ns#"
   xmlns:rdf="http://www.w3.org/1999/02/22-rdf-syntax-ns#"
   xmlns:svg="http://www.w3.org/2000/svg"
   xmlns="http://www.w3.org/2000/svg"
   xmlns:sodipodi="http://sodipodi.sourceforge.net/DTD/sodipodi-0.dtd"
   xmlns:inkscape="http://www.inkscape.org/namespaces/inkscape"
   width="238"
   height="220"
   viewBox="0 0 238 220"
   version="1.1"
   id="svg7"
   sodipodi:docname="icons_immigrationtax.svg"
   inkscape:version="1.0.2-2 (e86c870879, 2021-01-15)">
  <sodipodi:namedview
     pagecolor="#ffffff"
     bordercolor="#666666"
     borderopacity="1"
     objecttolerance="10"
     gridtolerance="10"
     guidetolerance="10"
     inkscape:pageopacity="0"
     inkscape:pageshadow="2"
     inkscape:window-width="708"
     inkscape:window-height="510"
     id="namedview21"
     showgrid="false"
     inkscape:pagecheckerboard="true"
     inkscape:zoom="1.1811897"
     inkscape:cx="105.12541"
     inkscape:cy="100.07026"
     inkscape:window-x="0"
     inkscape:window-y="0"
     inkscape:window-maximized="0"
     inkscape:current-layer="svg7" />
  <metadata
     id="metadata11">
    <rdf:RDF>
      <cc:Work
         rdf:about="">
        <dc:format>image/svg+xml</dc:format>
        <dc:type
           rdf:resource="http://purl.org/dc/dcmitype/StillImage" />
        <dc:title></dc:title>
      </cc:Work>
    </rdf:RDF>
  </metadata>
  <defs
     id="defs4">
    <style
       id="style2">
      .cls-1 {
        fill-rule: evenodd;
      }
    </style>
    <style
       id="style2-1">
      .cls-1 {
        fill-rule: evenodd;
      }
    </style>
    <style
       id="style2-3">
      .cls-1 {
        fill-rule: evenodd;
      }
    </style>
    <style
       id="style2-6">
      .cls-1 {
        fill-rule: evenodd;
      }
    </style>
    <style
       id="style2-7">
      .cls-1 {
        fill-rule: evenodd;
      }
    </style>
    <style
       id="style2-65">
      .cls-1 {
        fill-rule: evenodd;
      }
    </style>
    <style
       id="style2-16">
      .cls-1 {
        fill-rule: evenodd;
      }
    </style>
    <style
       id="style2-79">
      .cls-1 {
        fill-rule: evenodd;
      }
    </style>
    <style
       id="style2-9">
      .cls-1 {
        fill-rule: evenodd;
      }
    </style>
    <style
       id="style2-99">
      .cls-1, .cls-2 {
        fill-rule: evenodd;
      }

      .cls-2 {
        opacity: 0.79;
      }
    </style>
    <style
       id="style2-9-5">
      .cls-1 {
        fill-rule: evenodd;
      }
    </style>
    <style
       id="style2-6-4">
      .cls-1 {
        fill-rule: evenodd;
      }
    </style>
    <style
       id="style2-8">
      .cls-1 {
        fill-rule: evenodd;
      }
    </style>
  </defs>
  <path
     id="IconGraphic"
     class="cls-1"
     d="m 145.11181,117.45281 v 17.35135 H 132.05577 V 117.45281 H 116.20243 V 103.1631 h 15.85334 V 85.811743 h 13.05604 V 103.1631 h 15.85331 v 14.28971 z m -38.9309,15.11817 h -3.4534 v 48.9193 a 7.4526646,8.1568783 0 0 1 -14.905326,0 v -48.9193 h -2.709813 v 48.9193 a 7.4526595,8.1568725 0 0 1 -14.905319,0 v -48.9193 h -2.775958 a 4.6767019,5.1186107 0 0 1 -4.676699,-5.11859 V 73.173912 a 4.6767019,5.1186107 0 0 1 4.676699,-5.118623 h 38.749816 a 4.6767019,5.1186107 0 0 1 4.67671,5.118623 v 54.278478 a 4.6767019,5.1186107 0 0 1 -4.67671,5.11859 z M 86.805999,63.631358 A 15.922831,17.427407 0 1 1 102.72817,46.203954 15.922831,17.427407 0 0 1 86.805999,63.631358 Z M 41.375186,124.28906 H 1.9572684 V 99.251745 H 41.375186 L 41.26829,91.661588 58.745795,111.40478 41.26829,131.8792 Z"
     style="fill:#ffffff;fill-rule:evenodd;stroke:#ffffff;stroke-width:0.698954;stroke-opacity:1" />
  <g
     id="layer1"
     transform="matrix(0.85325611,0,0,0.83533814,155.7899,1.6512474)">
    <path
       style="fill:#ffffff;fill-rule:evenodd;stroke:#fdfdfd;stroke-width:1.0169;stroke-opacity:1"
       d="m 67.832251,122.04889 c 7.325753,4.47436 12.321449,7.90131 14.987076,10.28086 2.967228,2.82689 5.270571,6.27669 6.744087,10.10088 1.830409,4.35367 2.745613,9.77713 2.745613,16.27038 0,10.38999 -2.474453,18.54247 -7.423371,24.45745 -4.948895,5.91496 -12.372255,9.57038 -22.27009,10.96625 v 10.96626 H 49.348081 v -11.3293 c -7.536689,-0.69247 -14.635215,-3.84896 -20.197646,-8.98126 -5.756339,-5.22008 -8.634854,-14.32269 -8.635546,-27.30782 v -5.69973 h 28.833192 v 7.14273 c 0,7.84028 0.297271,12.71021 0.891815,14.6098 0.594555,1.89956 2.033801,2.84866 4.317751,2.8473 1.693769,0.12028 3.332926,-0.62674 4.353347,-1.98395 1.068103,-1.7668 1.565252,-3.82002 1.423669,-5.87971 0,-6.54071 -0.45219,-11.21845 -1.35656,-14.03322 -0.904358,-2.81478 -3.996743,-5.88107 -9.277168,-9.19887 -8.803632,-5.57872 -14.78673,-9.68022 -17.949294,-12.3045 -3.496369,-3.06223 -6.295132,-6.83889 -8.20738,-11.07506 -2.37042,-5.0525 -3.553091,-10.58048 -3.457448,-16.16057 0,-8.704668 2.438522,-15.534501 7.315565,-20.489509 4.877044,-4.955014 12.192274,-8.009102 21.945703,-9.162266 v -9.299549 h 13.274604 v 9.306666 c 8.895826,1.152489 15.556512,4.169291 19.982057,9.050409 4.425545,4.881117 6.637989,11.626555 6.63733,20.236309 0,1.20265 -0.09496,3.03036 -0.284796,5.48311 H 60.124084 v -4.8333 c 0,-5.1462 -0.332868,-8.513148 -0.998594,-10.100885 -0.665726,-1.587715 -2.093111,-2.38123 -4.282154,-2.380564 -1.597792,-0.08808 -3.117092,0.699628 -3.96589,2.056176 -1.004587,1.893635 -1.462334,4.029495 -1.321978,6.168503 0,4.56996 0.904023,7.76845 2.712059,9.59548 1.764649,1.8311 6.95288,5.3916 15.564691,10.6815 z"
       class="cls-1"
       id="IconGraphic-0" />
  </g>
</svg>
