<?xml version="1.0" encoding="UTF-8" standalone="no"?>
<svg
   viewBox="0 0 512 512"
   version="1.1"
   id="svg3"
   sodipodi:docname="icons_relativism.svg"
   inkscape:version="1.4 (86a8ad7, 2024-10-11)"
   xmlns:inkscape="http://www.inkscape.org/namespaces/inkscape"
   xmlns:sodipodi="http://sodipodi.sourceforge.net/DTD/sodipodi-0.dtd"
   xmlns="http://www.w3.org/2000/svg"
   xmlns:svg="http://www.w3.org/2000/svg">
  <defs
     id="defs3" />
  <sodipodi:namedview
     id="namedview3"
     pagecolor="#ffffff"
     bordercolor="#000000"
     borderopacity="0.25"
     inkscape:showpageshadow="2"
     inkscape:pageopacity="0.0"
     inkscape:pagecheckerboard="0"
     inkscape:deskcolor="#d1d1d1"
     inkscape:zoom="3.5449219"
     inkscape:cx="256"
     inkscape:cy="256"
     inkscape:window-width="3840"
     inkscape:window-height="2054"
     inkscape:window-x="3825"
     inkscape:window-y="-15"
     inkscape:window-maximized="1"
     inkscape:current-layer="svg3" />
  <g
     id="g3">
    <path
       d="m264.441406 260.1875c16.035156-13.730469 26.226563-34.101562 26.226563-56.820312 0-41.257813-33.566407-74.824219-74.820313-74.824219-19.988281 0-38.777344 7.78125-52.910156 21.914062-14.132812 14.132813-21.914062 32.921875-21.914062 52.910157 0 19.984374 7.78125 38.773437 21.914062 52.90625 1.378906 1.378906 2.8125 2.679687 4.277344 3.9375-16.59375 8.710937-30.722656 21.804687-40.679688 38.027343 22.226563 24.074219 54.035156 39.179688 89.3125 39.179688 35.269532 0 67.078125-15.105469 89.308594-39.183594-9.964844-16.230469-24.105469-29.332031-40.714844-38.046875zm0 0"
       id="path1"
       style="fill:#ffffff" />
    <path
       d="m431.6875 215.84375c0-57.652344-22.453125-111.855469-63.21875-152.625-40.769531-40.765625-94.96875-63.21875-152.625-63.21875-57.652344 0-111.855469 22.453125-152.625 63.21875-40.765625 40.765625-63.21875 94.972656-63.21875 152.625 0 57.65625 22.449219 111.859375 63.21875 152.628906 40.769531 40.765625 94.972656 63.21875 152.625 63.21875s111.855469-22.453125 152.625-63.21875c40.765625-40.769531 63.21875-94.972656 63.21875-152.628906zm-215.84375 151.574219c-83.578125 0-151.574219-67.996094-151.574219-151.574219s67.996094-151.574219 151.574219-151.574219 151.574219 67.996094 151.574219 151.574219-67.992188 151.574219-151.574219 151.574219zm0 0"
       id="path2"
       style="fill:#ffffff" />
    <path
       d="m495.867188 417.847656-71.546876-71.550781c-9.765624 15.539063-21.34375 30.09375-34.636718 43.390625-13.296875 13.292969-27.847656 24.867188-43.386719 34.632812l71.550781 71.550782c10.753906 10.75 24.882813 16.128906 39.007813 16.128906 14.128906 0 28.257812-5.378906 39.015625-16.132812 21.503906-21.511719 21.503906-56.511719-.003906-78.019532zm0 0"
       id="path3"
       style="fill:#ffffff" />
  </g>
</svg>
