<?xml version="1.0" encoding="UTF-8" standalone="no"?>
<svg
   xmlns:dc="http://purl.org/dc/elements/1.1/"
   xmlns:cc="http://creativecommons.org/ns#"
   xmlns:rdf="http://www.w3.org/1999/02/22-rdf-syntax-ns#"
   xmlns:svg="http://www.w3.org/2000/svg"
   xmlns="http://www.w3.org/2000/svg"
   xmlns:sodipodi="http://sodipodi.sourceforge.net/DTD/sodipodi-0.dtd"
   xmlns:inkscape="http://www.inkscape.org/namespaces/inkscape"
   width="238"
   height="220"
   viewBox="0 0 238 220"
   version="1.1"
   id="svg7"
   sodipodi:docname="icons_drivingage.svg"
   inkscape:version="1.0.2-2 (e86c870879, 2021-01-15)">
  <sodipodi:namedview
     pagecolor="#ffffff"
     bordercolor="#666666"
     borderopacity="1"
     objecttolerance="10"
     gridtolerance="10"
     guidetolerance="10"
     inkscape:pageopacity="0"
     inkscape:pageshadow="2"
     inkscape:window-width="1438"
     inkscape:window-height="875"
     id="namedview21"
     showgrid="false"
     inkscape:pagecheckerboard="true"
     inkscape:zoom="1.6704545"
     inkscape:cx="85.475114"
     inkscape:cy="119.29776"
     inkscape:window-x="0"
     inkscape:window-y="0"
     inkscape:window-maximized="0"
     inkscape:current-layer="svg7"
     inkscape:document-rotation="0" />
  <metadata
     id="metadata11">
    <rdf:RDF>
      <cc:Work
         rdf:about="">
        <dc:format>image/svg+xml</dc:format>
        <dc:type
           rdf:resource="http://purl.org/dc/dcmitype/StillImage" />
        <dc:title />
      </cc:Work>
    </rdf:RDF>
  </metadata>
  <defs
     id="defs4">
    <style
       id="style2">
      .cls-1 {
        fill-rule: evenodd;
      }
    </style>
    <style
       id="style2-1">
      .cls-1 {
        fill-rule: evenodd;
      }
    </style>
    <style
       id="style2-3">
      .cls-1 {
        fill-rule: evenodd;
      }
    </style>
    <style
       id="style2-6">
      .cls-1 {
        fill-rule: evenodd;
      }
    </style>
    <style
       id="style2-7">
      .cls-1 {
        fill-rule: evenodd;
      }
    </style>
    <style
       id="style2-65">
      .cls-1 {
        fill-rule: evenodd;
      }
    </style>
    <style
       id="style2-16">
      .cls-1 {
        fill-rule: evenodd;
      }
    </style>
    <style
       id="style2-79">
      .cls-1 {
        fill-rule: evenodd;
      }
    </style>
    <style
       id="style2-9">
      .cls-1 {
        fill-rule: evenodd;
      }
    </style>
    <style
       id="style2-99">
      .cls-1, .cls-2 {
        fill-rule: evenodd;
      }

      .cls-2 {
        opacity: 0.79;
      }
    </style>
    <style
       id="style2-9-5">
      .cls-1 {
        fill-rule: evenodd;
      }
    </style>
    <style
       id="style2-6-4">
      .cls-1 {
        fill-rule: evenodd;
      }
    </style>
    <style
       id="style2-8">
      .cls-1 {
        fill-rule: evenodd;
      }
    </style>
  </defs>
  <path
     style="fill:#ffffff;stroke-width:1.16809"
     d="m 177.19934,202.36895 c -3.18311,-2.85789 -6.76409,-5.2165 -7.95772,-5.2414 -1.19364,-0.0248 -5.24122,1.35821 -8.99461,3.0736 -3.75343,1.71542 -7.07888,2.85974 -7.38995,2.54297 -0.31104,-0.31677 0.74153,-9.72629 2.33905,-20.91003 1.59752,-11.18373 2.90459,-20.83116 2.90459,-21.43869 0,-0.60755 1.52898,0.0466 3.39773,1.45364 2.6632,2.00521 4.42185,2.41839 8.13478,1.91121 2.99814,-0.40953 6.462,0.0431 9.43618,1.23279 3.73977,1.49602 5.40294,1.60929 8.14635,0.55472 3.3521,-1.28854 3.43019,-1.2377 2.8314,1.84346 -0.33868,1.74271 -1.71523,11.12529 -3.05903,20.85019 -1.3438,9.72491 -2.79382,18.05111 -3.2223,18.50267 -0.42844,0.45153 -3.38337,-1.51728 -6.56647,-4.37513 z m 24.01798,-16.00466 c -8.31266,-2.68202 -8.24769,-2.46898 -5.71483,-18.73695 1.23001,-7.90002 1.71749,-8.99373 4.64504,-10.42144 1.79896,-0.87734 3.53689,-1.32417 3.86208,-0.993 0.32519,0.33117 1.84626,6.61218 3.38015,13.95777 1.53388,7.3456 3.06131,14.54914 3.39431,16.00788 0.73781,3.2323 -0.0752,3.24809 -9.56675,0.18574 z M 15.72903,103.95882 V 23.801956 h 104.1744 104.17438 v 80.156864 80.15687 h -5.65248 c -4.88334,0 -5.74742,-0.36089 -6.35039,-2.65224 -1.16686,-4.43416 -0.81874,-6.77798 1.00668,-6.77798 1.52404,0 1.73624,-8.64435 1.73624,-70.72665 V 33.232176 H 119.90343 24.988973 v 70.726644 70.72665 h 64.240872 64.240875 v 2.85055 c 0,7.04243 4.89299,6.57967 -69.573432,6.57967 H 15.72903 Z m 22.653793,61.80161 c -1.000401,-1.01878 -1.818921,-3.4058 -1.818921,-5.30449 0,-2.66627 -0.526986,-3.45211 -2.314986,-3.45211 -2.123213,0 -2.314987,-0.78587 -2.314987,-9.48653 0,-8.8214 0.221879,-9.6959 3.164743,-12.47341 1.740602,-1.6428 4.262588,-5.99368 5.604393,-9.66861 1.571564,-4.30417 3.431527,-7.19986 5.227093,-8.13782 1.735583,-0.90664 7.81042,-1.45611 16.098598,-1.45611 8.268216,0 14.38121,0.55166 16.135603,1.45611 1.830328,0.9436 3.746157,3.87963 5.443245,8.34181 1.440348,3.78714 3.94567,8.13802 5.567399,9.66864 2.68915,2.53804 2.948578,3.61755 2.948578,12.26939 0,8.70066 -0.191773,9.48653 -2.314986,9.48653 -1.869554,0 -2.314987,0.78584 -2.314987,4.08424 0,2.8778 -0.683811,4.45694 -2.314986,5.34595 -3.736329,2.03641 -6.944957,-0.43348 -6.944957,-5.34595 v -4.08424 H 62.028756 45.823855 v 3.88995 c 0,6.16381 -3.755464,8.62 -7.441032,4.86665 z m 6.052035,-19.60137 c 2.129044,-2.16819 1.654705,-5.43037 -0.999977,-6.87725 -3.019856,-1.64587 -5.71348,0.33996 -5.71348,4.21216 0,3.74761 4.065653,5.36159 6.713457,2.66509 z m 41.237534,-0.4355 c 2.844779,-2.8971 -0.60339,-8.36803 -4.35104,-6.90347 -2.462876,0.96246 -3.290463,3.80753 -1.885324,6.48135 1.446736,2.75294 3.791772,2.91167 6.236364,0.42212 z m -5.769327,-17.20335 c -2.786932,-8.04423 -2.818592,-8.05849 -17.874309,-8.05849 -14.939696,0 -14.640204,-0.13513 -17.636247,7.95674 l -1.854904,5.0098 H 62.070528 81.603451 Z M 96.75355,162.8977 c 0,-2.29205 0.771678,-2.35756 27.77983,-2.35756 27.00817,0 27.77985,0.0656 27.77985,2.35756 0,2.29205 -0.77168,2.35755 -27.77985,2.35755 -27.008152,0 -27.77983,-0.0656 -27.77983,-2.35755 z m 84.01855,-4.42041 c -0.47536,-0.48626 -4.58134,-1.14931 -9.12441,-1.47346 -7.89667,-0.56348 -8.37922,-0.77094 -10.96719,-4.71513 -1.48888,-2.26913 -4.76193,-5.37308 -7.27342,-6.89766 -4.36064,-2.6471 -4.56819,-3.04531 -4.60736,-8.84081 -0.0226,-3.33792 -0.7854,-7.39503 -1.69522,-9.01586 -2.44745,-4.36008 -2.08925,-8.07323 1.15783,-12.00317 1.59175,-1.92643 3.17693,-4.92048 3.52261,-6.65341 1.25165,-6.27445 3.30343,-8.76954 8.48386,-10.316781 2.78399,-0.831489 6.56894,-2.982292 8.41101,-4.779533 3.27008,-3.19055 3.47857,-3.230887 8.82809,-1.707864 3.01339,0.857929 7.76567,1.467749 10.56065,1.355166 4.65982,-0.187712 5.52907,0.265392 10.47004,5.457377 2.96358,3.114125 6.85305,6.866245 8.64327,8.337995 2.80168,2.30335 3.15131,3.23851 2.51072,6.71587 -0.47209,2.56278 -0.0944,5.62382 1.03305,8.37171 2.45823,5.9916 2.23866,8.50975 -1.13478,13.01389 -1.60162,2.13845 -3.23572,5.63643 -3.63135,7.77333 -0.94632,5.11126 -3.17295,7.57349 -7.67873,8.49119 -2.02745,0.41296 -5.61638,2.33041 -7.9754,4.26103 -4.18012,3.42101 -7.78529,4.41412 -9.53327,2.62612 z m 8.33766,-13.13582 c 7.75608,-4.03133 11.81819,-10.96225 11.81819,-20.16464 0,-12.93801 -9.11418,-22.39679 -21.58082,-22.39679 -16.73063,0 -27.33592,17.17083 -20.05962,32.4781 5.21887,10.97896 19.08135,15.66607 29.82225,10.08333 z m -92.35621,5.76846 c 0,-2.28923 0.771678,-2.35756 26.62235,-2.35756 25.85066,0 26.62235,0.0684 26.62235,2.35756 0,2.28922 -0.77169,2.35756 -26.62235,2.35756 -25.850672,0 -26.62235,-0.0684 -26.62235,-2.35756 z m 0,-11.78778 c 0,-2.27897 0.771678,-2.35756 23.14988,-2.35756 22.37817,0 23.14986,0.0787 23.14986,2.35756 0,2.27897 -0.77169,2.35756 -23.14986,2.35756 -22.378202,0 -23.14988,-0.0787 -23.14988,-2.35756 z m 0,-11.78778 c 0,-2.27481 0.771678,-2.35754 21.99236,-2.35754 21.22071,0 21.99239,0.0827 21.99239,2.35754 0,2.27483 -0.77168,2.35756 -21.99239,2.35756 -21.220682,0 -21.99236,-0.0827 -21.99236,-2.35756 z m 0,-11.78775 c 0,-2.27484 0.771678,-2.35757 21.99236,-2.35757 21.22071,0 21.99239,0.0828 21.99239,2.35757 0,2.27481 -0.77168,2.35753 -21.99239,2.35753 -21.220682,0 -21.99236,-0.0828 -21.99236,-2.35753 z m 0,-11.7878 c 0,-2.28611 0.771678,-2.35754 25.46486,-2.35754 24.69318,0 25.46484,0.0715 25.46484,2.35754 0,2.28612 -0.77166,2.35756 -25.46484,2.35756 -24.693182,0 -25.46486,-0.0715 -25.46486,-2.35756 z M 44.029988,102.4628 c -0.323163,-0.85762 -0.442396,-9.226457 -0.264967,-18.597402 l 0.322586,-17.038062 h 17.362399 17.362401 v 18.271045 18.271059 l -17.097424,0.32635 c -13.341758,0.25466 -17.226489,-0.0161 -17.684995,-1.23299 z M 96.75355,92.171051 c 0,-2.301427 0.771678,-2.357559 32.40982,-2.357559 31.63813,0 32.40979,0.05608 32.40979,2.357559 0,2.301412 -0.77166,2.35755 -32.40979,2.35755 -31.638142,0 -32.40982,-0.05616 -32.40982,-2.35755 z m 0,-11.787779 c 0,-2.324809 0.771678,-2.35755 55.55968,-2.35755 54.78802,0 55.55967,0.03274 55.55967,2.35755 0,2.324806 -0.77165,2.357559 -55.55967,2.357559 -54.788002,0 -55.55968,-0.03274 -55.55968,-2.357559 z m 0,-11.787772 c 0,-2.324818 0.771678,-2.357559 55.55968,-2.357559 54.78802,0 55.55967,0.03274 55.55967,2.357559 0,2.324809 -0.77165,2.357551 -55.55967,2.357551 -54.788002,0 -55.55968,-0.03274 -55.55968,-2.357551 z M 53.401769,61.422626 c -1.697875,-1.1435 -4.259596,-6.552119 -4.180768,-9.003045 0.08077,-2.511308 0.09616,-7.374219 4.038956,-10.641269 2.749569,-2.278325 8.540498,-3.502345 13.869465,-1.515308 5.416047,2.019506 9.689982,7.120548 5.953261,16.518697 -0.912222,2.294316 -3.466552,6.070688 -9.12451,7.198079 -3.708024,0.73885 -8.815146,-1.38444 -10.556404,-2.557154 z M 96.75355,56.807721 c 0,-2.324808 0.771678,-2.35755 55.55968,-2.35755 54.78802,0 55.55967,0.03274 55.55967,2.35755 0,2.324818 -0.77165,2.357561 -55.55967,2.357561 -54.788002,0 -55.55968,-0.03274 -55.55968,-2.357561 z m 0,-11.787771 c 0,-2.32481 0.771678,-2.357556 55.55968,-2.357556 54.78802,0 55.55967,0.03275 55.55967,2.357556 0,2.324811 -0.77165,2.357554 -55.55967,2.357554 -54.788002,0 -55.55968,-0.03274 -55.55968,-2.357554 z"
     id="path36"
     sodipodi:nodetypes="sssssssssssssssssssssccccccsssscccccccssccsssssssssssssssscccssssssssssssscccssssssssssssscssssssssssssssssssssssssssssssssssssssssssssscccccssssssssssssssssssssssssssssssssss" />
</svg>
