<?xml version="1.0" encoding="UTF-8" standalone="no"?>
<svg
   id="Layer_1"
   enable-background="new 0 0 512 512"
   viewBox="0 0 512 512"
   version="1.1"
   sodipodi:docname="icons_psychopathy.svg"
   inkscape:version="1.4 (86a8ad7, 2024-10-11)"
   xmlns:inkscape="http://www.inkscape.org/namespaces/inkscape"
   xmlns:sodipodi="http://sodipodi.sourceforge.net/DTD/sodipodi-0.dtd"
   xmlns="http://www.w3.org/2000/svg"
   xmlns:svg="http://www.w3.org/2000/svg">
  <defs
     id="defs3" />
  <sodipodi:namedview
     id="namedview3"
     pagecolor="#ffffff"
     bordercolor="#000000"
     borderopacity="0.25"
     inkscape:showpageshadow="2"
     inkscape:pageopacity="0.0"
     inkscape:pagecheckerboard="0"
     inkscape:deskcolor="#d1d1d1"
     inkscape:zoom="3.5449219"
     inkscape:cx="256"
     inkscape:cy="256"
     inkscape:window-width="3840"
     inkscape:window-height="2054"
     inkscape:window-x="7665"
     inkscape:window-y="-5"
     inkscape:window-maximized="1"
     inkscape:current-layer="Layer_1" />
  <g
     id="g3">
    <path
       d="m 187.909,230.731 -44.038,-44.038 c -20.054,2.137 -35.727,19.157 -35.727,39.77 0,22.047 17.942,39.983 39.995,39.983 20.613,-0.001 37.633,-15.667 39.77,-35.715 z"
       id="path1"
       style="fill:#ffffff" />
    <path
       d="m 456.804,90.82 c 5.912,-26.758 4.505,-50.963 1.588,-68.563 -9.778,13.122 -24.252,22.605 -42.972,27.978 -3.21,0.922 -6.658,0.314 -9.359,-1.644 C 362.203,16.802 310.312,0 256,0 201.687,0 149.797,16.802 105.939,48.591 103.238,50.549 99.786,51.155 96.581,50.235 77.86,44.862 63.385,35.378 53.608,22.256 50.691,39.853 49.284,64.058 55.196,90.82 55.889,93.958 55.155,97.242 53.193,99.786 18.394,144.895 0,198.913 0,256 0,397.159 114.841,512 256,512 397.159,512 512,397.159 512,256 512,198.913 493.606,144.895 458.807,99.785 456.844,97.242 456.111,93.958 456.804,90.82 Z M 86.449,226.462 c 0,-26.233 16.459,-48.694 39.592,-57.6 L 86.232,129.054 c -4.236,-4.236 -4.236,-11.105 0,-15.341 4.237,-4.235 11.105,-4.235 15.341,0 l 54.136,54.137 c 0.068,0.066 0.133,0.131 0.2,0.199 l 50.695,50.696 c 2.047,2.024 3.226,4.799 3.226,7.717 0,34.009 -27.674,61.677 -61.691,61.677 -34.016,10e-4 -61.69,-27.668 -61.69,-61.677 z m 285.722,136.11 c -28.175,24.716 -70.518,38.891 -116.171,38.891 -45.653,0 -87.995,-14.175 -116.171,-38.891 -4.503,-3.951 -4.952,-10.804 -1.001,-15.308 3.951,-4.502 10.805,-4.95 15.308,-1.001 23.916,20.98 61.996,33.505 101.863,33.505 39.867,0 77.947,-12.525 101.863,-33.505 4.505,-3.95 11.357,-3.503 15.308,1.001 3.952,4.504 3.504,11.357 -0.999,15.308 z m 53.597,-233.517 -39.809,39.808 c 23.133,8.906 39.592,31.367 39.592,57.6 0,34.009 -27.675,61.677 -61.691,61.677 -34.016,0 -61.691,-27.668 -61.691,-61.677 0,-2.952 1.201,-5.754 3.291,-7.783 l 50.611,-50.611 c 0.078,-0.08 0.157,-0.159 0.237,-0.236 l 54.118,-54.118 c 4.237,-4.236 11.106,-4.235 15.341,0 4.237,4.235 4.237,11.103 10e-4,15.34 z"
       id="path2"
       style="fill:#ffffff" />
    <path
       d="m 324.091,230.731 c 2.137,20.048 19.157,35.714 39.769,35.714 22.054,0 39.996,-17.936 39.996,-39.983 0,-20.612 -15.673,-37.632 -35.727,-39.77 z"
       id="path3"
       style="fill:#ffffff" />
  </g>
</svg>
