<?xml version="1.0" encoding="UTF-8" standalone="no"?>
<svg
   id="Layer_1"
   version="1.1"
   viewBox="0 0 512 512"
   sodipodi:docname="icons_emotion_neuroticism.svg"
   inkscape:version="1.4 (86a8ad7, 2024-10-11)"
   xmlns:inkscape="http://www.inkscape.org/namespaces/inkscape"
   xmlns:sodipodi="http://sodipodi.sourceforge.net/DTD/sodipodi-0.dtd"
   xmlns="http://www.w3.org/2000/svg"
   xmlns:svg="http://www.w3.org/2000/svg">
  <sodipodi:namedview
     id="namedview1"
     pagecolor="#ffffff"
     bordercolor="#000000"
     borderopacity="0.25"
     inkscape:showpageshadow="2"
     inkscape:pageopacity="0.0"
     inkscape:pagecheckerboard="0"
     inkscape:deskcolor="#d1d1d1"
     inkscape:zoom="3.5449219"
     inkscape:cx="256"
     inkscape:cy="256"
     inkscape:window-width="3840"
     inkscape:window-height="2054"
     inkscape:window-x="3825"
     inkscape:window-y="-15"
     inkscape:window-maximized="1"
     inkscape:current-layer="Layer_1" />
  <!-- Generator: Adobe Illustrator 29.0.1, SVG Export Plug-In . SVG Version: 2.1.0 Build 192)  -->
  <defs
     id="defs1">
    <style
       id="style1">
      .st0 {
        fill: #fff;
      }
    </style>
  </defs>
  <g
     id="g1">
    <path
       class="st0"
       d="M286.2,403c-9.4,0-18.1-1.3-25.8-3.1-16.1-3.8-28.3-15.6-32.8-31.6-4.5-15.8,0-32.8,11.6-44.4l85.7-85.7c11.6-11.6,28.6-16,44.4-11.6,15.9,4.5,27.7,16.8,31.6,32.8,6.5,27.1,5.9,67.7-33.4,107-28.2,28.2-57.1,36.5-81.2,36.5h0ZM356.8,265c-1.1,0-2.4.3-3.7,1.6h0s-85.7,85.7-85.7,85.7c-1.9,1.9-1.7,4.1-1.3,5.2.4,1.3,1.3,3,3.6,3.5,25,6,48.3-1.7,69.4-22.8s28.7-44.4,22.8-69.4c-.6-2.3-2.2-3.3-3.5-3.6-.4-.1-.9-.2-1.6-.2h0ZM451.5,204c-9.8,0-27.1-3.3-64.1-32.3-8.6-6.7-13.5-16.8-13.5-27.7s4.9-21,13.5-27.7c37-28.9,54.3-32.3,64.1-32.3,33.3,0,60.3,26.9,60.3,60s-27.1,60-60.3,60ZM417,144c24.7,18.6,34.1,19.9,34.6,20,11.2,0,20.3-9,20.3-20s-9.1-20-20.3-20c-.6,0-9.9,1.4-34.6,20ZM348.7,494.6c33.2-12.9,62.9-32.3,88.3-57.7,25.4-25.4,44.8-55.1,57.7-88.3,12.4-32.1,18.2-65.8,17.2-100.4-.3-11-9.6-19.7-20.6-19.4-11,.3-19.7,9.5-19.4,20.6,1.8,60.1-20.6,116.7-63.2,159.2-42.5,42.5-99.1,65-159.2,63.2-11-.3-20.3,8.4-20.6,19.4-.3,11,8.4,20.3,19.4,20.6,2.6,0,5.2.1,7.8.1,31.8,0,62.9-5.8,92.6-17.3ZM63.7,394.2c9.5-5.7,12.6-18,6.9-27.4-50.9-85-37.5-193.4,32.7-263.6,70.2-70.2,178.6-83.6,263.6-32.7,9.5,5.7,21.8,2.6,27.4-6.9,5.7-9.5,2.6-21.8-6.9-27.4C339.3,7.4,282-4.8,226.1,1.7c-57.7,6.7-109.9,32.1-151.1,73.2S8.5,168.4,1.8,226.1c-6.5,55.9,5.7,113.2,34.5,161.3,3.7,6.3,10.4,9.7,17.2,9.7,3.5,0,7-.9,10.3-2.8h0ZM142.9,512c-33.1,0-60-27.1-60-60.3s3.3-27.1,32.3-64.1c0,0,0,0,0,0,6.7-8.6,16.8-13.5,27.7-13.5s21,4.9,27.7,13.5c28.9,37,32.3,54.3,32.3,64.1,0,33.3-26.9,60.3-60,60.3h0ZM122.9,451.7c0,11.2,9,20.3,20,20.3s20-9.1,20-20.3c0-.6-1.4-9.9-20-34.6-18.6,24.7-19.9,34.1-20,34.6ZM259.5,201c-11.6,0-22.7-4.6-31.1-13.1-10.5-10.7-14.8-25.9-11.3-40.4,3.6-15.1,9.4-30,17.4-44.2,5.4-9.6,17.6-13,27.2-7.6,9.6,5.4,13,17.6,7.6,27.2-6.2,10.9-10.7,22.3-13.4,33.8-.3,1.2,0,2.3,1,3.2.7.7,1.8,1.4,3.3,1.1,12.6-2.7,23.6-7,32.8-12.9,9.3-5.9,21.7-3.2,27.6,6.1,5.9,9.3,3.2,21.7-6.1,27.6-13.2,8.4-28.7,14.6-45.9,18.3-3.1.7-6.1,1-9.2,1ZM180.6,314.8c8.4-13.2,14.6-28.7,18.3-45.9,3.1-14.7-1.4-29.7-12.2-40.3-10.7-10.5-25.9-14.8-40.4-11.3-15.1,3.6-30,9.4-44.2,17.4-9.6,5.4-13,17.6-7.6,27.2,5.4,9.6,17.6,13,27.2,7.6,10.9-6.2,22.3-10.7,33.8-13.4,1.2-.3,2.3,0,3.2,1,.7.7,1.4,1.8,1.1,3.3-2.7,12.6-7,23.6-12.9,32.8-5.9,9.3-3.2,21.7,6.1,27.6,3.3,2.1,7.1,3.1,10.7,3.1,6.6,0,13.1-3.3,16.9-9.2h0Z"
       id="path1"
       style="fill:#ffffff" />
  </g>
</svg>
