<?xml version="1.0" encoding="UTF-8" standalone="no"?>
<svg
   id="Layer_1"
   enable-background="new 0 0 512 512"
   viewBox="0 0 512 512"
   version="1.1"
   sodipodi:docname="icons_ideologytracker.svg"
   inkscape:version="1.4 (86a8ad7, 2024-10-11)"
   xmlns:inkscape="http://www.inkscape.org/namespaces/inkscape"
   xmlns:sodipodi="http://sodipodi.sourceforge.net/DTD/sodipodi-0.dtd"
   xmlns="http://www.w3.org/2000/svg"
   xmlns:svg="http://www.w3.org/2000/svg">
  <defs
     id="defs1" />
  <sodipodi:namedview
     id="namedview1"
     pagecolor="#ffffff"
     bordercolor="#000000"
     borderopacity="0.25"
     inkscape:showpageshadow="2"
     inkscape:pageopacity="0.0"
     inkscape:pagecheckerboard="0"
     inkscape:deskcolor="#d1d1d1"
     inkscape:zoom="3.5449219"
     inkscape:cx="256"
     inkscape:cy="256"
     inkscape:window-width="3840"
     inkscape:window-height="2054"
     inkscape:window-x="7665"
     inkscape:window-y="-5"
     inkscape:window-maximized="1"
     inkscape:current-layer="Layer_1" />
  <g
     id="g1">
    <path
       d="m 474.2,32.9 v 214 c 0,6.4 -3.4,12.2 -8.9,15.4 -49.2,28.6 -108.9,57.2 -170.8,57.2 -30.2,0.1 -60,-7.2 -86.7,-21.4 -6.5,-3.4 -12.9,-7.2 -19.1,-10.8 -17.1,-10.1 -33.3,-19.5 -49.9,-21.7 -22.4,-2.9 -45.2,1.3 -65.2,11.8 v 216.8 c -0.2,9.9 -8.4,17.7 -18.3,17.4 -9.5,-0.2 -17.2,-7.9 -17.4,-17.4 V 17.8 C 38.1,8 46.2,0.2 56.1,0.4 65.6,0.6 73.3,8.3 73.5,17.8 v 6.5 c 22.3,-8.3 46.3,-11.1 69.9,-8.1 23.8,3.1 44.8,15.4 63.3,26.3 6.1,3.6 11.9,7 17.7,10 75.1,39.5 154.9,4.4 223,-35.1 8.5,-4.9 19.4,-2 24.4,6.5 1.6,2.7 2.4,5.8 2.4,9 z"
       id="path1"
       style="fill:#ffffff" />
  </g>
</svg>
