<?xml version="1.0" encoding="UTF-8" standalone="no"?>
<svg
   id="Layer_1"
   enable-background="new 0 0 100 100"
   height="100"
   viewBox="0 0 100 100"
   width="100"
   version="1.1"
   sodipodi:docname="icons_pragmatism.svg"
   inkscape:version="1.4 (86a8ad7, 2024-10-11)"
   xmlns:inkscape="http://www.inkscape.org/namespaces/inkscape"
   xmlns:sodipodi="http://sodipodi.sourceforge.net/DTD/sodipodi-0.dtd"
   xmlns="http://www.w3.org/2000/svg"
   xmlns:svg="http://www.w3.org/2000/svg">
  <defs
     id="defs3" />
  <sodipodi:namedview
     id="namedview3"
     pagecolor="#ffffff"
     bordercolor="#000000"
     borderopacity="0.25"
     inkscape:showpageshadow="2"
     inkscape:pageopacity="0.0"
     inkscape:pagecheckerboard="0"
     inkscape:deskcolor="#d1d1d1"
     inkscape:zoom="18.15"
     inkscape:cx="50"
     inkscape:cy="50"
     inkscape:window-width="3840"
     inkscape:window-height="2054"
     inkscape:window-x="7665"
     inkscape:window-y="-5"
     inkscape:window-maximized="1"
     inkscape:current-layer="Layer_1" />
  <g
     id="g3">
    <path
       d="m 50.001,48.952 c 5.5,0 9.975,-4.476 9.975,-9.976 0,-5.502 -4.475,-9.977 -9.975,-9.977 -5.501,0 -9.976,4.475 -9.976,9.977 0.001,5.501 4.476,9.976 9.976,9.976 z"
       id="path1"
       style="fill:#ffffff" />
    <path
       d="M 60.543,52.105 H 39.458 c -3.968,0 -7.186,3.217 -7.186,7.186 l 0.041,3.783 c 4.013,5.408 10.443,8.922 17.68,8.922 7.295,0 13.768,-3.568 17.775,-9.047 l -0.04,-3.658 c 0.001,-3.969 -3.216,-7.186 -7.185,-7.186 z"
       id="path2"
       style="fill:#ffffff" />
    <path
       d="m 8.687,59.611 6.787,1.137 c 0.643,2.084 1.496,4.123 2.512,6.07 l -3.928,5.516 c -1.389,1.678 -1.258,4.102 0.275,5.641 l 7.691,7.689 c 0.795,0.791 1.85,1.24 2.975,1.24 0.973,0 1.912,-0.342 2.582,-0.9 l 5.598,-3.994 c 1.945,1.023 3.973,1.869 6.076,2.518 l 1.111,6.689 C 40.589,93.371 42.39,95 44.558,95 h 10.875 c 2.18,0 3.979,-1.629 4.174,-3.688 l 1.137,-6.785 c 2.096,-0.648 4.131,-1.494 6.07,-2.518 l 5.518,3.934 c 0.752,0.615 1.7,0.918 2.647,0.918 1.1,0 2.198,-0.406 2.991,-1.201 l 7.691,-7.689 c 1.537,-1.535 1.666,-3.959 0.352,-5.559 l -4,-5.594 c 1.016,-1.939 1.863,-3.977 2.51,-6.078 l 6.68,-1.129 c 2.17,-0.197 3.803,-1.996 3.803,-4.176 V 44.561 c 0,-2.176 -1.633,-3.975 -3.691,-4.178 L 84.524,39.246 C 83.878,37.15 83.03,35.115 82.014,33.18 l 3.941,-5.523 C 87.328,25.973 87.199,23.55 85.668,22.02 L 77.971,14.334 C 77.18,13.535 76.125,13.104 75,13.104 c -0.971,0 -1.918,0.33 -2.582,0.887 l -5.604,3.998 c -1.939,-1.023 -3.975,-1.867 -6.07,-2.52 L 59.63,8.783 C 59.411,6.629 57.612,5 55.433,5 H 44.558 C 42.39,5 40.589,6.629 40.386,8.688 l -1.131,6.781 c -2.104,0.652 -4.131,1.496 -6.076,2.52 l -5.52,-3.945 c -0.749,-0.61 -1.694,-0.912 -2.641,-0.912 -1.097,0 -2.194,0.405 -2.99,1.203 l -7.695,7.686 c -1.545,1.535 -1.664,3.963 -0.348,5.564 l 4,5.596 c -1.016,1.936 -1.863,3.971 -2.512,6.066 l -6.689,1.119 c -2.16,0.221 -3.789,2.02 -3.789,4.195 v 10.875 c 0,2.179 1.629,3.978 3.692,4.175 z M 49.993,23.996 c 14.344,0 26.01,11.658 26.01,26 0,14.346 -11.666,26 -26.01,26 -14.331,0 -26.002,-11.654 -26.002,-26 0,-14.342 11.671,-26 26.002,-26 z"
       id="path3"
       style="fill:#ffffff" />
  </g>
</svg>
