<?xml version="1.0" encoding="UTF-8" standalone="no"?>
<svg
   xmlns:dc="http://purl.org/dc/elements/1.1/"
   xmlns:cc="http://creativecommons.org/ns#"
   xmlns:rdf="http://www.w3.org/1999/02/22-rdf-syntax-ns#"
   xmlns:svg="http://www.w3.org/2000/svg"
   xmlns="http://www.w3.org/2000/svg"
   id="svg7"
   version="1.1"
   viewBox="0 0 256 256"
   height="256"
   width="256">
  <metadata
     id="metadata11">
    <rdf:RDF>
      <cc:Work
         rdf:about="">
        <dc:format>image/svg+xml</dc:format>
        <dc:type
           rdf:resource="http://purl.org/dc/dcmitype/StillImage" />
        <dc:title></dc:title>
      </cc:Work>
    </rdf:RDF>
  </metadata>
  <defs
     id="defs4">
    <style
       id="style2">
      .cls-1 {
        fill-rule: evenodd;
      }
    </style>
    <style
       id="style2-7">
      .cls-1 {
        fill-rule: evenodd;
      }
    </style>
  </defs>
  <path
     style="fill:#ffffff;fill-rule:evenodd;stroke-width:1.089728"
     d="M 12.884569,188.57688 V 24.027947 H 239.548 V 188.57688 Z M 226.47126,37.104683 H 27.051033 V 175.50014 H 226.47126 Z M 97.33849,208.28788 v -8.81372 h 57.75559 v 8.8268 c 19.6151,3.28771 33.94829,9.80755 37.32645,17.59366 -17.64815,2.54996 -40.59564,4.09192 -65.7106,4.09192 -25.59662,0 -48.950583,-1.6019 -66.728406,-4.23577 3.501296,-7.73053 17.815963,-14.20242 37.356966,-17.46289 z"
     class="cls-1"
     id="IconGraphic" />
  <path
     id="IconGraphic-7"
     class="cls-1"
     d="m 88.91262,81.835944 c 0,0.83467 -0.0667,2.10333 -0.2,3.806 h -19.965 v -3.355 c 0,-3.572 -0.23067,-5.909 -0.692,-7.011 -0.52037,-1.14024 -1.72149,-1.80987 -2.965,-1.653 -1.10557,-0.0598 -2.15626,0.48608 -2.743,1.425 -0.69533,1.31517 -1.01208,2.7975 -0.915,4.282 0,3.17333 0.62633,5.39367 1.879,6.661 1.218,1.26667 4.80933,3.73733 10.774,7.412 3.64125,2.10312 7.1116,4.48913 10.379,7.135996 2.0559,1.96335 3.65085,4.35817 4.67,7.012 1.37034,3.60262 2.01602,7.44031 1.9,11.293 0,7.21067 -1.71334,12.86967 -5.14,16.977 -3.42667,4.10733 -8.56667,6.64467 -15.42,7.612 v 7.615 h -9.193 v -7.862 c -5.22157,-0.48198 -10.13813,-2.67364 -13.987,-6.235 -3.98734,-3.62267 -5.98067,-9.94133 -5.98,-18.956 v -3.956 h 19.967 v 4.958 c 0,5.442 0.206,8.82233 0.618,10.141 0.38058,1.30053 1.64422,2.13648 2.99,1.978 1.17367,0.083 2.30918,-0.43561 3.015,-1.377 0.74032,-1.22671 1.08526,-2.65151 0.988,-4.081 0,-4.54067 -0.313,-7.78767 -0.939,-9.741 -0.626,-1.95333 -2.76767,-4.08167 -6.425,-6.385 -4.29453,-2.61972 -8.44395,-5.47023 -12.43,-8.539 -2.42214,-2.126546 -4.36005,-4.747816 -5.683,-7.686996 -1.64384,-3.50778 -2.46471,-7.34469 -2.4,-11.218 0,-6.04333 1.68866,-10.78433 5.066,-14.223 3.37733,-3.43867 8.444,-5.55867 15.2,-6.36 v -6.461 h 9.193 v 6.461 c 6.16133,0.8 10.77433,2.895 13.839,6.285 3.06466,3.39 4.59766,8.07067 4.599,14.042 z"
     style="fill:#ffffff;fill-rule:evenodd" />
  <path
     id="IconGraphic-7-7"
     class="cls-1"
     d="m 146.68337,81.749905 c 0,0.83467 -0.0667,2.10333 -0.2,3.806 h -19.965 v -3.355 c 0,-3.572 -0.23067,-5.909 -0.692,-7.011 -0.52037,-1.14024 -1.72149,-1.80987 -2.965,-1.653 -1.10557,-0.0598 -2.15626,0.48608 -2.743,1.425 -0.69533,1.31517 -1.01208,2.7975 -0.915,4.282 0,3.17333 0.62633,5.39367 1.879,6.661 1.218,1.26667 4.80933,3.73733 10.774,7.412 3.64125,2.10312 7.1116,4.48913 10.379,7.135995 2.0559,1.96335 3.65085,4.35817 4.67,7.012 1.37034,3.60262 2.01602,7.44031 1.9,11.293 0,7.21067 -1.71334,12.86967 -5.14,16.977 -3.42667,4.10733 -8.56667,6.64467 -15.42,7.612 v 7.615 h -9.193 v -7.862 c -5.22157,-0.48198 -10.13813,-2.67364 -13.987,-6.235 -3.98734,-3.62267 -5.980667,-9.94133 -5.979997,-18.956 v -3.956 h 19.966997 v 4.958 c 0,5.442 0.206,8.82233 0.618,10.141 0.38058,1.30053 1.64422,2.13648 2.99,1.978 1.17367,0.083 2.30918,-0.43561 3.015,-1.377 0.74032,-1.22671 1.08526,-2.65151 0.988,-4.081 0,-4.54067 -0.313,-7.78767 -0.939,-9.741 -0.626,-1.95333 -2.76767,-4.08167 -6.425,-6.385 -4.29453,-2.61972 -8.44395,-5.47023 -12.43,-8.539 -2.42214,-2.126545 -4.36005,-4.747815 -5.683,-7.686995 -1.643837,-3.50778 -2.464707,-7.34469 -2.399997,-11.218 0,-6.04333 1.688657,-10.78433 5.065997,-14.223 3.37733,-3.43867 8.444,-5.55867 15.2,-6.36 v -6.461 h 9.193 v 6.461 c 6.16133,0.8 10.77433,2.895 13.839,6.285 3.06466,3.39 4.59766,8.07067 4.599,14.042 z"
     style="fill:#ffffff;fill-rule:evenodd" />
  <path
     id="IconGraphic-7-4"
     class="cls-1"
     d="m 205.1621,80.994134 c 0,0.83467 -0.0667,2.10333 -0.2,3.806 h -19.965 v -3.355 c 0,-3.572 -0.23067,-5.909 -0.692,-7.011 -0.52037,-1.14024 -1.72149,-1.80987 -2.965,-1.653 -1.10557,-0.0598 -2.15626,0.48608 -2.743,1.425 -0.69533,1.31517 -1.01208,2.7975 -0.915,4.282 0,3.17333 0.62633,5.39367 1.879,6.661 1.218,1.26667 4.80933,3.73733 10.774,7.412 3.64125,2.10312 7.1116,4.48913 10.379,7.135996 2.0559,1.96335 3.65085,4.35817 4.67,7.012 1.37034,3.60262 2.01602,7.44031 1.9,11.293 0,7.21067 -1.71334,12.86967 -5.14,16.977 -3.42667,4.10733 -8.56667,6.64467 -15.42,7.612 v 7.615 h -9.193 v -7.862 c -5.22157,-0.48198 -10.13813,-2.67364 -13.98699,-6.235 -3.98734,-3.62267 -5.98067,-9.94133 -5.98,-18.956 v -3.956 h 19.96699 v 4.958 c 0,5.442 0.206,8.82233 0.618,10.141 0.38058,1.30053 1.64422,2.13648 2.99,1.978 1.17367,0.083 2.30918,-0.43561 3.015,-1.377 0.74032,-1.22671 1.08526,-2.65151 0.988,-4.081 0,-4.54067 -0.313,-7.78767 -0.939,-9.741 -0.626,-1.95333 -2.76767,-4.08167 -6.425,-6.385 -4.29453,-2.61972 -8.44395,-5.47023 -12.42999,-8.539 -2.42214,-2.12655 -4.36005,-4.747816 -5.683,-7.686996 -1.64384,-3.50778 -2.46471,-7.34469 -2.4,-11.218 0,-6.04333 1.68866,-10.78433 5.066,-14.223 3.37733,-3.43867 8.44399,-5.55867 15.19999,-6.36 v -6.461 h 9.193 v 6.461 c 6.16133,0.8 10.77433,2.895 13.839,6.285 3.06466,3.39 4.59766,8.07067 4.599,14.042 z"
     style="fill:#ffffff;fill-rule:evenodd" />
</svg>
