<?xml version="1.0" encoding="UTF-8" standalone="no"?>
<svg
   id="Layer_1"
   version="1.1"
   viewBox="0 0 512 512"
   sodipodi:docname="icons_emotion_envy.svg"
   inkscape:version="1.4 (86a8ad7, 2024-10-11)"
   xmlns:inkscape="http://www.inkscape.org/namespaces/inkscape"
   xmlns:sodipodi="http://sodipodi.sourceforge.net/DTD/sodipodi-0.dtd"
   xmlns="http://www.w3.org/2000/svg"
   xmlns:svg="http://www.w3.org/2000/svg">
  <sodipodi:namedview
     id="namedview1"
     pagecolor="#ffffff"
     bordercolor="#000000"
     borderopacity="0.25"
     inkscape:showpageshadow="2"
     inkscape:pageopacity="0.0"
     inkscape:pagecheckerboard="0"
     inkscape:deskcolor="#d1d1d1"
     inkscape:zoom="3.5449219"
     inkscape:cx="256"
     inkscape:cy="256"
     inkscape:window-width="3840"
     inkscape:window-height="2054"
     inkscape:window-x="3825"
     inkscape:window-y="-15"
     inkscape:window-maximized="1"
     inkscape:current-layer="g1" />
  <!-- Generator: Adobe Illustrator 29.0.1, SVG Export Plug-In . SVG Version: 2.1.0 Build 192)  -->
  <defs
     id="defs1">
    <style
       id="style1">
      .st0 {
        fill: #fff;
      }
    </style>
  </defs>
  <g
     id="g1">
    <path
       class="st0"
       d="M256,512c-68.4,0-132.7-26.6-181-75C26.6,388.7,0,324.4,0,256S26.6,123.3,75,75C123.3,26.6,187.6,0,256,0s132.7,26.6,181,75c48.4,48.4,75,112.6,75,181s-26.6,132.7-75,181c-48.4,48.4-112.6,75-181,75h0ZM256,40c-119.1,0-216,96.9-216,216s96.9,216,216,216,216-96.9,216-216S375.1,40,256,40ZM223.1,403s52.3-.2,52.5-.2c66.6-2,109.7-41.5,126.3-74.8,4.9-9.9.9-21.9-8.9-26.8-9.9-4.9-21.9-.9-26.8,8.9-11.7,23.4-42.7,51.2-91.5,52.7l-51.7.2c-11,0-20,9-19.9,20.1,0,11,9,19.9,20,19.9h0ZM208.4,183.6c8.1,8.1,12.6,18.4,12.6,32.4s-11.2,25-25,25-25-11.2-25-25,.2-3.3.5-4.9c-10.5.8-21.7,5.8-33.3,14.7-8.8,6.7-21.3,5.1-28-3.6-6.7-8.8-5.1-21.3,3.6-28,20.5-15.8,42.3-23.6,63.2-23.2,11.5,0,23.3,4.5,31.4,12.6h0ZM347,171c-20.9-.4-42.7,7.4-63.2,23.2-8.8,6.7-10.4,19.3-3.6,28,6.7,8.8,19.3,10.4,28,3.6,11.6-8.9,22.8-13.9,33.3-14.7-.3,1.6-.5,3.2-.5,4.9,0,13.8,11.2,25,25,25s25-11.2,25-25-4.5-24.3-12.6-32.4c-8.1-8.1-19.9-12.6-31.4-12.6h0Z"
       id="path1"
       style="fill:#ffffff" />
  </g>
</svg>
