<?xml version="1.0" encoding="UTF-8" standalone="no"?>
<svg
   id="Layer_3"
   enable-background="new 0 0 60 60"
   height="512"
   viewBox="0 0 60 60"
   width="512"
   version="1.1"
   sodipodi:docname="sit_icons_worldwartrauma.svg"
   inkscape:version="1.4 (86a8ad7, 2024-10-11)"
   xmlns:inkscape="http://www.inkscape.org/namespaces/inkscape"
   xmlns:sodipodi="http://sodipodi.sourceforge.net/DTD/sodipodi-0.dtd"
   xmlns="http://www.w3.org/2000/svg"
   xmlns:svg="http://www.w3.org/2000/svg">
  <defs
     id="defs3" />
  <sodipodi:namedview
     id="namedview3"
     pagecolor="#ffffff"
     bordercolor="#000000"
     borderopacity="0.25"
     inkscape:showpageshadow="2"
     inkscape:pageopacity="0.0"
     inkscape:pagecheckerboard="0"
     inkscape:deskcolor="#d1d1d1"
     inkscape:zoom="3.5449219"
     inkscape:cx="256"
     inkscape:cy="256"
     inkscape:window-width="3840"
     inkscape:window-height="2054"
     inkscape:window-x="7665"
     inkscape:window-y="-5"
     inkscape:window-maximized="1"
     inkscape:current-layer="Layer_3" />
  <g
     id="g3">
    <path
       d="m13 42h2v-36c-3.86 0-7 3.14-7 7v31.11c.01-.02.02-.03.04-.05 1.35-1.33 3.1-2.06 4.96-2.06z"
       id="path1"
       style="fill:#ffffff" />
    <path
       d="m52 9c0-1.65-1.35-3-3-3h-32v36h34c.35 0 .69.07 1 .18zm-6.24 22.59-6 7c-.19.22-.47.35-.76.35h-12c-.2 0-.4-.06-.56-.17l-4.42-3c-.31-.21-.47-.57-.44-.93.04-.37.28-.68.62-.82l1.56-.65-1.71-5.11c-.14-.42.01-.89.38-1.14.36-.25.85-.24 1.19.04l4.28 3.42 2.15-2.32c.18-.2.44-.31.7-.32.27-.02.53.09.72.27l2.33 2.19 3.37-5.02c.23-.34.65-.51 1.05-.41.41.09.71.42.77.83l.83 5.81 4.86-1.62c.43-.14.9.02 1.15.39s.22.87-.07 1.21zm.31-16.82c-.15.91-.83 1.61-1.72 1.8l-4.59.98-3.3 4.46c-.15.2-.36.33-.6.38l-3.34.71c-.06.02-.13.03-.2.03-.31 0-.6-.14-.79-.39-.24-.3-.28-.72-.11-1.06l1.32-2.64-3.46.74c-.38.08-.78.12-1.17.12-.36 0-.71-.03-1.06-.1l-2.9-.56c-.95-.17-1.69-.9-1.9-1.86l-.4-1.86c-.01-.04-.01-.08-.01-.12v-.01c-.02-.05-.04-.1-.05-.16l-.92-4.32c-.11-.54.23-1.07.77-1.19l2.48-.53c.36-.07.72.05.96.31l3.24 3.62 11.51-2.45c1.04-.23 2.12-.04 3.04.52l2.17 1.32c.78.47 1.18 1.36 1.03 2.26z"
       id="path2"
       style="fill:#ffffff" />
    <path
       d="m52 49v-4c0-.55-.45-1-1-1h-38c-1.32 0-2.58.52-3.54 1.47-.88.89-1.4 2.06-1.45 3.29-.07 1.32.42 2.59 1.36 3.58 1.01 1.06 2.41 1.66 3.86 1.66h33.77c2.76 0 5-2.24 5-5z"
       id="path3"
       style="fill:#ffffff" />
  </g>
</svg>
