<?xml version="1.0" encoding="UTF-8" standalone="no"?>
<svg
   id="Layer_3"
   enable-background="new 0 0 60 60"
   height="512"
   viewBox="0 0 60 60"
   width="512"
   version="1.1"
   sodipodi:docname="sit_icons_colonialtrauma.svg"
   inkscape:version="1.4 (86a8ad7, 2024-10-11)"
   xmlns:inkscape="http://www.inkscape.org/namespaces/inkscape"
   xmlns:sodipodi="http://sodipodi.sourceforge.net/DTD/sodipodi-0.dtd"
   xmlns="http://www.w3.org/2000/svg"
   xmlns:svg="http://www.w3.org/2000/svg">
  <defs
     id="defs14" />
  <sodipodi:namedview
     id="namedview14"
     pagecolor="#ffffff"
     bordercolor="#000000"
     borderopacity="0.25"
     inkscape:showpageshadow="2"
     inkscape:pageopacity="0.0"
     inkscape:pagecheckerboard="0"
     inkscape:deskcolor="#d1d1d1"
     inkscape:zoom="3.5449219"
     inkscape:cx="256"
     inkscape:cy="256"
     inkscape:window-width="3840"
     inkscape:window-height="2054"
     inkscape:window-x="7665"
     inkscape:window-y="-5"
     inkscape:window-maximized="1"
     inkscape:current-layer="Layer_3" />
  <g
     id="g14">
    <path
       d="m49.64 41.02c-2.13.43-3.82 2.12-4.25 4.25h4.25z"
       id="path1"
       style="fill:#ffffff" />
    <path
       d="m49.64 10.25v-4.25h-4.25c.43 2.13 2.11 3.82 4.25 4.25z"
       id="path2"
       style="fill:#ffffff" />
    <path
       d="m49.64 12.46c-3.34-.48-5.98-3.12-6.46-6.46h-25.18v39.27h25.18c.48-3.33 3.12-5.97 6.46-6.46zm-3.53 14.27h-.89c-.22 2.19-1.09 4.19-2.41 5.81l.63.63c.43.43.43 1.12 0 1.54-.21.22-.49.32-.77.32s-.56-.1-.77-.32l-.64-.63c-1.61 1.32-3.61 2.19-5.81 2.41v.89c0 .61-.48 1.09-1.09 1.09-.6 0-1.09-.48-1.09-1.09v-.89c-2.19-.22-4.19-1.09-5.81-2.41l-.63.63c-.21.22-.49.32-.77.32s-.56-.1-.77-.32c-.43-.42-.43-1.11 0-1.54l.63-.63c-1.32-1.62-2.19-3.62-2.41-5.81h-.89c-.61 0-1.09-.49-1.09-1.09 0-.61.48-1.09 1.09-1.09h.89c.22-2.2 1.09-4.2 2.41-5.81l-.63-.64c-.43-.42-.43-1.12 0-1.54.42-.43 1.11-.43 1.54 0l.63.63c1.62-1.32 3.62-2.19 5.81-2.41v-.89c0-.6.49-1.09 1.09-1.09.61 0 1.09.49 1.09 1.09v.89c2.2.22 4.2 1.09 5.81 2.41l.64-.63c.42-.43 1.12-.43 1.54 0 .43.42.43 1.12 0 1.54l-.63.64c1.32 1.61 2.19 3.61 2.41 5.81h.89c.6 0 1.09.48 1.09 1.09 0 .6-.49 1.09-1.09 1.09z"
       id="path3"
       style="fill:#ffffff" />
    <path
       d="m34.36 24.55c-.6 0-1.09.48-1.09 1.09 0 .6.49 1.09 1.09 1.09.61 0 1.09-.49 1.09-1.09 0-.61-.48-1.09-1.09-1.09z"
       id="path4"
       style="fill:#ffffff" />
    <path
       d="m37.31 27.04 3.94 3.94c.94-1.21 1.57-2.66 1.77-4.25h-5.58c-.04.1-.08.21-.13.31z"
       id="path5"
       style="fill:#ffffff" />
    <path
       d="m37.31 24.23c.05.11.09.21.13.32h5.58c-.2-1.59-.83-3.05-1.77-4.26z"
       id="path6"
       style="fill:#ffffff" />
    <path
       d="m39.71 18.75c-1.21-.94-2.67-1.57-4.26-1.77v5.58c.11.04.21.08.32.13z"
       id="path7"
       style="fill:#ffffff" />
    <path
       d="m33.27 22.56v-5.58c-1.59.2-3.04.83-4.25 1.77l3.94 3.94c.1-.05.21-.09.31-.13z"
       id="path8"
       style="fill:#ffffff" />
    <path
       d="m31.42 24.23-3.94-3.94c-.94 1.21-1.57 2.67-1.77 4.26h5.58c.04-.11.08-.21.13-.32z"
       id="path9"
       style="fill:#ffffff" />
    <path
       d="m13.64 47.45c-1.81 0-3.28 1.47-3.28 3.28 0 1.8 1.47 3.27 3.28 3.27h34.7c-.83-1.47-.89-2.9-.89-3.27 0-1.34.41-2.44.9-3.28z"
       id="path10"
       style="fill:#ffffff" />
    <path
       d="m15.82 45.27v-39.27h-.84c-2.55 0-4.62 2.07-4.62 4.62v35.77c.91-.69 2.04-1.12 3.27-1.12z"
       id="path11"
       style="fill:#ffffff" />
    <path
       d="m35.45 28.71v5.58c1.59-.2 3.05-.83 4.26-1.77l-3.94-3.94c-.11.05-.21.09-.32.13z"
       id="path12"
       style="fill:#ffffff" />
    <path
       d="m31.29 26.73h-5.58c.2 1.59.83 3.04 1.77 4.25l3.94-3.94c-.05-.1-.09-.21-.13-.31z"
       id="path13"
       style="fill:#ffffff" />
    <path
       d="m29.02 32.52c1.21.94 2.66 1.57 4.25 1.77v-5.58c-.1-.04-.21-.08-.31-.13z"
       id="path14"
       style="fill:#ffffff" />
  </g>
</svg>
